<?xml version="1.0" encoding="UTF-8"?>
<svg id="Layer_2" data-name="Layer 2" xmlns="http://www.w3.org/2000/svg" viewBox="0 0 41.63 41.63">
  <defs>
    <style>
      .cls-1 {
        fill: #231f20;
      }
    </style>
  </defs>
  <g id="icons">
    <g id="Apple_TV_Horz_Icons" data-name="Apple TV Horz Icons">
      <path class="cls-1" d="M29.72,0H10.55c-.38,0-.76.01-1.15.02-.83.02-1.67.07-2.51.22-.83.15-1.61.4-2.38.78-.75.38-1.43.88-2.02,1.47-.6.59-1.09,1.28-1.47,2.03-.39.76-.64,1.54-.78,2.38-.15.83-.2,1.67-.22,2.5-.01.39-.01.77-.02,1.15v20.52c0,.39,0,.77.02,1.15.02.84.07,1.68.22,2.5.15.84.39,1.62.78,2.38.38.74.87,1.43,1.47,2.02.59.6,1.27,1.1,2.02,1.47.76.39,1.54.64,2.38.79.83.15,1.68.2,2.51.22.39,0,.77.01,1.15.01.46,0,.91,0,1.37,0h17.8c.45,0,.9,0,1.35,0,.38,0,.77,0,1.15-.01.84-.02,1.68-.07,2.5-.22.84-.15,1.62-.4,2.38-.79.75-.38,1.43-.88,2.02-1.47.6-.59,1.09-1.27,1.48-2.02.39-.76.63-1.55.78-2.38.15-.83.21-1.67.23-2.5,0-.39,0-.77,0-1.15.01-.45.01-.9.01-1.37V11.92c0-.46,0-.91-.01-1.37,0-.38,0-.76,0-1.15-.03-.83-.08-1.67-.23-2.5-.14-.84-.39-1.63-.78-2.38-.38-.75-.88-1.43-1.48-2.03-.59-.59-1.28-1.09-2.02-1.47-.77-.39-1.55-.64-2.38-.78-.82-.15-1.66-.2-2.5-.22-.38,0-.77,0-1.15-.02h-1.35ZM13.65,16.82c-.07-.52.13-1.05.38-1.42.28-.4.59-.63.85-.78.26-.15.6-.27.93-.29.04.37-.03.73-.15,1.03-.1.26-.3.63-.67.95-.33.29-.83.54-1.34.5ZM18.06,22.45c-.13.4-.33.89-.68,1.43-.16.26-.52.78-.86,1.07-.2.17-.47.36-.91.36-.35,0-.63-.13-.87-.24-.24-.1-.52-.19-.85-.19-.84,0-1.16.44-1.81.44-.43,0-.82-.26-1.28-.82-.45-.55-.8-1.18-1.05-1.77-.41-.98-.49-1.88-.49-2.32,0-.8.19-1.65.75-2.3.28-.32.62-.59,1.01-.75.27-.11.57-.19.91-.19.21,0,.49.04.87.17.4.14.65.29.91.29.46,0,1.04-.5,1.97-.5.46,0,.89.13,1.25.33.34.19.62.45.83.75-.58.37-.84.8-.98,1.14-.24.54-.26,1.23,0,1.85.24.56.68,1,1.26,1.25ZM22.46,15.22v1.92h1.54v1.32h-1.54v4.46c0,.69.31,1.02.98,1.02.17,0,.44-.02.55-.04v1.31c-.18.05-.55.08-.92.08-1.64,0-2.28-.62-2.28-2.19v-4.64h-1.18v-1.32h1.18v-1.92h1.67ZM29.46,25.23h-1.79l-2.92-8.09h1.77l2.03,6.47h.03l2.03-6.47h1.74l-2.9,8.09Z"/>
    </g>
  </g>
</svg>