<?xml version="1.0" encoding="UTF-8"?><svg id="Layer_1" xmlns="http://www.w3.org/2000/svg" viewBox="0 0 27.5 27.5"><defs><style>.cls-1{fill:#1d1d1f;}</style></defs><path class="cls-1" d="M13.75,0C6.16,0,0,6.16,0,13.75s6.16,13.75,13.75,13.75,13.75-6.16,13.75-13.75S21.34,0,13.75,0h0ZM13.75,25.85c-6.68,0-12.1-5.42-12.1-12.1S7.07,1.65,13.75,1.65s12.1,5.42,12.1,12.1h0c0,6.68-5.42,12.09-12.1,12.1ZM13.75,2.75C7.67,2.75,2.75,7.67,2.75,13.75s4.92,11,11,11,11-4.92,11-11c0-6.08-4.92-11-11-11ZM14.22,9.01c.34-.41.83-.66,1.36-.68.04.53-.13,1.06-.48,1.45-.31.44-.82.7-1.36.68-.05-.53.13-1.06.48-1.45ZM16.88,16.48c-.38.57-.81,1.15-1.44,1.15-.6,0-.81-.39-1.51-.39-.75,0-.98.39-1.55.39-.64,0-1.07-.61-1.47-1.18-.6-.9-.93-1.95-.96-3.03-.03-.58.11-1.16.39-1.67.4-.71,1.13-1.16,1.94-1.2.61-.02,1.13.44,1.5.44.59-.19,1.18-.34,1.79-.44.69,0,1.33.34,1.7.92-.62.39-1,1.07-1.01,1.81.02.81.51,1.54,1.25,1.87-.14.47-.36.92-.64,1.32Z"/></svg>