<?xml version="1.0" encoding="UTF-8"?>
<svg version="1.1" xmlns="http://www.w3.org/2000/svg" width="1024" height="1024">
<path d="M0 0 C138.27 0 276.54 0 419 0 C419 176.25 419 176.25 390 207 C389.39671875 207.67933594 388.7934375 208.35867188 388.171875 209.05859375 C372.95290479 225.50169852 348.97738401 235.73515796 326.94921875 238.09765625 C326.17903412 238.18038788 325.40884949 238.26311951 324.61532593 238.34835815 C314.1416518 239.38181047 303.6411755 239.48491107 293.125 239.625 C291.33218094 239.6525235 291.33218094 239.6525235 289.50314331 239.68060303 C262.03289304 240.09400132 234.55838737 240.10560206 207.08559418 240.12248993 C203.63024191 240.12495174 200.17489398 240.12890679 196.71954346 240.13311768 C171.63033922 240.15930457 146.55013117 240.01924978 121.46484375 239.5546875 C120.36661348 239.53527225 119.26838322 239.51585701 118.13687325 239.49585342 C96.88142879 239.11050315 96.88142879 239.11050315 87.31178284 238.00393677 C84.71966272 237.78525197 84.71966272 237.78525197 82 240 C82 239.34 82 238.68 82 238 C81.01 237.67 80.02 237.34 79 237 C77.65909241 236.34870203 76.32407669 235.68486725 75 235 C74.67 235.66 74.34 236.32 74 237 C73.58878906 236.54206055 73.17757812 236.08412109 72.75390625 235.61230469 C70.85669245 233.86826238 69.33001041 233.12908298 66.9375 232.203125 C66.14545166 231.88762695 65.35340332 231.57212891 64.53735352 231.24707031 C63.70002686 230.91803711 62.8627002 230.58900391 62 230.25 C53.68656543 226.86906201 45.20611781 223.41759859 38.90234375 216.796875 C37.07264839 214.65666632 37.07264839 214.65666632 34 215 C32.99260254 213.33779419 31.99477045 211.66979326 31 210 C29.2633784 208.15003247 27.45998562 206.39637343 25.62109375 204.6484375 C24 203 24 203 22 200 C20.515 199.01 20.515 199.01 19 198 C18.3162955 196.67532254 17.65035814 195.34136367 17 194 C16.2265625 193.2575 16.2265625 193.2575 15.4375 192.5 C13.69457718 190.68129793 13.57111288 189.42722974 13 187 C12.00585407 185.32983484 11.0064275 183.66279327 10 182 C10 181.34 10 180.68 10 180 C9.34 179.67 8.68 179.34 8 179 C7.21875 177.07421875 7.21875 177.07421875 6.5 174.6875 C5.56360643 171.60859722 4.46392933 168.86292631 3 166 C-0.22768488 156.31694535 -0.31362284 145.65169611 -0.4140625 135.53515625 C-0.43351929 134.258647 -0.45297607 132.98213776 -0.47302246 131.66694641 C-0.52496097 128.18994347 -0.56471809 124.71290481 -0.60129547 121.23571014 C-0.62515561 119.04823423 -0.65234515 116.86082414 -0.68060303 114.67340088 C-1.00031137 89.79654653 -1.10208834 64.91851919 -1.12248993 40.03977585 C-1.12500284 37.37198403 -1.12896568 34.70419719 -1.13311768 32.03640747 C-1.13896069 27.83564745 -1.13906119 23.63492527 -1.13444519 19.43416405 C-1.13336461 17.88001724 -1.1339 16.32586839 -1.13612366 14.77172279 C-1.13865878 12.64774488 -1.13491787 10.52387241 -1.12939453 8.39990234 C-1.12859894 7.20601898 -1.12780334 6.01213562 -1.12698364 4.78207397 C-1 2 -1 2 0 0 Z " fill="#000000" transform="translate(120,552)"/>
<path d="M0 0 C3.875 0.875 3.875 0.875 5 2 C6.52442158 2.08798083 8.0529038 2.10693021 9.57983398 2.09765625 C10.55431992 2.09435303 11.52880585 2.0910498 12.53282166 2.08764648 C13.59320145 2.07934814 14.65358124 2.0710498 15.74609375 2.0625 C16.82754166 2.05871338 17.90898956 2.05492676 19.02320862 2.05102539 C23.67184958 2.03459665 28.32040447 2.00648711 32.96899414 1.97949219 C36.35302326 1.96148069 39.73703833 1.94933858 43.12109375 1.9375 C44.17944931 1.92920166 45.23780487 1.92090332 46.32823181 1.91235352 C47.3058699 1.90905029 48.283508 1.90574707 49.29077148 1.90234375 C50.15379379 1.89710693 51.0168161 1.89187012 51.9059906 1.88647461 C54 2 54 2 56 3 C56.33 2.01 56.66 1.02 57 0 C57.99 0.66 58.98 1.32 60 2 C62.77043219 2.29103716 62.77043219 2.29103716 65.94018555 2.22705078 C67.16122482 2.22689972 68.3822641 2.22674866 69.64030457 2.22659302 C70.95912125 2.21627045 72.27793793 2.20594788 73.63671875 2.1953125 C75.00006401 2.19158161 76.36341196 2.188735 77.72676086 2.18673706 C81.31234154 2.17910653 84.89775979 2.15946315 88.48327637 2.1373291 C92.14312544 2.11685811 95.80300079 2.10773267 99.46289062 2.09765625 C106.64200107 2.0762166 113.82097776 2.04208779 121 2 C122.29151889 4.58303779 122.12587773 6.4326473 122.12698364 9.32615662 C122.12980347 10.45842682 122.13262329 11.59069702 122.13552856 12.75727844 C122.13249222 14.63204109 122.13249222 14.63204109 122.12939453 16.54467773 C122.13202301 18.51437531 122.13202301 18.51437531 122.13470459 20.52386475 C122.13928729 24.14896516 122.13748027 27.77403726 122.1343255 31.39913821 C122.13178057 35.2416839 122.13414771 39.08422728 122.13571167 42.92677307 C122.13753787 49.43303859 122.13512647 55.93929283 122.13037109 62.44555664 C122.12561998 69.01913198 122.12547703 75.59268454 122.13037109 82.16625977 C122.14532249 103.08193044 122.121139 123.99701298 122.01091194 144.91243267 C122.00023331 146.95536528 121.99026663 148.99830054 121.98033142 151.04123688 C121.94225288 158.29712666 121.88171846 165.55212353 121.78292465 172.80745125 C121.75638107 174.91056499 121.73583171 177.01376561 121.72217178 179.11700249 C121.61021734 194.75262499 120.52583408 210.72806738 113.3125 224.9375 C112.97436279 225.63077393 112.63622559 226.32404785 112.2878418 227.03833008 C109.02432727 233.4558052 104.83903646 238.67445359 100 244 C99.21625 244.97839844 98.4325 245.95679688 97.625 246.96484375 C89.08116216 257.24724373 77.03843329 263.7062264 65 269 C64.21496094 269.34675781 63.42992187 269.69351562 62.62109375 270.05078125 C49.52653794 275.04772525 34.67055999 275.44543689 20.83276367 275.35644531 C19.20590098 275.35723919 17.5790385 275.35934558 15.95217896 275.36264038 C11.59497927 275.36770624 7.23802204 275.35437904 2.88086104 275.33711338 C-1.71074149 275.32190044 -6.30234316 275.32324732 -10.89396667 275.32244873 C-18.5939845 275.31877533 -26.29391216 275.30390346 -33.99389648 275.28125 C-43.84348329 275.25232929 -53.6929979 275.24201755 -63.54262257 275.2375679 C-72.06245661 275.23357311 -80.58227532 275.22108015 -89.10209823 275.20722103 C-91.81738675 275.20314697 -94.53267474 275.20020895 -97.24796486 275.19742584 C-101.52861105 275.19248981 -105.80921487 275.18221551 -110.08983994 275.16798782 C-111.65018391 275.16351224 -113.21053353 275.16063759 -114.77088356 275.15958023 C-122.93152296 275.15281572 -131.01940912 274.96509646 -139.15110302 274.21308517 C-142.11124152 273.99167962 -145.03273331 273.96551622 -148 274 C-148 273.34 -148 272.68 -148 272 C-148.99257813 271.67128906 -149.98515625 271.34257813 -151.0078125 271.00390625 C-169.64157201 264.58555998 -184.4526687 253.89280878 -196.37890625 238.09375 C-197.83670119 236.21091123 -199.16555823 234.5181587 -201 233 C-201.99 233 -202.98 233 -204 233 C-203.9175 231.845 -203.835 230.69 -203.75 229.5 C-203.72747429 225.26516649 -204.93631822 222.48681714 -207.02734375 218.859375 C-208.60371926 215.84590214 -209 213.39408376 -209 210 C-209.66 209.67 -210.32 209.34 -211 209 C-210.505 207.02 -210.505 207.02 -210 205 C-210.66 204.67 -211.32 204.34 -212 204 C-212.75136055 158.05587252 -213.110452 112.1169186 -213.12338257 66.16647339 C-213.12500129 62.37196598 -213.12856252 58.57746456 -213.13256836 54.78295898 C-213.13841792 48.76222054 -213.13865062 42.7415075 -213.13431931 36.72076797 C-213.13332432 34.48566832 -213.13390605 32.25056734 -213.13615799 30.0154686 C-213.1387078 26.94046244 -213.13490711 23.86552819 -213.12939453 20.79052734 C-213.13142128 19.89549751 -213.13344803 19.00046768 -213.13553619 18.07831573 C-213.11931035 13.2790986 -212.80613022 8.73290812 -212 4 C-207.75021796 2.58340599 -203.58020164 2.58233585 -199.125 2.375 C-198.17044922 2.32996338 -197.21589844 2.28492676 -196.23242188 2.23852539 C-190.22079537 1.99347519 -184.42041537 2.15140333 -178.4296875 2.73828125 C-167.0775912 3.60455739 -155.59479555 3.08376666 -144.23370361 2.63961792 C-124.18499825 1.87552846 -104.14389504 1.84568312 -84.08300781 1.86962891 C-79.14840015 1.87543872 -74.21384556 1.87195754 -69.27923965 1.86605644 C-65.44121899 1.86245674 -61.60321115 1.86358474 -57.76519012 1.86618423 C-55.94229882 1.86684937 -54.11940635 1.86603956 -52.29651642 1.86370468 C-49.77870014 1.8611759 -47.26097361 1.86501676 -44.74316406 1.87060547 C-43.62615112 1.86756912 -43.62615112 1.86756912 -42.48657227 1.86447144 C-39.38197508 1.87729013 -36.96925372 2.01024876 -34 3 C-32.94683594 2.84660156 -31.89367187 2.69320312 -30.80859375 2.53515625 C-26.7448561 1.96414901 -23.14749674 2.11214628 -19.0625 2.4375 C-18.03672852 2.51581055 -18.03672852 2.51581055 -16.99023438 2.59570312 C-15.32628831 2.72369898 -13.6630527 2.86087719 -12 3 C-11.67 2.34 -11.34 1.68 -11 1 C-11 1.66 -11 2.32 -11 3 C-10.39671875 2.91621094 -9.7934375 2.83242188 -9.171875 2.74609375 C-8.37265625 2.64425781 -7.5734375 2.54242187 -6.75 2.4375 C-5.96109375 2.33308594 -5.1721875 2.22867188 -4.359375 2.12109375 C-1.99467126 1.99972651 -0.2488963 2.30366743 2 3 C2 2.34 2 1.68 2 1 C1.01 0.505 1.01 0.505 0 0 Z M-202 229 C-201 231 -201 231 -201 231 Z " fill="#000000" transform="translate(764,542)"/>
<path d="M0 0 C2.15866656 -0.00299834 4.31733259 -0.00640241 6.47599792 -0.01017761 C12.30098555 -0.01895541 18.12595845 -0.02135315 23.95095205 -0.0219934 C27.60377877 -0.02270771 31.25660184 -0.02484924 34.90942764 -0.02749062 C47.69206222 -0.03672512 60.47468642 -0.04082809 73.25732422 -0.04003906 C85.10811962 -0.03943954 96.95886931 -0.04997166 108.80965316 -0.06578273 C119.03531698 -0.07893159 129.260966 -0.08421986 139.48663819 -0.08358365 C145.57100226 -0.08333072 151.65532571 -0.08606722 157.73968124 -0.0967617 C163.47392306 -0.10656668 169.20808645 -0.10643859 174.94233131 -0.09924507 C177.02494359 -0.09821427 179.10756107 -0.10047028 181.19016457 -0.10660553 C192.38110635 -0.13738879 203.5008343 0.16238787 214.66506958 0.97294617 C216.21958543 1.0766747 216.21958543 1.0766747 217.80550563 1.18249875 C223.83020534 1.66960921 228.6743623 2.74144703 234.22314453 5.14526367 C235.52040365 5.67356506 236.81848561 6.19985408 238.11767578 6.72338867 C249.72750801 11.62051005 259.59798638 17.25635937 268.85986328 25.94213867 C271.68048042 28.57160655 274.63579747 31.01290827 277.62939453 33.44213867 C279.58183291 35.52856792 280.20254296 37.4801456 281.22314453 40.14526367 C283.23489804 43.46938807 285.33745596 46.72546364 287.44580078 49.98901367 C289.06170787 52.85858054 289.83096536 54.91129386 290.22314453 58.14526367 C291.21314453 58.14526367 292.20314453 58.14526367 293.22314453 58.14526367 C292.89314453 60.12526367 292.56314453 62.10526367 292.22314453 64.14526367 C293.21314453 64.47526367 294.20314453 64.80526367 295.22314453 65.14526367 C294.56314453 65.14526367 293.90314453 65.14526367 293.22314453 65.14526367 C293.54798828 66.27834961 293.54798828 66.27834961 293.87939453 67.43432617 C299.76394185 90.7000827 296.30955366 114.47135748 284.41064453 135.27026367 C278.2657275 145.05196833 270.88802871 153.70200755 261.22314453 160.14526367 C258.22705078 160.52416992 258.22705078 160.52416992 254.78564453 160.70776367 C251.13629074 160.9111975 247.735636 161.10100945 244.22314453 162.14526367 C243.89314453 161.15526367 243.56314453 160.16526367 243.22314453 159.14526367 C244.21314453 158.15526367 245.20314453 157.16526367 246.22314453 156.14526367 C245.89314453 155.48526367 245.56314453 154.82526367 245.22314453 154.14526367 C245.98498047 153.74436523 246.74681641 153.3434668 247.53173828 152.93041992 C255.19931177 147.84467089 259.18265883 136.17070236 260.98095703 127.48510742 C262.5511289 117.98580128 263.774246 105.47191588 258.22314453 97.14526367 C257.53564453 95.08276367 257.53564453 95.08276367 257.22314453 93.14526367 C257.55314453 92.48526367 257.88314453 91.82526367 258.22314453 91.14526367 C257.56314453 90.81526367 256.90314453 90.48526367 256.22314453 90.14526367 C255.12169768 88.15638166 254.08895858 86.12901007 253.09814453 84.08276367 C252.28990234 82.42567383 252.28990234 82.42567383 251.46533203 80.73510742 C251.05541016 79.88045898 250.64548828 79.02581055 250.22314453 78.14526367 C249.56314453 78.14526367 248.90314453 78.14526367 248.22314453 78.14526367 C248.13677734 77.57549805 248.05041016 77.00573242 247.96142578 76.41870117 C245.73480185 69.5621132 238.25053825 64.85317832 232.16064453 61.70776367 C215.4756951 54.12178541 199.08276222 57.04091934 182.22314453 63.14526367 C182.22314453 64.13526367 182.22314453 65.12526367 182.22314453 66.14526367 C181.23314453 65.81526367 180.24314453 65.48526367 179.22314453 65.14526367 C176.90018651 66.34752283 174.82540976 67.57525614 172.66064453 69.02026367 C172.03730225 69.43010498 171.41395996 69.83994629 170.77172852 70.26220703 C165.11411128 74.06617864 160.05062178 78.32650028 155.22314453 83.14526367 C154.61212891 83.74467773 154.00111328 84.3440918 153.37158203 84.96166992 C150.46184267 88.03749029 148.14721095 91.1907729 146.07470703 94.87573242 C145.69515869 95.54588379 145.31561035 96.21603516 144.92456055 96.90649414 C144.18256841 98.24287526 143.46294254 99.59199989 142.76977539 100.9543457 C140.30036096 105.44913094 138.11285014 107.10605071 133.21020508 108.60009766 C132.5544751 108.78000244 131.89874512 108.95990723 131.22314453 109.14526367 C119.61844467 113.21136055 110.79490574 118.90363768 105.06298828 130.10229492 C103.22932545 134.56278636 103.06026837 138.50156565 103.03564453 143.33276367 C103.02146484 144.58444336 103.00728516 145.83612305 102.99267578 147.12573242 C103.16553876 152.02429165 103.16553876 152.02429165 105.22314453 160.14526367 C95.32314453 160.47526367 85.42314453 160.80526367 75.22314453 161.14526367 C76.22314453 154.14526367 76.22314453 154.14526367 76.76220703 152.11401367 C79.04654392 142.35718494 77.34217297 132.6401502 72.22314453 124.14526367 C67.74919601 118.58162076 63.29902687 114.66152417 56.22314453 113.14526367 C56.55314453 112.48526367 56.88314453 111.82526367 57.22314453 111.14526367 C55.47329099 110.66556244 53.72325562 110.18652443 51.97314453 109.70776367 C50.99861328 109.44092773 50.02408203 109.1740918 49.02001953 108.89916992 C46.34285411 108.11734937 46.34285411 108.11734937 44.02001953 107.82885742 C40.74264104 106.58202865 39.97825953 103.18996867 38.56689453 100.17651367 C37.39388954 97.9647461 37.39388954 97.9647461 35.06689453 97.36401367 C34.45845703 97.29182617 33.85001953 97.21963867 33.22314453 97.14526367 C32.97564453 96.05213867 32.72814453 94.95901367 32.47314453 93.83276367 C31.10422072 89.79443842 30.5494057 89.42612847 27.22314453 87.14526367 C25.89493073 85.32921827 24.67042341 83.47324957 23.46923828 81.57104492 C23.05802734 81.10053711 22.64681641 80.6300293 22.22314453 80.14526367 C21.23314453 80.14526367 20.24314453 80.14526367 19.22314453 80.14526367 C19.03236328 79.58581055 18.84158203 79.02635742 18.64501953 78.44995117 C16.60261977 75.13946804 13.67022158 73.35364421 10.47314453 71.27026367 C9.80863281 70.83262695 9.14412109 70.39499023 8.45947266 69.9440918 C-0.9331701 63.92817964 -12.41084243 57.81096917 -23.77685547 58.14526367 C-24.10685547 57.81526367 -24.43685547 57.48526367 -24.77685547 57.14526367 C-27.02501612 57.04521464 -29.27647454 57.01559483 -31.52685547 57.02026367 C-32.75919922 57.01768555 -33.99154297 57.01510742 -35.26123047 57.01245117 C-46.45969453 57.43550426 -55.84730236 62.33770369 -63.77685547 70.14526367 C-64.48187338 71.45872169 -65.1557433 72.79010985 -65.77685547 74.14526367 C-66.89060547 75.13526367 -66.89060547 75.13526367 -68.02685547 76.14526367 C-77.20175569 85.04951787 -80.81744641 100.21784843 -81.24951172 112.59863281 C-81.41468017 128.3589471 -77.02095621 143.5888268 -65.77685547 155.14526367 C-65.11685547 155.14526367 -64.45685547 155.14526367 -63.77685547 155.14526367 C-63.28185547 157.62026367 -63.28185547 157.62026367 -62.77685547 160.14526367 C-80.68596145 161.17848132 -80.68596145 161.17848132 -85.46435547 157.58276367 C-86.60754794 156.47586303 -87.71336756 155.32894924 -88.77685547 154.14526367 C-89.37369141 153.59225586 -89.97052734 153.03924805 -90.58544922 152.46948242 C-97.05553816 146.41681858 -102.622487 138.97606441 -106.77685547 131.14526367 C-106.77685547 130.48526367 -106.77685547 129.82526367 -106.77685547 129.14526367 C-107.76685547 128.81526367 -108.75685547 128.48526367 -109.77685547 128.14526367 C-109.11685547 128.14526367 -108.45685547 128.14526367 -107.77685547 128.14526367 C-108.03080078 127.62319336 -108.28474609 127.10112305 -108.54638672 126.56323242 C-118.18898978 105.94178542 -118.34188719 82.36867138 -111.02929688 60.95629883 C-102.41684228 37.83643146 -85.96245007 19.99155437 -63.77685547 9.14526367 C-42.86385818 0.37220326 -22.35584765 -0.00624918 0 0 Z M291.22314453 59.14526367 C292.22314453 61.14526367 292.22314453 61.14526367 292.22314453 61.14526367 Z M34.22314453 94.14526367 C35.22314453 96.14526367 35.22314453 96.14526367 35.22314453 96.14526367 Z " fill="#020202" transform="translate(239.77685546875,381.854736328125)"/>
<path d="M0 0 C1 1 1 1 1.11352539 4.13426208 C1.1133755 5.56013961 1.1075971 6.98602236 1.09765625 8.41186523 C1.09546585 9.57838875 1.09546585 9.57838875 1.0932312 10.76847839 C1.08941147 12.46815556 1.08328068 14.16782868 1.07516479 15.86749077 C1.06237988 18.58411829 1.05587634 21.30069669 1.05102539 24.01734924 C1.0376537 30.78952521 1.01388518 37.56165686 0.98962402 44.33380127 C0.94178597 57.88954948 0.92830027 71.44431431 1 85 C1.00422974 86.09020321 1.00422974 86.09020321 1.00854492 87.20243073 C1.02722035 91.52306442 1.09143183 95.84059586 1.1875 100.16015625 C1.19608032 101.65620644 1.19608032 101.65620644 1.20483398 103.18247986 C1.43324474 110.39390893 3.46881413 116.19224892 8.44189453 121.55482483 C18.95043161 130.83074019 32.90382344 129.17125944 46.11547852 129.13037109 C48.22353987 129.12490658 50.33139733 129.13040939 52.43945312 129.13671875 C53.7864588 129.13605957 55.13346435 129.13478176 56.48046875 129.1328125 C57.68598389 129.13168457 58.89149902 129.13055664 60.13354492 129.12939453 C62.94455784 129.19706459 62.94455784 129.19706459 65 128 C66.44676973 127.90538148 67.89779653 127.87205827 69.34765625 127.87060547 C70.25040283 127.86745331 71.15314941 127.86430115 72.08325195 127.86105347 C73.06640381 127.8630777 74.04955566 127.86510193 75.0625 127.8671875 C76.08239014 127.86623077 77.10228027 127.86527405 78.15307617 127.86428833 C80.3253587 127.86360603 82.49764324 127.86546377 84.66992188 127.86962891 C87.93103899 127.87488877 91.19201271 127.86973202 94.453125 127.86328125 C104.80172033 127.86061001 115.10613841 127.96299682 125.43286133 128.68356323 C134.16838702 129.28330589 138.67895701 128.44443197 145.4375 122.75 C149.11247328 119.4143435 150.72879002 116.8069798 152 112 C152.66 112 153.32 112 154 112 C154 108.7 154 105.4 154 102 C153.34 101.67 152.68 101.34 152 101 C152 91.76 152 82.52 152 73 C152.66 72.67 153.32 72.34 154 72 C154.05447047 70.58376784 154.09300508 69.16691809 154.125 67.75 C154.14820313 66.96109375 154.17140625 66.1721875 154.1953125 65.359375 C154.15977394 62.99970872 154.15977394 62.99970872 153.00219727 61.16503906 C151.81597398 58.60245 151.75617753 56.815279 151.76953125 54 C151.77146484 52.55282593 151.77146484 52.55282593 151.7734375 51.07641602 C151.78632812 50.06119873 151.79921875 49.04598145 151.8125 48 C151.82216797 46.45300415 151.82216797 46.45300415 151.83203125 44.87475586 C151.90262873 37.87733199 152.16269264 30.95264151 153 24 C153.33 24 153.66 24 154 24 C154.05383848 21.54137599 154.09359038 19.0839245 154.125 16.625 C154.15013672 15.57699219 154.15013672 15.57699219 154.17578125 14.5078125 C154.19344267 12.67102514 154.10303261 10.83398037 154 9 C153.01 8.01 153.01 8.01 152 7 C152.375 3.375 152.375 3.375 153 0 C163.33333333 0 173.66666667 0 184 0 C184 0.66 184 1.32 184 2 C185.03125 2.04125 186.0625 2.0825 187.125 2.125 C203.01893017 4.203005 217.08544496 15.32841374 226.953125 27.38671875 C242.88884453 48.21871852 246.8705851 72.87763622 243.50390625 98.55078125 C240.17744927 116.64896243 231.10852504 131.73580744 216.375 142.875 C209.3509556 147.29754647 203.11215706 147.3033735 195.02783203 147.31884766 C193.82726669 147.32889328 192.62670135 147.3389389 191.38975525 147.34928894 C188.11128127 147.37481972 184.83290123 147.39171205 181.55435801 147.40471697 C178.12301151 147.42038618 174.69175184 147.44716424 171.26046753 147.4727478 C164.7689533 147.51946868 158.27742261 147.55624506 151.78582656 147.58942068 C144.39278765 147.62768946 136.99983608 147.67708711 129.60687089 147.72740483 C114.40464521 147.8306251 99.2023665 147.91991758 84 148 C84 148.33 84 148.66 84 149 C82.02 149 80.04 149 78 149 C78 148.67 78 148.34 78 148 C66.45 147.67 54.9 147.34 43 147 C43 147.66 43 148.32 43 149 C38.38 149 33.76 149 29 149 C29 148.67 29 148.34 29 148 C28.04137054 148.01554428 27.08274109 148.03108856 26.09506226 148.04710388 C17.00505738 148.18978438 7.91528336 148.29430832 -1.17559242 148.3626852 C-5.84800976 148.39902255 -10.51951417 148.44820862 -15.19140625 148.52807617 C-19.71080705 148.60484219 -24.22933696 148.64613639 -28.74934006 148.6641407 C-30.46279973 148.67694976 -32.17621852 148.70195923 -33.8893013 148.7401104 C-46.80831805 149.01604888 -57.14374795 147.35352489 -67.08535767 138.29563904 C-69.49361865 135.93967138 -71.76110272 133.51601031 -74 131 C-76.14868745 128.6444019 -76.8624012 128.04586627 -80 127 C-80.144375 125.906875 -80.28875 124.81375 -80.4375 123.6875 C-80.88288104 120.06877013 -80.88288104 120.06877013 -82 117 C-82.99 116.67 -83.98 116.34 -85 116 C-85 114.68 -85 113.36 -85 112 C-85.41680247 110.59120766 -85.88040398 109.19589977 -86.375 107.8125 C-92.80060615 87.22619783 -91.51808501 62.74066202 -83 43 C-80.62314397 38.47844038 -77.82920186 34.24972162 -75 30 C-74.52820313 29.13632812 -74.05640625 28.27265625 -73.5703125 27.3828125 C-71.72209612 24.57830506 -69.68312191 23.00532281 -67 21 C-66.23042969 20.31421875 -65.46085938 19.6284375 -64.66796875 18.921875 C-46.27757282 2.81941809 -24.07417013 -2.17954213 0 0 Z M154 44 C154 46.31 154 48.62 154 51 C154.33 51 154.66 51 155 51 C155 48.69 155 46.38 155 44 C154.67 44 154.34 44 154 44 Z M154 52 C154 54.31 154 56.62 154 59 C154.33 59 154.66 59 155 59 C155 56.69 155 54.38 155 52 C154.67 52 154.34 52 154 52 Z M154 76 C155 80 155 80 155 80 Z M154 85 C155 87 155 87 155 87 Z M154 88 C155 91 155 91 155 91 Z M154 92 C155 96 155 96 155 96 Z M154 97 C155 99 155 99 155 99 Z " fill="#020202" transform="translate(640,392)"/>
<path d="M0 0 C2.77628113 0.76117376 4.05427612 0.74251044 6.70703125 -0.2578125 C7.20203125 1.2271875 7.20203125 1.2271875 7.70703125 2.7421875 C9.98326991 4.44443612 9.98326991 4.44443612 12.76953125 6.0546875 C20.25779886 10.68520744 26.50081605 15.12335051 32.1640625 21.9140625 C33.78730874 23.89739858 33.78730874 23.89739858 36.14453125 26.1171875 C37.70703125 27.7421875 37.70703125 27.7421875 37.70703125 29.7421875 C39.19203125 30.2371875 39.19203125 30.2371875 40.70703125 30.7421875 C41.64453125 32.37109375 41.64453125 32.37109375 42.70703125 34.7421875 C44.38602102 37.67692171 46.0771244 40.60359663 47.78515625 43.52148438 C49.71040421 46.85115762 51.38974493 50.126511 52.70703125 53.7421875 C53.36703125 53.7421875 54.02703125 53.7421875 54.70703125 53.7421875 C54.82304688 54.90105469 54.9390625 56.05992187 55.05859375 57.25390625 C55.59207751 61.51709667 56.7548037 65.47939316 58.08203125 69.5546875 C60.02401713 75.8339153 61.44873697 82.05962451 62.45703125 88.5546875 C62.62984619 89.66324097 62.62984619 89.66324097 62.80615234 90.79418945 C64.5051513 102.4674175 64.86004986 114.10220017 64.86816406 125.88037109 C64.87280366 127.46844597 64.87782981 129.05651975 64.88320923 130.64459229 C64.89621155 134.92100729 64.90275223 139.1974067 64.90721989 143.47383833 C64.91016593 146.1494171 64.91427315 148.82499173 64.91872406 151.50056839 C64.9323569 159.88440216 64.94204828 168.26822633 64.94592595 176.6520704 C64.95041897 186.30993794 64.96804189 195.96766483 64.99692655 205.62548959 C65.01853496 213.1111166 65.02862952 220.59670395 65.02996707 228.08236182 C65.03101421 232.54591347 65.0369047 237.00933213 65.05478668 241.4728508 C65.0712564 245.66398074 65.07342833 249.85487738 65.06464767 254.04602814 C65.06387714 255.58190409 65.06822216 257.11779258 65.07810593 258.65363693 C65.09082398 260.75312324 65.08495072 262.85178249 65.07452393 264.95126343 C65.07599049 266.12479055 65.07745705 267.29831768 65.07896805 268.50740623 C64.5100471 273.45538348 62.56449697 276.72249853 59.39453125 280.4921875 C51.43072108 286.55798886 38.7712287 284.88297515 29.30078125 284.32421875 C22.26210453 283.18425915 18.74851264 280.28479056 14.70703125 274.7421875 C13.63787928 271.53473159 13.56907912 269.21158352 13.54881287 265.83869934 C13.53902405 264.60610886 13.52923523 263.37351837 13.51914978 262.10357666 C13.51324562 260.73547402 13.50743517 259.36737097 13.50170898 257.99926758 C13.49213008 256.56041686 13.48211999 255.12156895 13.47171021 253.682724 C13.44465637 249.77395339 13.4236494 245.8651707 13.40370822 241.95635819 C13.38185163 237.87238754 13.35446134 233.78845415 13.32765198 229.70451355 C13.27772067 221.96978658 13.23278346 214.23503893 13.18962961 206.5002715 C13.14026098 197.69502446 13.08534146 188.8898148 13.02995002 180.08460391 C12.91612326 161.97049981 12.80928572 143.85636044 12.70703125 125.7421875 C11.05703125 125.4121875 9.40703125 125.0821875 7.70703125 124.7421875 C7.70703125 125.4021875 7.70703125 126.0621875 7.70703125 126.7421875 C1.83268201 132.40406028 -4.7907462 136.61329847 -12.29296875 139.7421875 C-13.03675781 140.061875 -13.78054688 140.3815625 -14.546875 140.7109375 C-25.04570618 144.54807377 -37.57955581 143.58364121 -48.2890625 141.08203125 C-50.35741029 140.52837951 -50.35741029 140.52837951 -52.29296875 141.7421875 C-52.29296875 140.4221875 -52.29296875 139.1021875 -52.29296875 137.7421875 C-53.17984375 137.4534375 -54.06671875 137.1646875 -54.98046875 136.8671875 C-56.62015625 136.3103125 -56.62015625 136.3103125 -58.29296875 135.7421875 C-59.56140625 135.34 -59.56140625 135.34 -60.85546875 134.9296875 C-63.33305425 133.72265867 -64.92361784 132.34967717 -66.78515625 130.3359375 C-67.931787 129.12395474 -69.1358923 127.96606167 -70.36328125 126.8359375 C-75.78791654 121.7606855 -79.41395699 116.61946509 -82.8828125 110.05078125 C-83.34816406 109.28894531 -83.81351563 108.52710938 -84.29296875 107.7421875 C-84.95296875 107.7421875 -85.61296875 107.7421875 -86.29296875 107.7421875 C-89.8950572 76.86714361 -92.22090852 46.29686162 -72.48828125 20.37109375 C-61.26571265 6.9366081 -45.20581338 -2.50238572 -27.6328125 -4.19140625 C-17.89528798 -4.46776337 -9.15803239 -3.3406659 0 0 Z M-51.10546875 71.3671875 C-52.96708196 75.09041392 -52.96839295 78.66785442 -52.29296875 82.7421875 C-50.49903207 85.61248619 -49.31033599 87.23350388 -46.29296875 88.7421875 C-41.69420191 89.29331673 -38.31508988 89.35971901 -34.29296875 86.9296875 C-31.67455619 84.06579876 -31.32823871 82.21833198 -31.04296875 78.3671875 C-31.31370852 74.44146085 -31.84680639 72.77880284 -34.29296875 69.7421875 C-36.84862593 67.79181754 -38.61345531 66.84411452 -41.79296875 66.3671875 C-45.72714506 66.95731395 -48.18695385 68.75058793 -51.10546875 71.3671875 Z " fill="#010101" transform="translate(641.29296875,226.2578125)"/>
<path d="M0 0 C9.69787805 7.96134341 17.64931701 18.6323556 19.3089447 31.37141418 C19.45426197 33.86246954 19.51911788 36.34081844 19.546875 38.8359375 C19.56719788 39.75476715 19.58752075 40.6735968 19.60845947 41.62026978 C19.64844987 43.55808146 19.68169102 45.49604311 19.70849609 47.43408203 C19.74940589 50.33290224 19.81226094 53.23057592 19.87890625 56.12890625 C20.06388335 65.26898859 20.05948708 74.37889377 19.6171875 83.51171875 C19.5822821 84.27668671 19.54737671 85.04165466 19.51141357 85.82980347 C18.75483782 99.00938258 12.93866123 111.60776252 3.4375 120.8125 C-4.79475161 127.74425787 -14.92999516 133.16819358 -25.86328125 133.09765625 C-26.74951172 133.09443359 -27.63574219 133.09121094 -28.54882812 133.08789062 C-29.46083984 133.07951172 -30.37285156 133.07113281 -31.3125 133.0625 C-32.24384766 133.05798828 -33.17519531 133.05347656 -34.13476562 133.04882812 C-36.42324373 133.03709234 -38.71158808 133.02067363 -41 133 C-41 132.34 -41 131.68 -41 131 C-42.10408203 130.814375 -42.10408203 130.814375 -43.23046875 130.625 C-52.67708659 128.49318215 -59.25293565 121.77364563 -64.38671875 113.86328125 C-65.30776262 112.27003693 -66.16306802 110.6389918 -67 109 C-68.65 109 -70.3 109 -72 109 C-71.99723462 109.85937448 -71.99446924 110.71874895 -71.99162006 111.60416508 C-71.92535199 132.51967337 -71.87571538 153.43516354 -71.84456348 174.35075474 C-71.82909804 184.46540155 -71.80801465 194.57997826 -71.77368164 204.69458008 C-71.74376945 213.51100189 -71.72442265 222.32737292 -71.71773452 231.14384407 C-71.71382535 235.81161817 -71.70464492 240.47924703 -71.68280983 245.14697456 C-71.66241596 249.54230494 -71.65617207 253.93743052 -71.66067696 258.33280373 C-71.65985305 259.94404463 -71.65390466 261.55529254 -71.64238358 263.16649246 C-71.62739366 265.37134058 -71.63106949 267.57542175 -71.63923645 269.7802887 C-71.63647107 271.01272592 -71.63370569 272.24516314 -71.63085651 273.51494694 C-72.32561058 280.0740625 -74.87420935 284.7285078 -80 289 C-83.98960374 290.98108665 -87.40458328 291.29703744 -91.83203125 291.4140625 C-93.12431641 291.45273437 -94.41660156 291.49140625 -95.74804688 291.53125 C-97.10285995 291.56270014 -98.45767775 291.59394761 -99.8125 291.625 C-101.18687272 291.6632175 -102.56122244 291.7022714 -103.93554688 291.7421875 C-107.29022989 291.83635404 -110.64490893 291.921982 -114 292 C-114 291.34 -114 290.68 -114 290 C-114.886875 289.814375 -115.77375 289.62875 -116.6875 289.4375 C-121.14219185 287.50433184 -122.95271977 285.34718202 -125 281 C-126.63077924 272.37495082 -126.14872021 263.28898516 -126.14526367 254.54882812 C-126.14826238 253.02140217 -126.15166652 251.49397697 -126.15544128 249.96655273 C-126.16421604 245.84622098 -126.16661671 241.72591004 -126.16725707 237.60556984 C-126.16797162 235.0208528 -126.17011363 232.43614092 -126.17275429 229.85142517 C-126.18198821 220.80394154 -126.18609189 211.75647256 -126.18530273 202.70898438 C-126.18470342 194.32544441 -126.19523149 185.94196909 -126.2110464 177.55844545 C-126.22420332 170.32146549 -126.2294832 163.08450643 -126.22884732 155.84751463 C-126.22859459 151.54285624 -126.23131916 147.2382553 -126.24202538 142.93360901 C-126.35803806 92.73929469 -118.52555253 48.28650154 -82 11 C-80.7934375 9.73929688 -80.7934375 9.73929688 -79.5625 8.453125 C-58.00627839 -12.71816408 -25.36180896 -16.74005257 0 0 Z M-43.67382812 40.06445312 C-46.83753547 44.05694023 -46.69379012 46.89164128 -46.59375 51.84375 C-46.59379028 52.69046265 -46.59383057 53.53717529 -46.59387207 54.4095459 C-46.58852473 56.19481859 -46.57097543 57.9800913 -46.54199219 59.76513672 C-46.50013366 62.49129495 -46.50092635 65.21498074 -46.5078125 67.94140625 C-46.49731911 69.67970459 -46.4843802 71.41799025 -46.46875 73.15625 C-46.46854858 73.96783569 -46.46834717 74.77942139 -46.46813965 75.61560059 C-46.37234286 80.21699939 -45.96606754 83.26140829 -43 87 C-38.2505195 90.2794032 -33.60947587 90.90475417 -28 90 C-23.49558861 87.7477943 -21.178051 85.50088574 -19 81 C-18.60122147 77.58854992 -18.60122147 77.58854992 -18.75 74 C-18.76546875 72.80375 -18.7809375 71.6075 -18.796875 70.375 C-18.97215114 67.46271948 -19.34224824 64.8337726 -20 62 C-20.5 59.5 -20.5 59.5 -21 57 C-20.34 57 -19.68 57 -19 57 C-17.98459888 52.89776415 -17.98459888 52.89776415 -19 49 C-19.04125 47.9275 -19.0825 46.855 -19.125 45.75 C-20.16191037 41.30609842 -21.49662224 39.86456103 -25.0390625 37.16796875 C-31.90723461 33.07716504 -37.77768749 35.51206404 -43.67382812 40.06445312 Z M-20 58 C-19 61 -19 61 -19 61 Z M-20 62 C-19 65 -19 65 -19 65 Z " fill="#010101" transform="translate(853,211)"/>
<path d="M0 0 C337.92 0 675.84 0 1024 0 C1024 337.92 1024 675.84 1024 1024 C686.08 1024 348.16 1024 0 1024 C0 686.08 0 348.16 0 0 Z M1 2 C0.90144518 4.2218274 0.87552919 6.44686825 0.8758015 8.67088038 C0.87452341 9.38112923 0.87324532 10.09137808 0.8719285 10.82314962 C0.86883001 13.23824936 0.87295051 15.65328551 0.87695217 18.06838322 C0.87621354 19.81142979 0.87503604 21.55447623 0.87345598 23.29752224 C0.87036675 28.13102842 0.87357826 32.96451381 0.87773425 37.79801845 C0.88114562 43.02786253 0.87879865 48.25770434 0.87715149 53.48754883 C0.87506613 62.67775748 0.87673368 71.86795967 0.88078487 81.05816758 C0.88686726 94.90140648 0.88715642 108.74464144 0.88631957 122.58788144 C0.88507517 145.78262364 0.88837169 168.97736258 0.89442444 192.17210388 C0.90259124 223.53461788 0.90452642 254.89712755 0.90539551 286.25964355 C0.91065292 361.69392961 0.92461392 437.12821486 0.9375 512.5625 C0.958125 681.006875 0.97875 849.45125 1 1023 C338.26 1023 675.52 1023 1023 1023 C1023 686.07 1023 349.14 1023 2 C1019.76841854 1.19210463 1017.59839445 0.87542506 1014.35917473 0.87695217 C1012.9592037 0.8739656 1012.9592037 0.8739656 1011.53095043 0.87091869 C1010.50897379 0.87383153 1009.48699714 0.87674437 1008.43405151 0.87974548 C1006.80170427 0.87846385 1006.80170427 0.87846385 1005.13638031 0.87715632 C1001.47745963 0.87550474 997.81858445 0.88101771 994.15966797 0.88647461 C991.54166668 0.88675658 988.92366531 0.88659856 986.30566406 0.8860321 C980.66246949 0.88550757 975.01928648 0.88864713 969.37609482 0.89426994 C961.21479716 0.90239631 953.05350509 0.90500136 944.89220382 0.90625793 C931.64834756 0.90844704 918.40449745 0.91510291 905.16064453 0.92456055 C892.29996776 0.93373499 879.43929266 0.94081601 866.57861328 0.94506836 C865.3900746 0.94546244 865.3900746 0.94546244 864.17752503 0.94586449 C860.20222688 0.9471696 856.22692872 0.94843333 852.25163054 0.94967639 C821.56827072 0.95931995 790.88491736 0.97494727 760.20156276 0.9953379 C759.27346424 0.9959546 758.34536571 0.9965713 757.38914299 0.99720669 C756.18146729 0.9980198 756.18146729 0.9980198 754.94939411 0.99884933 C751.94964348 1.00061999 748.9498947 0.99956785 745.95014375 0.99884933 C744.33334199 0.99846499 744.33334199 0.99846499 742.68387756 0.99807289 C741.4877627 0.99778704 740.29164784 0.9975012 739.05928707 0.99720669 C736.42047022 0.99658251 733.78165336 0.99595926 731.14283651 0.9953379 C730.43835854 0.995172 729.73388058 0.99500609 729.00805479 0.99483515 C664.88322373 0.97976144 600.75839251 0.96602185 536.63356018 0.95765686 C535.05015051 0.95744977 535.05015051 0.95744977 533.43475277 0.95723851 C510.49953856 0.95424633 487.56432433 0.9514762 464.62911006 0.94893467 C453.38498288 0.9476873 442.14085569 0.94639075 430.89672852 0.94506836 C429.77778787 0.9449376 428.65884722 0.94480684 427.50599929 0.94467212 C391.19849906 0.94040618 354.89100039 0.93289125 318.58350111 0.92370278 C281.28446477 0.91428047 243.98542929 0.90811698 206.68639178 0.90608501 C201.42470229 0.90579683 196.1630128 0.9054712 190.90132332 0.90512276 C189.86570403 0.90505533 188.83008475 0.90498791 187.76308306 0.90491844 C171.05800719 0.90373437 154.35293398 0.89909002 137.64785919 0.89316797 C120.87633937 0.88729557 104.10482218 0.88502828 87.33330136 0.88649862 C77.35546131 0.88726224 67.37763088 0.88520447 57.39979256 0.87920246 C50.74763981 0.87547245 44.0954934 0.87532221 37.44334022 0.87816819 C33.64478325 0.8796883 29.84624456 0.87957129 26.04768949 0.87511682 C21.97006974 0.87037105 17.89249257 0.87323328 13.81487179 0.87695217 C12.01718775 0.87301165 12.01718775 0.87301165 10.18318686 0.86899152 C9.10782253 0.87123882 8.03245821 0.87348611 6.92450708 0.8758015 C5.52345842 0.87556753 5.52345842 0.87556753 4.09410575 0.87532884 C2.01194404 0.76677787 2.01194404 0.76677787 1 2 Z " fill="#FDFDFD" transform="translate(0,0)"/>
<path d="M0 0 C4.06290973 1.84607495 6.41804631 4.15522851 8.9375 7.8125 C10.6505981 12.95179431 10.68284465 16.99163338 8.9375 22.125 C4.10087324 29.30193003 -3.25115372 33.05540141 -10.75 37 C-11.67554688 37.495 -12.60109375 37.99 -13.5546875 38.5 C-15.42138643 39.49834595 -17.29093991 40.49137311 -19.16333008 41.47900391 C-21.11180468 42.52375791 -23.04604899 43.59535721 -24.9675293 44.68896484 C-26.4047937 45.50421631 -26.4047937 45.50421631 -27.87109375 46.3359375 C-28.72888428 46.8314209 -29.5866748 47.3269043 -30.47045898 47.83740234 C-34.64730762 49.757116 -38.53166999 49.9109425 -43 49 C-47.86468118 46.6577461 -50.483962 43.75251622 -53 39 C-54.35120857 34.13564914 -54.16642927 30.47118789 -52.17578125 25.90234375 C-48.11615047 19.33410392 -39.75391837 16.12150966 -33.10449219 12.71484375 C-30.40511371 11.32856447 -28.16058601 10.16058601 -26 8 C-8.28264508 -2.30752658 -8.28264508 -2.30752658 0 0 Z " fill="#040404" transform="translate(467,459)"/>
<path d="M0 0 C0 0.66 0 1.32 0 2 C0.69891357 2.26264648 1.39782715 2.52529297 2.11791992 2.79589844 C7.1024326 4.87837336 11.75666477 7.60908805 16.47338867 10.22998047 C18.29318959 11.23928994 20.11804742 12.2389815 21.94335938 13.23828125 C38.92998049 22.60824855 38.92998049 22.60824855 43 29 C43.57414448 34.83713554 42.94901654 38.79007078 40 44 C36.36782304 47.74840662 33.2905054 49.85661051 28.0625 50.4375 C22.63280447 50.4375 18.96833462 48.0707584 14.48046875 45.21484375 C12.10502834 43.76595191 12.10502834 43.76595191 9.67578125 44.31640625 C9.12277344 44.54199219 8.56976563 44.76757812 8 45 C8.33 44.34 8.66 43.68 9 43 C7.57485302 41.57485302 5.9264338 40.89741757 4.125 40 C3.42632812 39.649375 2.72765625 39.29875 2.0078125 38.9375 C-0.12718825 37.89380631 -0.12718825 37.89380631 -3 37 C-3.45375 36.505 -3.9075 36.01 -4.375 35.5 C-6.46918881 33.56690264 -8.22150692 33.37547204 -11 33 C-11 32.34 -11 31.68 -11 31 C-14.22114157 28.68407978 -14.22114157 28.68407978 -18 28 C-20.02047889 20.00157531 -21.36428568 12.98973208 -17 5.625 C-12.19806979 1.42331107 -6.44605324 -0.6238116 0 0 Z " fill="#040404" transform="translate(203,458)"/>
<path d="M0 0 C1.40823308 2.18763848 2.52970591 4.2206501 3.63671875 6.5546875 C3.96162796 7.21203888 4.28653717 7.86939026 4.62129211 8.54666138 C5.65663661 10.64989827 6.67192346 12.76215871 7.6875 14.875 C8.38221837 16.29097618 9.078168 17.70634898 9.77539062 19.12109375 C14.76752208 29.30256625 14.76752208 29.30256625 16 33 C16.99 33.495 16.99 33.495 18 34 C18.66 34.99 19.32 35.98 20 37 C17.03 37.495 17.03 37.495 14 38 C14 38.66 14 39.32 14 40 C13.01 39.505 13.01 39.505 12 39 C9.8067581 38.94076309 7.61185925 38.93908464 5.41796875 38.96484375 C4.08007045 38.96112975 2.7421768 38.95519984 1.40429688 38.94726562 C-0.70345018 38.9367183 -2.80781919 38.93741468 -4.9152832 38.97583008 C-16.73584851 39.16879057 -16.73584851 39.16879057 -19.99365234 36.15673828 C-21.32421875 33.94140625 -21.32421875 33.94140625 -22.24487305 31.71704102 C-22.49406494 31.15041748 -22.74325684 30.58379395 -23 30 C-23.66 30 -24.32 30 -25 30 C-24.67 28.35 -24.34 26.7 -24 25 C-24.99 25 -25.98 25 -27 25 C-27.625 22.1875 -27.625 22.1875 -28 19 C-27.01 17.515 -27.01 17.515 -26 16 C-25.59523438 15.32324219 -25.19046875 14.64648438 -24.7734375 13.94921875 C-20.51614345 7.0638186 -15.74107019 1.82020013 -7.75 -0.4375 C-2.56373112 -1.21544033 -2.56373112 -1.21544033 0 0 Z " fill="#060606" transform="translate(380,504)"/>
<path d="M0 0 C0 0.66 0 1.32 0 2 C0.845625 2.185625 1.69125 2.37125 2.5625 2.5625 C7.86292013 4.77903933 11.52660118 8.50162809 14.4375 13.4375 C16.75957527 24.0158429 13.50002005 26.9999599 8 38 C-4.21 38.33 -16.42 38.66 -29 39 C-28.22355492 35.11777459 -27.73873341 33.1258312 -25.9609375 29.84765625 C-25.54851807 29.07736084 -25.13609863 28.30706543 -24.71118164 27.51342773 C-24.04977173 26.30021851 -24.04977173 26.30021851 -23.375 25.0625 C-22.46340947 23.3679583 -21.55326472 21.67263807 -20.64453125 19.9765625 C-19.97091553 18.72020996 -19.97091553 18.72020996 -19.28369141 17.43847656 C-16.88643351 12.88468959 -14.68008535 8.23791927 -12.47265625 3.58984375 C-9.16875 -2.22047415 -5.73723936 -0.94053104 0 0 Z " fill="#050505" transform="translate(290,504)"/>
<path d="M0 0 C3.875 0.875 3.875 0.875 5 2 C6.52442158 2.08798083 8.0529038 2.10693021 9.57983398 2.09765625 C10.55431992 2.09435303 11.52880585 2.0910498 12.53282166 2.08764648 C13.59320145 2.07934814 14.65358124 2.0710498 15.74609375 2.0625 C16.82754166 2.05871338 17.90898956 2.05492676 19.02320862 2.05102539 C23.67184958 2.03459665 28.32040447 2.00648711 32.96899414 1.97949219 C36.35302326 1.96148069 39.73703833 1.94933858 43.12109375 1.9375 C44.17944931 1.92920166 45.23780487 1.92090332 46.32823181 1.91235352 C47.79468895 1.90739868 47.79468895 1.90739868 49.29077148 1.90234375 C50.58530495 1.89448853 50.58530495 1.89448853 51.9059906 1.88647461 C54 2 54 2 56 3 C56.33 2.01 56.66 1.02 57 0 C57.99 0.66 58.98 1.32 60 2 C62.77043219 2.29103716 62.77043219 2.29103716 65.94018555 2.22705078 C67.16122482 2.22689972 68.3822641 2.22674866 69.64030457 2.22659302 C71.61852959 2.21110916 71.61852959 2.21110916 73.63671875 2.1953125 C75.00006401 2.19158161 76.36341196 2.188735 77.72676086 2.18673706 C81.31234154 2.17910653 84.89775979 2.15946315 88.48327637 2.1373291 C92.14312544 2.11685811 95.80300079 2.10773267 99.46289062 2.09765625 C106.64200107 2.0762166 113.82097776 2.04208779 121 2 C121 2.66 121 3.32 121 4 C-20.82981231 5.10334804 -20.82981231 5.10334804 -73.91242981 5.12338257 C-76.63665146 5.12497036 -79.36086405 5.12849589 -82.08508301 5.13256836 C-106.0721244 5.16471452 -130.02470871 4.75173828 -154 4 C-154 3.67 -154 3.34 -154 3 C-130.69142569 2.01973286 -107.4096117 1.84176788 -84.08300781 1.86962891 C-79.14840015 1.87543872 -74.21384556 1.87195754 -69.27923965 1.86605644 C-65.44121899 1.86245674 -61.60321115 1.86358474 -57.76519012 1.86618423 C-55.94229882 1.86684937 -54.11940635 1.86603956 -52.29651642 1.86370468 C-49.77870014 1.8611759 -47.26097361 1.86501676 -44.74316406 1.87060547 C-43.62615112 1.86756912 -43.62615112 1.86756912 -42.48657227 1.86447144 C-39.38197508 1.87729013 -36.96925372 2.01024876 -34 3 C-32.94683594 2.84660156 -31.89367187 2.69320312 -30.80859375 2.53515625 C-26.7448561 1.96414901 -23.14749674 2.11214628 -19.0625 2.4375 C-18.03672852 2.51581055 -18.03672852 2.51581055 -16.99023438 2.59570312 C-15.32628831 2.72369898 -13.6630527 2.86087719 -12 3 C-11.67 2.34 -11.34 1.68 -11 1 C-11 1.66 -11 2.32 -11 3 C-10.39671875 2.91621094 -9.7934375 2.83242188 -9.171875 2.74609375 C-8.37265625 2.64425781 -7.5734375 2.54242187 -6.75 2.4375 C-5.96109375 2.33308594 -5.1721875 2.22867188 -4.359375 2.12109375 C-1.99467126 1.99972651 -0.2488963 2.30366743 2 3 C2 2.34 2 1.68 2 1 C1.01 0.505 1.01 0.505 0 0 Z " fill="#343433" transform="translate(764,542)"/>
<path d="M0 0 C7.63331681 0.50029683 15.28760194 0.33188562 22.93359375 0.2578125 C6.52492395 8.4621474 -13.72095571 2.2578125 -32.06640625 2.2578125 C-32.06640625 66.2778125 -32.06640625 130.2978125 -32.06640625 196.2578125 C-32.39640625 196.2578125 -32.72640625 196.2578125 -33.06640625 196.2578125 C-33.85305829 152.08894465 -34.17739497 107.92566839 -34.18978882 63.74975586 C-34.19140767 59.94197331 -34.19496944 56.13419674 -34.19897461 52.32641602 C-34.20482898 46.27619954 -34.20505308 40.22600834 -34.20072556 34.17579079 C-34.19973018 31.92566758 -34.20031319 29.67554306 -34.20256424 27.42542076 C-34.20511474 24.32615016 -34.20131163 21.22695088 -34.19580078 18.12768555 C-34.19782753 17.22481308 -34.19985428 16.32194061 -34.20194244 15.39170837 C-34.18579292 10.57364714 -33.87705718 6.00908997 -33.06640625 1.2578125 C-29.18260833 -0.03678681 -25.37258253 -0.15477028 -21.31640625 -0.3671875 C-20.46240234 -0.41222412 -19.60839844 -0.45726074 -18.72851562 -0.50366211 C-12.42520568 -0.78669909 -6.28926621 -0.53730861 0 0 Z " fill="#232424" transform="translate(585.06640625,544.7421875)"/>
<path d="M0 0 C0.99 0.33 1.98 0.66 3 1 C3 35.98 3 70.96 3 107 C2.67 107 2.34 107 2 107 C1.87625 106.195625 1.7525 105.39125 1.625 104.5625 C1.41875 103.716875 1.2125 102.87125 1 102 C0.34 101.67 -0.32 101.34 -1 101 C-1 91.76 -1 82.52 -1 73 C-0.01 72.505 -0.01 72.505 1 72 C1.05447047 70.58376784 1.09300508 69.16691809 1.125 67.75 C1.14820313 66.96109375 1.17140625 66.1721875 1.1953125 65.359375 C1.15977394 62.99970872 1.15977394 62.99970872 0.00219727 61.16503906 C-1.18402602 58.60245 -1.24382247 56.815279 -1.23046875 54 C-1.22917969 53.03521729 -1.22789062 52.07043457 -1.2265625 51.07641602 C-1.20722656 49.55359009 -1.20722656 49.55359009 -1.1875 48 C-1.18105469 46.96866943 -1.17460938 45.93733887 -1.16796875 44.87475586 C-1.09737127 37.87733199 -0.83730736 30.95264151 0 24 C0.33 24 0.66 24 1 24 C1.05383848 21.54137599 1.09359038 19.0839245 1.125 16.625 C1.14175781 15.92632812 1.15851562 15.22765625 1.17578125 14.5078125 C1.19344267 12.67102514 1.10303261 10.83398037 1 9 C0.34 8.34 -0.32 7.68 -1 7 C-0.625 3.375 -0.625 3.375 0 0 Z M1 44 C1 46.31 1 48.62 1 51 C1.33 51 1.66 51 2 51 C2 48.69 2 46.38 2 44 C1.67 44 1.34 44 1 44 Z M1 52 C1 54.31 1 56.62 1 59 C1.33 59 1.66 59 2 59 C2 56.69 2 54.38 2 52 C1.67 52 1.34 52 1 52 Z M1 76 C2 80 2 80 2 80 Z M1 85 C2 87 2 87 2 87 Z M1 88 C2 91 2 91 2 91 Z M1 92 C2 96 2 96 2 96 Z M1 97 C2 99 2 99 2 99 Z " fill="#404140" transform="translate(793,392)"/>
<path d="M0 0 C1.96458792 3.29264352 2.24657267 5.76157829 2.23046875 9.5703125 C2.22853516 10.63121094 2.22660156 11.69210937 2.22460938 12.78515625 C2.21236328 13.88730469 2.20011719 14.98945313 2.1875 16.125 C2.18685547 17.23488281 2.18621094 18.34476562 2.18554688 19.48828125 C2.14043257 27.71913485 2.14043257 27.71913485 1 30 C0.34 29.67 -0.32 29.34 -1 29 C-1.02465881 25.03069011 -1.04284023 21.06140966 -1.05493164 17.09204102 C-1.05997057 15.74079614 -1.06680177 14.38955674 -1.07543945 13.03833008 C-1.08752419 11.09979566 -1.09269828 9.161222 -1.09765625 7.22265625 C-1.10289307 6.05484619 -1.10812988 4.88703613 -1.11352539 3.68383789 C-1 1 -1 1 0 0 Z " fill="#222221" transform="translate(793,464)"/>
<path d="M0 0 C0.33 0 0.66 0 1 0 C1.16906149 4.49991334 1.33481932 8.99994266 1.5 13.5 C1.54769531 14.7684375 1.59539063 16.036875 1.64453125 17.34375 C1.77402469 20.89556994 1.88978037 24.4475364 2 28 C2.03351562 28.85335938 2.06703125 29.70671875 2.1015625 30.5859375 C2.19766509 34.33393865 2.14541814 35.78187278 0 39 C-0.75028564 35.65053714 -1.12808899 32.55137695 -1.1328125 29.12109375 C-1.13474609 28.20473145 -1.13667969 27.28836914 -1.13867188 26.34423828 C-1.13416016 25.38501465 -1.12964844 24.42579102 -1.125 23.4375 C-1.12306641 22.45765137 -1.12113281 21.47780273 -1.11914062 20.46826172 C-1.07819224 13.59916965 -0.8065354 6.82674609 0 0 Z " fill="#232323" transform="translate(793,416)"/>
<path d="M0 0 C0.33 0 0.66 0 1 0 C1 12.21 1 24.42 1 37 C0.67 37 0.34 37 0 37 C0 24.79 0 12.58 0 0 Z " fill="#1E1E1E" transform="translate(540,611)"/>
<path d="M0 0 C0.66 0.33 1.32 0.66 2 1 C-2.62 5.62 -7.24 10.24 -12 15 C-12.66 14.67 -13.32 14.34 -14 14 C-9.61932717 8.89662734 -5.32423478 4.12628195 0 0 Z " fill="#222221" transform="translate(581,235)"/>
<path d="M0 0 C0.66 0.33 1.32 0.66 2 1 C-2.62 5.62 -7.24 10.24 -12 15 C-12.66 14.67 -13.32 14.34 -14 14 C-9.61932717 8.89662734 -5.32423478 4.12628195 0 0 Z " fill="#202020" transform="translate(158,402)"/>
<path d="M0 0 C0.33 0.66 0.66 1.32 1 2 C6.28 2 11.56 2 17 2 C17 2.33 17 2.66 17 3 C16.10796875 3.06058594 15.2159375 3.12117187 14.296875 3.18359375 C12.54117187 3.30927734 12.54117187 3.30927734 10.75 3.4375 C9.00976562 3.55931641 9.00976562 3.55931641 7.234375 3.68359375 C4.69022624 3.93247787 2.44046752 4.28114942 0 5 C-0.33 4.01 -0.66 3.02 -1 2 C-0.67 1.34 -0.34 0.68 0 0 Z " fill="#3B3B3A" transform="translate(484,539)"/>
<path d="M0 0 C0.33 0 0.66 0 1 0 C1 7.59 1 15.18 1 23 C0.67 23 0.34 23 0 23 C0 15.41 0 7.82 0 0 Z " fill="#201F20" transform="translate(540,587)"/>
<path d="M0 0 C0.33 0 0.66 0 1 0 C1 6.27 1 12.54 1 19 C0.67 19 0.34 19 0 19 C0 12.73 0 6.46 0 0 Z " fill="#242425" transform="translate(540,567)"/>
<path d="M0 0 C3.63 0 7.26 0 11 0 C11 0.33 11 0.66 11 1 C7.37 1 3.74 1 0 1 C0 0.67 0 0.34 0 0 Z " fill="#282727" transform="translate(751,503)"/>
<path d="M0 0 C0.33 0 0.66 0 1 0 C1 2.97 1 5.94 1 9 C0.67 9 0.34 9 0 9 C0 6.03 0 3.06 0 0 Z " fill="#1E1E1E" transform="translate(540,649)"/>
<path d="M0 0 C1.98 0.99 1.98 0.99 4 2 C2.68 2.33 1.36 2.66 0 3 C0 2.01 0 1.02 0 0 Z " fill="#535252" transform="translate(176,781)"/>
<path d="M0 0 C0.33 0 0.66 0 1 0 C1 2.64 1 5.28 1 8 C0.67 8 0.34 8 0 8 C0 5.36 0 2.72 0 0 Z " fill="#252525" transform="translate(159,488)"/>
<path d="M0 0 C0.33 0 0.66 0 1 0 C1 2.31 1 4.62 1 7 C0.67 7 0.34 7 0 7 C0 4.69 0 2.38 0 0 Z " fill="#212020" transform="translate(540,681)"/>
<path d="M0 0 C2.31 0 4.62 0 7 0 C7 0.33 7 0.66 7 1 C4.69 1 2.38 1 0 1 C0 0.67 0 0.34 0 0 Z " fill="#2A2928" transform="translate(822,540)"/>
<path d="M0 0 C2.31 0 4.62 0 7 0 C7 0.33 7 0.66 7 1 C4.69 1 2.38 1 0 1 C0 0.67 0 0.34 0 0 Z " fill="#292929" transform="translate(790,540)"/>
<path d="M0 0 C2.31 0 4.62 0 7 0 C7 0.33 7 0.66 7 1 C4.69 1 2.38 1 0 1 C0 0.67 0 0.34 0 0 Z " fill="#292929" transform="translate(764,540)"/>
<path d="M0 0 C2.31 0 4.62 0 7 0 C7 0.33 7 0.66 7 1 C4.69 1 2.38 1 0 1 C0 0.67 0 0.34 0 0 Z " fill="#2A2929" transform="translate(702,540)"/>
<path d="M0 0 C2.31 0 4.62 0 7 0 C7 0.33 7 0.66 7 1 C4.69 1 2.38 1 0 1 C0 0.67 0 0.34 0 0 Z " fill="#292928" transform="translate(598,540)"/>
<path d="M0 0 C1.65 0 3.3 0 5 0 C4.01 0.33 3.02 0.66 2 1 C1.67 1.66 1.34 2.32 1 3 C0.67 2.01 0.34 1.02 0 0 Z " fill="#262627" transform="translate(440,464)"/>
<path d="M0 0 C0.66 1.32 1.32 2.64 2 4 C1.01 3.67 0.02 3.34 -1 3 C-0.67 2.01 -0.34 1.02 0 0 Z " fill="#252524" transform="translate(786,322)"/>
<path d="M0 0 C1.98 0 3.96 0 6 0 C6 0.33 6 0.66 6 1 C4.02 1 2.04 1 0 1 C0 0.67 0 0.34 0 0 Z " fill="#282928" transform="translate(813,540)"/>
<path d="M0 0 C1.98 0 3.96 0 6 0 C6 0.33 6 0.66 6 1 C4.02 1 2.04 1 0 1 C0 0.67 0 0.34 0 0 Z " fill="#2A2A29" transform="translate(725,540)"/>
<path d="M0 0 C1.98 0 3.96 0 6 0 C6 0.33 6 0.66 6 1 C4.02 1 2.04 1 0 1 C0 0.67 0 0.34 0 0 Z " fill="#292829" transform="translate(710,540)"/>
<path d="M0 0 C0.33 0 0.66 0 1 0 C1 1.98 1 3.96 1 6 C0.67 6 0.34 6 0 6 C0 4.02 0 2.04 0 0 Z " fill="#222222" transform="translate(343,527)"/>
<path d="M0 0 C0.66 0 1.32 0 2 0 C1.34 1.32 0.68 2.64 0 4 C0 2.68 0 1.36 0 0 Z " fill="#2E2F2E" transform="translate(264,528)"/>
<path d="M0 0 C0.33 0 0.66 0 1 0 C1 1.98 1 3.96 1 6 C0.67 6 0.34 6 0 6 C0 4.02 0 2.04 0 0 Z " fill="#242422" transform="translate(793,456)"/>
<path d="M0 0 C0.33 1.32 0.66 2.64 1 4 C0.34 4 -0.32 4 -1 4 C-0.67 2.68 -0.34 1.36 0 0 Z " fill="#282828" transform="translate(481,451)"/>
<path d="M0 0 C0.99 1.485 0.99 1.485 2 3 C1.01 3.495 1.01 3.495 0 4 C0 2.68 0 1.36 0 0 Z " fill="#525252" transform="translate(592,804)"/>
<path d="M0 0 C1.485 0.99 1.485 0.99 3 2 C2.01 2 1.02 2 0 2 C0 1.34 0 0.68 0 0 Z " fill="#545251" transform="translate(161,772)"/>
<path d="M0 0 C0.33 0 0.66 0 1 0 C1 1.65 1 3.3 1 5 C0.67 5 0.34 5 0 5 C0 3.35 0 1.7 0 0 Z " fill="#21211F" transform="translate(540,675)"/>
<path d="M0 0 C0.33 0 0.66 0 1 0 C1 1.65 1 3.3 1 5 C0.67 5 0.34 5 0 5 C0 3.35 0 1.7 0 0 Z " fill="#2C2B2D" transform="translate(540,560)"/>
<path d="M0 0 C1.65 0 3.3 0 5 0 C5 0.33 5 0.66 5 1 C3.35 1 1.7 1 0 1 C0 0.67 0 0.34 0 0 Z " fill="#2B292A" transform="translate(383,543)"/>
<path d="M0 0 C1.65 0 3.3 0 5 0 C5 0.33 5 0.66 5 1 C3.35 1 1.7 1 0 1 C0 0.67 0 0.34 0 0 Z " fill="#2B2A2B" transform="translate(273,543)"/>
<path d="M0 0 C1.65 0 3.3 0 5 0 C5 0.33 5 0.66 5 1 C3.35 1 1.7 1 0 1 C0 0.67 0 0.34 0 0 Z " fill="#292929" transform="translate(806,540)"/>
<path d="M0 0 C1.65 0 3.3 0 5 0 C5 0.33 5 0.66 5 1 C3.35 1 1.7 1 0 1 C0 0.67 0 0.34 0 0 Z " fill="#292929" transform="translate(798,540)"/>
<path d="M0 0 C1.65 0 3.3 0 5 0 C5 0.33 5 0.66 5 1 C3.35 1 1.7 1 0 1 C0 0.67 0 0.34 0 0 Z " fill="#292928" transform="translate(782,540)"/>
<path d="M0 0 C1.65 0 3.3 0 5 0 C5 0.33 5 0.66 5 1 C3.35 1 1.7 1 0 1 C0 0.67 0 0.34 0 0 Z " fill="#2B2A2B" transform="translate(750,540)"/>
<path d="M0 0 C1.65 0 3.3 0 5 0 C5 0.33 5 0.66 5 1 C3.35 1 1.7 1 0 1 C0 0.67 0 0.34 0 0 Z " fill="#2C2B2B" transform="translate(742,540)"/>
<path d="M0 0 C1.65 0 3.3 0 5 0 C5 0.33 5 0.66 5 1 C3.35 1 1.7 1 0 1 C0 0.67 0 0.34 0 0 Z " fill="#2A2A29" transform="translate(734,540)"/>
<path d="M0 0 C1.65 0 3.3 0 5 0 C5 0.33 5 0.66 5 1 C3.35 1 1.7 1 0 1 C0 0.67 0 0.34 0 0 Z " fill="#292929" transform="translate(694,540)"/>
<path d="M0 0 C1.65 0 3.3 0 5 0 C5 0.33 5 0.66 5 1 C3.35 1 1.7 1 0 1 C0 0.67 0 0.34 0 0 Z " fill="#282827" transform="translate(662,540)"/>
<path d="M0 0 C1.65 0 3.3 0 5 0 C5 0.33 5 0.66 5 1 C3.35 1 1.7 1 0 1 C0 0.67 0 0.34 0 0 Z " fill="#282828" transform="translate(654,540)"/>
<path d="M0 0 C1.65 0 3.3 0 5 0 C5 0.33 5 0.66 5 1 C3.35 1 1.7 1 0 1 C0 0.67 0 0.34 0 0 Z " fill="#272727" transform="translate(638,540)"/>
<path d="M0 0 C0.99 0 1.98 0 3 0 C3 0.66 3 1.32 3 2 C2.01 2 1.02 2 0 2 C0 1.34 0 0.68 0 0 Z " fill="#222323" transform="translate(193,456)"/>
<path d="M0 0 C1.65 0 3.3 0 5 0 C5 0.33 5 0.66 5 1 C3.35 1 1.7 1 0 1 C0 0.67 0 0.34 0 0 Z " fill="#242525" transform="translate(208,439)"/>
<path d="M0 0 C0.66 0 1.32 0 2 0 C2 0.99 2 1.98 2 3 C1.34 2.67 0.68 2.34 0 2 C0 1.34 0 0.68 0 0 Z " fill="#262526" transform="translate(814,296)"/>
<path d="M0 0 C0.66 0 1.32 0 2 0 C2 0.66 2 1.32 2 2 C1.01 1.67 0.02 1.34 -1 1 C-0.67 0.67 -0.34 0.34 0 0 Z " fill="#1D1D1E" transform="translate(597,294)"/>
<path d="M0 0 C0.33 1.32 0.66 2.64 1 4 C0.34 3.01 -0.32 2.02 -1 1 C-0.67 0.67 -0.34 0.34 0 0 Z " fill="#2A2B2B" transform="translate(730,290)"/>
<path d="M0 0 C0.99 1.485 0.99 1.485 2 3 C1.34 3 0.68 3 0 3 C0 2.01 0 1.02 0 0 Z " fill="#535352" transform="translate(137,747)"/>
<path d="M0 0 C0.99 1.485 0.99 1.485 2 3 C1.34 3 0.68 3 0 3 C0 2.01 0 1.02 0 0 Z " fill="#29282A" transform="translate(360,541)"/>
<path d="M0 0 C4 1 4 1 4 1 Z " fill="#292828" transform="translate(319,543)"/>
<path d="M0 0 C0.99 0 1.98 0 3 0 C2.67 0.66 2.34 1.32 2 2 C1.34 1.34 0.68 0.68 0 0 Z " fill="#2B2929" transform="translate(740,542)"/>
<path d="M0 0 C0.99 0.495 0.99 0.495 2 1 C1.67 1.66 1.34 2.32 1 3 C0.67 2.01 0.34 1.02 0 0 Z " fill="#31312F" transform="translate(480,540)"/>
<path d="M0 0 C4 1 4 1 4 1 Z " fill="#282728" transform="translate(684,540)"/>
<path d="M0 0 C4 1 4 1 4 1 Z " fill="#272727" transform="translate(633,540)"/>
<path d="M0 0 C0.66 0.66 1.32 1.32 2 2 C1.01 1.67 0.02 1.34 -1 1 C-0.67 0.67 -0.34 0.34 0 0 Z " fill="#2D2D2E" transform="translate(577,534)"/>
<path d="M0 0 C0.99 0.495 0.99 0.495 2 1 C1.34 1.66 0.68 2.32 0 3 C0 2.01 0 1.02 0 0 Z " fill="#3B3A3A" transform="translate(144,533)"/>
<path d="M0 0 C1 4 1 4 1 4 Z " fill="#242425" transform="translate(343,521)"/>
<path d="M0 0 C4 1 4 1 4 1 Z " fill="#2B2A29" transform="translate(671,511)"/>
<path d="M0 0 C0.66 0.66 1.32 1.32 2 2 C1.01 1.67 0.02 1.34 -1 1 C-0.67 0.67 -0.34 0.34 0 0 Z " fill="#2F302E" transform="translate(230,510)"/>
<path d="M0 0 C0 3 0 3 0 3 Z " fill="#252525" transform="translate(793,495)"/>
<path d="M0 0 C1 4 1 4 1 4 Z " fill="#232222" transform="translate(707,476)"/>
<path d="M0 0 C0.99 0.33 1.98 0.66 3 1 C2.01 1 1.02 1 0 1 C0 0.67 0 0.34 0 0 Z " fill="#272626" transform="translate(236,446)"/>
<path d="M0 0 C1.485 0.99 1.485 0.99 3 2 C2.01 2 1.02 2 0 2 C0 1.34 0 0.68 0 0 Z " fill="#262626" transform="translate(472,444)"/>
<path d="M0 0 C0.99 0.33 1.98 0.66 3 1 C2.01 1.33 1.02 1.66 0 2 C0 1.34 0 0.68 0 0 Z " fill="#282726" transform="translate(232,445)"/>
<path d="M0 0 C4 1 4 1 4 1 Z " fill="#2B2C2C" transform="translate(607,392)"/>
<path d="M0 0 C0 3 0 3 0 3 Z " fill="#535454" transform="translate(178,386)"/>
<path d="M0 0 C0.33 0.66 0.66 1.32 1 2 C0.01 1.67 -0.98 1.34 -2 1 C-1.34 0.67 -0.68 0.34 0 0 Z " fill="#2C2A2A" transform="translate(795,334)"/>
<path d="M0 0 C4 1 4 1 4 1 Z " fill="#1F1E1E" transform="translate(601,295)"/>
<path d="M0 0 C0.66 0 1.32 0 2 0 C1.67 0.66 1.34 1.32 1 2 C0.67 1.34 0.34 0.68 0 0 Z " fill="#565454" transform="translate(612,814)"/>
<path d="M0 0 C0.99 0.495 0.99 0.495 2 1 C1.01 1.495 1.01 1.495 0 2 C0 1.34 0 0.68 0 0 Z " fill="#555453" transform="translate(610,813)"/>
<path d="M0 0 C3 1 3 1 3 1 Z " fill="#434243" transform="translate(440,791)"/>
<path d="" fill="#242323" transform="translate(0,0)"/>
<path d="" fill="#1F1E1F" transform="translate(0,0)"/>
<path d="" fill="#1E1D20" transform="translate(0,0)"/>
<path d="" fill="#1F1F1E" transform="translate(0,0)"/>
<path d="M0 0 C0.66 0.66 1.32 1.32 2 2 C1.34 2 0.68 2 0 2 C0 1.34 0 0.68 0 0 Z " fill="#292A2A" transform="translate(724,542)"/>
<path d="M0 0 C0.66 0.66 1.32 1.32 2 2 C1.34 2 0.68 2 0 2 C0 1.34 0 0.68 0 0 Z " fill="#292A28" transform="translate(692,542)"/>
<path d="M0 0 C3 1 3 1 3 1 Z " fill="#2B2A2A" transform="translate(368,543)"/>
<path d="M0 0 C3 1 3 1 3 1 Z " fill="#272626" transform="translate(363,543)"/>
<path d="M0 0 C3 1 3 1 3 1 Z " fill="#30302D" transform="translate(163,543)"/>
<path d="M0 0 C3 1 3 1 3 1 Z " fill="#292829" transform="translate(773,540)"/>
<path d="M0 0 C3 1 3 1 3 1 Z " fill="#2B2A29" transform="translate(757,540)"/>
<path d="M0 0 C3 1 3 1 3 1 Z " fill="#272726" transform="translate(645,540)"/>
<path d="" fill="#252525" transform="translate(0,0)"/>
<path d="M0 0 C3 1 3 1 3 1 Z " fill="#2A2A29" transform="translate(763,503)"/>
<path d="M0 0 C3 1 3 1 3 1 Z " fill="#292A2A" transform="translate(744,503)"/>
<path d="M0 0 C0.33 0.66 0.66 1.32 1 2 C0.34 1.67 -0.32 1.34 -1 1 C-0.67 0.67 -0.34 0.34 0 0 Z " fill="#2D2D2D" transform="translate(553,503)"/>
<path d="" fill="#262626" transform="translate(0,0)"/>
<path d="M0 0 C0.99 0.495 0.99 0.495 2 1 C1.01 1.495 1.01 1.495 0 2 C0 1.34 0 0.68 0 0 Z " fill="#282729" transform="translate(290,492)"/>
<path d="M0 0 C0.33 0.66 0.66 1.32 1 2 C0.34 1.67 -0.32 1.34 -1 1 C-0.67 0.67 -0.34 0.34 0 0 Z " fill="#2E2D2B" transform="translate(285,493)"/>
<path d="M0 0 C3 1 3 1 3 1 Z " fill="#2B2929" transform="translate(373,491)"/>
<path d="" fill="#4B4A48" transform="translate(0,0)"/>
<path d="M0 0 C0.66 0.66 1.32 1.32 2 2 C1.34 2 0.68 2 0 2 C0 1.34 0 0.68 0 0 Z " fill="#272626" transform="translate(200,456)"/>
<path d="M0 0 C3 1 3 1 3 1 Z " fill="#222122" transform="translate(445,439)"/>
<path d="" fill="#272726" transform="translate(0,0)"/>
<path d="" fill="#292A28" transform="translate(0,0)"/>
<path d="M0 0 C3 1 3 1 3 1 Z " fill="#414141" transform="translate(832,394)"/>
<path d="M0 0 C3 1 3 1 3 1 Z " fill="#4A4B49" transform="translate(190,384)"/>
<path d="" fill="#313131" transform="translate(0,0)"/>
<path d="M0 0 C3 1 3 1 3 1 Z " fill="#323231" transform="translate(808,343)"/>
<path d="M0 0 C0.66 0 1.32 0 2 0 C1.67 0.66 1.34 1.32 1 2 C0.67 1.34 0.34 0.68 0 0 Z " fill="#262625" transform="translate(784,320)"/>
<path d="" fill="#202120" transform="translate(0,0)"/>
<path d="" fill="#262727" transform="translate(0,0)"/>
<path d="M0 0 C0.99 0.495 0.99 0.495 2 1 C1.01 1.495 1.01 1.495 0 2 C0 1.34 0 0.68 0 0 Z " fill="#575655" transform="translate(552,265)"/>
<path d="M0 0 C0.99 0.495 0.99 0.495 2 1 C1.01 1.495 1.01 1.495 0 2 C0 1.34 0 0.68 0 0 Z " fill="#555455" transform="translate(572,240)"/>
<path d="M0 0 C0.99 0.495 0.99 0.495 2 1 C1.01 1.495 1.01 1.495 0 2 C0 1.34 0 0.68 0 0 Z " fill="#525352" transform="translate(577,235)"/>
<path d="M0 0 C0.66 0 1.32 0 2 0 C1.67 0.66 1.34 1.32 1 2 C0.67 1.34 0.34 0.68 0 0 Z " fill="#4C4B4C" transform="translate(645,224)"/>
<path d="M0 0 C3 1 3 1 3 1 Z " fill="#545655" transform="translate(805,200)"/>
<path d="" fill="#525150" transform="translate(0,0)"/>
<path d="" fill="#515050" transform="translate(0,0)"/>
<path d="M0 0 C2 1 2 1 2 1 Z " fill="#494948" transform="translate(451,790)"/>
<path d="" fill="#3D3B3A" transform="translate(0,0)"/>
<path d="" fill="#3B3A3A" transform="translate(0,0)"/>
<path d="" fill="#5D5C5D" transform="translate(0,0)"/>
<path d="" fill="#545453" transform="translate(0,0)"/>
<path d="" fill="#232223" transform="translate(0,0)"/>
<path d="M0 0 C2 1 2 1 2 1 Z " fill="#2D2C2C" transform="translate(499,550)"/>
<path d="M0 0 C2 1 2 1 2 1 Z " fill="#313131" transform="translate(235,550)"/>
<path d="M0 0 C2 1 2 1 2 1 Z " fill="#323232" transform="translate(227,550)"/>
<path d="M0 0 C2 1 2 1 2 1 Z " fill="#343233" transform="translate(219,550)"/>
<path d="M0 0 C2 1 2 1 2 1 Z " fill="#5E5D60" transform="translate(886,544)"/>
<path d="" fill="#29292B" transform="translate(0,0)"/>
<path d="" fill="#282928" transform="translate(0,0)"/>
<path d="M0 0 C2 1 2 1 2 1 Z " fill="#2A2829" transform="translate(701,543)"/>
<path d="M0 0 C2 1 2 1 2 1 Z " fill="#2A2929" transform="translate(380,543)"/>
<path d="M0 0 C2 1 2 1 2 1 Z " fill="#2A2929" transform="translate(376,543)"/>
<path d="M0 0 C2 1 2 1 2 1 Z " fill="#2A2929" transform="translate(372,543)"/>
<path d="M0 0 C2 1 2 1 2 1 Z " fill="#282727" transform="translate(340,543)"/>
<path d="M0 0 C2 1 2 1 2 1 Z " fill="#282627" transform="translate(335,543)"/>
<path d="M0 0 C2 1 2 1 2 1 Z " fill="#292828" transform="translate(332,543)"/>
<path d="M0 0 C2 1 2 1 2 1 Z " fill="#282929" transform="translate(328,543)"/>
<path d="M0 0 C2 1 2 1 2 1 Z " fill="#2A2929" transform="translate(324,543)"/>
<path d="M0 0 C2 1 2 1 2 1 Z " fill="#292828" transform="translate(316,543)"/>
<path d="M0 0 C2 1 2 1 2 1 Z " fill="#2B282A" transform="translate(292,543)"/>
<path d="M0 0 C2 1 2 1 2 1 Z " fill="#2A2829" transform="translate(287,543)"/>
<path d="M0 0 C2 1 2 1 2 1 Z " fill="#2B292B" transform="translate(284,543)"/>
<path d="M0 0 C2 1 2 1 2 1 Z " fill="#2A2A2A" transform="translate(279,543)"/>
<path d="M0 0 C2 1 2 1 2 1 Z " fill="#312E30" transform="translate(171,543)"/>
<path d="M0 0 C2 1 2 1 2 1 Z " fill="#2E2C2B" transform="translate(168,543)"/>
<path d="M0 0 C2 1 2 1 2 1 Z " fill="#292928" transform="translate(627,542)"/>
<path d="M0 0 C2 1 2 1 2 1 Z " fill="#292826" transform="translate(589,542)"/>
<path d="M0 0 C2 1 2 1 2 1 Z " fill="#363432" transform="translate(152,541)"/>
<path d="M0 0 C2 1 2 1 2 1 Z " fill="#2A2A28" transform="translate(833,540)"/>
<path d="M0 0 C2 1 2 1 2 1 Z " fill="#292929" transform="translate(830,540)"/>
<path d="M0 0 C2 1 2 1 2 1 Z " fill="#2A2929" transform="translate(761,540)"/>
<path d="M0 0 C2 1 2 1 2 1 Z " fill="#29292A" transform="translate(689,540)"/>
<path d="M0 0 C2 1 2 1 2 1 Z " fill="#262726" transform="translate(630,540)"/>
<path d="M0 0 C2 1 2 1 2 1 Z " fill="#282929" transform="translate(617,540)"/>
<path d="M0 0 C2 1 2 1 2 1 Z " fill="#282829" transform="translate(606,540)"/>
<path d="M0 0 C2 1 2 1 2 1 Z " fill="#2B2B2A" transform="translate(593,540)"/>
<path d="" fill="#2A2929" transform="translate(0,0)"/>
<path d="" fill="#414040" transform="translate(0,0)"/>
<path d="M0 0 C2 1 2 1 2 1 Z " fill="#272727" transform="translate(652,513)"/>
<path d="M0 0 C2 1 2 1 2 1 Z " fill="#2B2B2A" transform="translate(692,511)"/>
<path d="M0 0 C2 1 2 1 2 1 Z " fill="#282829" transform="translate(684,511)"/>
<path d="M0 0 C2 1 2 1 2 1 Z " fill="#2A282A" transform="translate(676,511)"/>
<path d="" fill="#2E2F30" transform="translate(0,0)"/>
<path d="M0 0 C2 1 2 1 2 1 Z " fill="#313030" transform="translate(226,509)"/>
<path d="" fill="#2B2B2B" transform="translate(0,0)"/>
<path d="" fill="#282828" transform="translate(0,0)"/>
<path d="M0 0 C2 1 2 1 2 1 Z " fill="#282829" transform="translate(748,503)"/>
<path d="M0 0 C2 1 2 1 2 1 Z " fill="#282628" transform="translate(293,495)"/>
<path d="" fill="#545454" transform="translate(0,0)"/>
<path d="" fill="#292829" transform="translate(0,0)"/>
<path d="" fill="#262624" transform="translate(0,0)"/>
<path d="M0 0 C2 1 2 1 2 1 Z " fill="#282827" transform="translate(228,472)"/>
<path d="M0 0 C2 1 2 1 2 1 Z " fill="#2B2C2C" transform="translate(265,468)"/>
<path d="" fill="#242322" transform="translate(0,0)"/>
<path d="" fill="#272729" transform="translate(0,0)"/>
<path d="" fill="#292827" transform="translate(0,0)"/>
<path d="" fill="#2B2B2B" transform="translate(0,0)"/>
<path d="" fill="#262627" transform="translate(0,0)"/>
<path d="M0 0 C2 1 2 1 2 1 Z " fill="#252523" transform="translate(458,457)"/>
<path d="M0 0 C2 1 2 1 2 1 Z " fill="#262626" transform="translate(469,456)"/>
<path d="M0 0 C2 1 2 1 2 1 Z " fill="#282A2A" transform="translate(476,447)"/>
<path d="M0 0 C2 1 2 1 2 1 Z " fill="#272725" transform="translate(229,447)"/>
<path d="" fill="#2C2B2E" transform="translate(0,0)"/>
<path d="M0 0 C2 1 2 1 2 1 Z " fill="#242224" transform="translate(452,439)"/>
<path d="M0 0 C2 1 2 1 2 1 Z " fill="#272525" transform="translate(204,439)"/>
<path d="" fill="#2D2C2C" transform="translate(0,0)"/>
<path d="" fill="#232323" transform="translate(0,0)"/>
<path d="" fill="#242223" transform="translate(0,0)"/>
<path d="" fill="#565656" transform="translate(0,0)"/>
<path d="M0 0 C2 1 2 1 2 1 Z " fill="#2F2E2F" transform="translate(584,402)"/>
<path d="" fill="#38393A" transform="translate(0,0)"/>
<path d="M0 0 C2 1 2 1 2 1 Z " fill="#454746" transform="translate(846,400)"/>
<path d="" fill="#282727" transform="translate(0,0)"/>
<path d="" fill="#404241" transform="translate(0,0)"/>
<path d="M0 0 C2 1 2 1 2 1 Z " fill="#4A4C4D" transform="translate(170,392)"/>
<path d="M0 0 C2 1 2 1 2 1 Z " fill="#505251" transform="translate(184,384)"/>
<path d="M0 0 C2 1 2 1 2 1 Z " fill="#2C2D2C" transform="translate(592,367)"/>
<path d="" fill="#323131" transform="translate(0,0)"/>
<path d="M0 0 C2 1 2 1 2 1 Z " fill="#39393A" transform="translate(560,343)"/>
<path d="" fill="#3E3D3B" transform="translate(0,0)"/>
<path d="M0 0 C2 1 2 1 2 1 Z " fill="#212220" transform="translate(600,313)"/>
<path d="" fill="#262625" transform="translate(0,0)"/>
<path d="M0 0 C2 1 2 1 2 1 Z " fill="#272729" transform="translate(728,296)"/>
<path d="M0 0 C2 1 2 1 2 1 Z " fill="#2C2C2B" transform="translate(730,288)"/>
<path d="" fill="#5C5D5C" transform="translate(0,0)"/>
<path d="M0 0 C2 1 2 1 2 1 Z " fill="#4B4C4C" transform="translate(640,224)"/>
<path d="M0 0 C2 1 2 1 2 1 Z " fill="#515151" transform="translate(783,209)"/>
<path d="M0 0 C2 1 2 1 2 1 Z " fill="#515453" transform="translate(785,208)"/>
<path d="" fill="#FFFFFF" transform="translate(0,0)"/>
<path d="" fill="#FFFFFF" transform="translate(0,0)"/>
<path d="" fill="#FFFEFF" transform="translate(0,0)"/>
<path d="" fill="#FFFFFF" transform="translate(0,0)"/>
<path d="" fill="#646263" transform="translate(0,0)"/>
<path d="" fill="#555755" transform="translate(0,0)"/>
<path d="" fill="#5D5A5D" transform="translate(0,0)"/>
<path d="" fill="#5E5A5A" transform="translate(0,0)"/>
<path d="" fill="#525251" transform="translate(0,0)"/>
<path d="" fill="#575856" transform="translate(0,0)"/>
<path d="" fill="#676867" transform="translate(0,0)"/>
<path d="" fill="#565352" transform="translate(0,0)"/>
<path d="" fill="#4F4D4C" transform="translate(0,0)"/>
<path d="" fill="#5D5D5F" transform="translate(0,0)"/>
<path d="" fill="#4E4D4F" transform="translate(0,0)"/>
<path d="" fill="#4D4D4D" transform="translate(0,0)"/>
<path d="" fill="#454445" transform="translate(0,0)"/>
<path d="" fill="#484748" transform="translate(0,0)"/>
<path d="" fill="#4C4D4D" transform="translate(0,0)"/>
<path d="" fill="#4E4E4E" transform="translate(0,0)"/>
<path d="" fill="#4E504F" transform="translate(0,0)"/>
<path d="" fill="#595956" transform="translate(0,0)"/>
<path d="" fill="#5A5858" transform="translate(0,0)"/>
<path d="" fill="#5D5C5D" transform="translate(0,0)"/>
<path d="" fill="#454444" transform="translate(0,0)"/>
<path d="" fill="#5E5E5D" transform="translate(0,0)"/>
<path d="" fill="#4B4A4A" transform="translate(0,0)"/>
<path d="" fill="#535252" transform="translate(0,0)"/>
<path d="" fill="#4E4C4B" transform="translate(0,0)"/>
<path d="" fill="#575756" transform="translate(0,0)"/>
<path d="" fill="#5E5D5F" transform="translate(0,0)"/>
<path d="" fill="#4A4C4D" transform="translate(0,0)"/>
<path d="" fill="#525151" transform="translate(0,0)"/>
<path d="" fill="#595C5B" transform="translate(0,0)"/>
<path d="" fill="#494848" transform="translate(0,0)"/>
<path d="" fill="#525350" transform="translate(0,0)"/>
<path d="" fill="#575453" transform="translate(0,0)"/>
<path d="" fill="#51514F" transform="translate(0,0)"/>
<path d="" fill="#50514F" transform="translate(0,0)"/>
<path d="" fill="#444342" transform="translate(0,0)"/>
<path d="" fill="#60615F" transform="translate(0,0)"/>
<path d="" fill="#413F3F" transform="translate(0,0)"/>
<path d="" fill="#706F6F" transform="translate(0,0)"/>
<path d="" fill="#525151" transform="translate(0,0)"/>
<path d="" fill="#525251" transform="translate(0,0)"/>
<path d="" fill="#616162" transform="translate(0,0)"/>
<path d="" fill="#575554" transform="translate(0,0)"/>
<path d="" fill="#575553" transform="translate(0,0)"/>
<path d="" fill="#3B3A39" transform="translate(0,0)"/>
<path d="" fill="#5D5E5D" transform="translate(0,0)"/>
<path d="" fill="#535051" transform="translate(0,0)"/>
<path d="" fill="#333433" transform="translate(0,0)"/>
<path d="" fill="#525251" transform="translate(0,0)"/>
<path d="" fill="#313230" transform="translate(0,0)"/>
<path d="" fill="#514F4F" transform="translate(0,0)"/>
<path d="" fill="#2D2D2E" transform="translate(0,0)"/>
<path d="" fill="#292929" transform="translate(0,0)"/>
<path d="" fill="#272626" transform="translate(0,0)"/>
<path d="" fill="#52524E" transform="translate(0,0)"/>
<path d="" fill="#51504F" transform="translate(0,0)"/>
<path d="" fill="#232124" transform="translate(0,0)"/>
<path d="" fill="#222221" transform="translate(0,0)"/>
<path d="" fill="#232223" transform="translate(0,0)"/>
<path d="" fill="#535555" transform="translate(0,0)"/>
<path d="" fill="#212120" transform="translate(0,0)"/>
<path d="" fill="#212121" transform="translate(0,0)"/>
<path d="" fill="#232322" transform="translate(0,0)"/>
<path d="" fill="#222121" transform="translate(0,0)"/>
<path d="" fill="#1E1F1E" transform="translate(0,0)"/>
<path d="" fill="#505051" transform="translate(0,0)"/>
<path d="" fill="#1F1B1C" transform="translate(0,0)"/>
<path d="" fill="#2E2F2F" transform="translate(0,0)"/>
<path d="" fill="#312F30" transform="translate(0,0)"/>
<path d="" fill="#333231" transform="translate(0,0)"/>
<path d="" fill="#343434" transform="translate(0,0)"/>
<path d="" fill="#302E2E" transform="translate(0,0)"/>
<path d="" fill="#2B2D2B" transform="translate(0,0)"/>
<path d="" fill="#313031" transform="translate(0,0)"/>
<path d="" fill="#323132" transform="translate(0,0)"/>
<path d="" fill="#313231" transform="translate(0,0)"/>
<path d="" fill="#2B2829" transform="translate(0,0)"/>
<path d="" fill="#282926" transform="translate(0,0)"/>
<path d="" fill="#292928" transform="translate(0,0)"/>
<path d="" fill="#2A292B" transform="translate(0,0)"/>
<path d="" fill="#2C2C2A" transform="translate(0,0)"/>
<path d="" fill="#2E2D2D" transform="translate(0,0)"/>
<path d="" fill="#303030" transform="translate(0,0)"/>
<path d="" fill="#333331" transform="translate(0,0)"/>
<path d="" fill="#333233" transform="translate(0,0)"/>
<path d="" fill="#363334" transform="translate(0,0)"/>
<path d="" fill="#343433" transform="translate(0,0)"/>
<path d="" fill="#312F31" transform="translate(0,0)"/>
<path d="" fill="#302F30" transform="translate(0,0)"/>
<path d="" fill="#625F62" transform="translate(0,0)"/>
<path d="" fill="#2B2A2B" transform="translate(0,0)"/>
<path d="" fill="#2C2A2A" transform="translate(0,0)"/>
<path d="" fill="#282927" transform="translate(0,0)"/>
<path d="" fill="#282927" transform="translate(0,0)"/>
<path d="" fill="#2A2A29" transform="translate(0,0)"/>
<path d="" fill="#2D2B2A" transform="translate(0,0)"/>
<path d="" fill="#2C2C2D" transform="translate(0,0)"/>
<path d="" fill="#2C2A2C" transform="translate(0,0)"/>
<path d="" fill="#2D2C2C" transform="translate(0,0)"/>
<path d="" fill="#2C2929" transform="translate(0,0)"/>
<path d="" fill="#2A292A" transform="translate(0,0)"/>
<path d="" fill="#292B2A" transform="translate(0,0)"/>
<path d="" fill="#2A2A2C" transform="translate(0,0)"/>
<path d="" fill="#282C2B" transform="translate(0,0)"/>
<path d="" fill="#303030" transform="translate(0,0)"/>
<path d="" fill="#33302F" transform="translate(0,0)"/>
<path d="" fill="#29282B" transform="translate(0,0)"/>
<path d="" fill="#2B292B" transform="translate(0,0)"/>
<path d="" fill="#292A29" transform="translate(0,0)"/>
<path d="" fill="#292928" transform="translate(0,0)"/>
<path d="" fill="#292928" transform="translate(0,0)"/>
<path d="" fill="#353333" transform="translate(0,0)"/>
<path d="" fill="#2B2829" transform="translate(0,0)"/>
<path d="" fill="#2F2E2E" transform="translate(0,0)"/>
<path d="" fill="#2B2B29" transform="translate(0,0)"/>
<path d="" fill="#2C2928" transform="translate(0,0)"/>
<path d="" fill="#2C2C2A" transform="translate(0,0)"/>
<path d="" fill="#2A2927" transform="translate(0,0)"/>
<path d="" fill="#29292A" transform="translate(0,0)"/>
<path d="" fill="#282927" transform="translate(0,0)"/>
<path d="" fill="#292925" transform="translate(0,0)"/>
<path d="" fill="#262627" transform="translate(0,0)"/>
<path d="" fill="#292928" transform="translate(0,0)"/>
<path d="" fill="#2A2B2A" transform="translate(0,0)"/>
<path d="" fill="#2B2C2A" transform="translate(0,0)"/>
<path d="" fill="#333232" transform="translate(0,0)"/>
<path d="" fill="#32312F" transform="translate(0,0)"/>
<path d="" fill="#33302F" transform="translate(0,0)"/>
<path d="" fill="#333333" transform="translate(0,0)"/>
<path d="" fill="#343432" transform="translate(0,0)"/>
<path d="" fill="#3D3937" transform="translate(0,0)"/>
<path d="" fill="#282A29" transform="translate(0,0)"/>
<path d="" fill="#2C2D2C" transform="translate(0,0)"/>
<path d="" fill="#383737" transform="translate(0,0)"/>
<path d="" fill="#343333" transform="translate(0,0)"/>
<path d="" fill="#292527" transform="translate(0,0)"/>
<path d="" fill="#3B3A3C" transform="translate(0,0)"/>
<path d="" fill="#393836" transform="translate(0,0)"/>
<path d="" fill="#303131" transform="translate(0,0)"/>
<path d="" fill="#282625" transform="translate(0,0)"/>
<path d="" fill="#292724" transform="translate(0,0)"/>
<path d="" fill="#3E3D3B" transform="translate(0,0)"/>
<path d="" fill="#272825" transform="translate(0,0)"/>
<path d="" fill="#272427" transform="translate(0,0)"/>
<path d="" fill="#2D2C2D" transform="translate(0,0)"/>
<path d="" fill="#282628" transform="translate(0,0)"/>
<path d="" fill="#2E3031" transform="translate(0,0)"/>
<path d="" fill="#3F403F" transform="translate(0,0)"/>
<path d="" fill="#3F3E3D" transform="translate(0,0)"/>
<path d="" fill="#414040" transform="translate(0,0)"/>
<path d="" fill="#424141" transform="translate(0,0)"/>
<path d="" fill="#414140" transform="translate(0,0)"/>
<path d="" fill="#302E2F" transform="translate(0,0)"/>
<path d="" fill="#434241" transform="translate(0,0)"/>
<path d="" fill="#414241" transform="translate(0,0)"/>
<path d="" fill="#2C2B2C" transform="translate(0,0)"/>
<path d="" fill="#2A2B2A" transform="translate(0,0)"/>
<path d="" fill="#2D2D2D" transform="translate(0,0)"/>
<path d="" fill="#1D1D1D" transform="translate(0,0)"/>
<path d="" fill="#2B2C2A" transform="translate(0,0)"/>
<path d="" fill="#252623" transform="translate(0,0)"/>
<path d="" fill="#272524" transform="translate(0,0)"/>
<path d="" fill="#2B2C2E" transform="translate(0,0)"/>
<path d="" fill="#272725" transform="translate(0,0)"/>
<path d="" fill="#292526" transform="translate(0,0)"/>
<path d="" fill="#252626" transform="translate(0,0)"/>
<path d="" fill="#292927" transform="translate(0,0)"/>
<path d="" fill="#2C2C2A" transform="translate(0,0)"/>
<path d="" fill="#252525" transform="translate(0,0)"/>
<path d="" fill="#2D2C2E" transform="translate(0,0)"/>
<path d="" fill="#2B2729" transform="translate(0,0)"/>
<path d="" fill="#262726" transform="translate(0,0)"/>
<path d="" fill="#2C2A29" transform="translate(0,0)"/>
<path d="" fill="#2A2829" transform="translate(0,0)"/>
<path d="" fill="#2A282A" transform="translate(0,0)"/>
<path d="" fill="#2A292A" transform="translate(0,0)"/>
<path d="" fill="#2B2A2D" transform="translate(0,0)"/>
<path d="" fill="#2B2829" transform="translate(0,0)"/>
<path d="" fill="#323131" transform="translate(0,0)"/>
<path d="" fill="#252425" transform="translate(0,0)"/>
<path d="" fill="#313231" transform="translate(0,0)"/>
<path d="" fill="#303130" transform="translate(0,0)"/>
<path d="" fill="#303032" transform="translate(0,0)"/>
<path d="" fill="#2C2C29" transform="translate(0,0)"/>
<path d="" fill="#252424" transform="translate(0,0)"/>
<path d="" fill="#323031" transform="translate(0,0)"/>
<path d="" fill="#302E2F" transform="translate(0,0)"/>
<path d="" fill="#2A2927" transform="translate(0,0)"/>
<path d="" fill="#292727" transform="translate(0,0)"/>
<path d="" fill="#343331" transform="translate(0,0)"/>
<path d="" fill="#34312F" transform="translate(0,0)"/>
<path d="" fill="#282827" transform="translate(0,0)"/>
<path d="" fill="#474845" transform="translate(0,0)"/>
<path d="" fill="#2A2A28" transform="translate(0,0)"/>
<path d="" fill="#212323" transform="translate(0,0)"/>
<path d="" fill="#484546" transform="translate(0,0)"/>
<path d="" fill="#2F2E2B" transform="translate(0,0)"/>
<path d="" fill="#272526" transform="translate(0,0)"/>
<path d="" fill="#2A2829" transform="translate(0,0)"/>
<path d="" fill="#262725" transform="translate(0,0)"/>
<path d="" fill="#272629" transform="translate(0,0)"/>
<path d="" fill="#474545" transform="translate(0,0)"/>
<path d="" fill="#2B2A2A" transform="translate(0,0)"/>
<path d="" fill="#2A292A" transform="translate(0,0)"/>
<path d="" fill="#2E2D2C" transform="translate(0,0)"/>
<path d="" fill="#2C2D2D" transform="translate(0,0)"/>
<path d="" fill="#292828" transform="translate(0,0)"/>
<path d="" fill="#2D2D2C" transform="translate(0,0)"/>
<path d="" fill="#2D2D2C" transform="translate(0,0)"/>
<path d="" fill="#2D2F2C" transform="translate(0,0)"/>
<path d="" fill="#2E2E2C" transform="translate(0,0)"/>
<path d="" fill="#30312E" transform="translate(0,0)"/>
<path d="" fill="#292829" transform="translate(0,0)"/>
<path d="" fill="#262527" transform="translate(0,0)"/>
<path d="" fill="#292828" transform="translate(0,0)"/>
<path d="" fill="#2D2F2E" transform="translate(0,0)"/>
<path d="" fill="#2A282A" transform="translate(0,0)"/>
<path d="" fill="#272625" transform="translate(0,0)"/>
<path d="" fill="#2B2C2E" transform="translate(0,0)"/>
<path d="" fill="#272726" transform="translate(0,0)"/>
<path d="" fill="#2E2D2E" transform="translate(0,0)"/>
<path d="" fill="#29282A" transform="translate(0,0)"/>
<path d="" fill="#2A2928" transform="translate(0,0)"/>
<path d="" fill="#2D2C2C" transform="translate(0,0)"/>
<path d="" fill="#292828" transform="translate(0,0)"/>
<path d="" fill="#292727" transform="translate(0,0)"/>
<path d="" fill="#2D2B2C" transform="translate(0,0)"/>
<path d="" fill="#2F2C2C" transform="translate(0,0)"/>
<path d="" fill="#4A4A47" transform="translate(0,0)"/>
<path d="" fill="#2D2D2E" transform="translate(0,0)"/>
<path d="" fill="#2B2A29" transform="translate(0,0)"/>
<path d="" fill="#494747" transform="translate(0,0)"/>
<path d="" fill="#282826" transform="translate(0,0)"/>
<path d="" fill="#252426" transform="translate(0,0)"/>
<path d="" fill="#272525" transform="translate(0,0)"/>
<path d="" fill="#2D2D2C" transform="translate(0,0)"/>
<path d="" fill="#2B292C" transform="translate(0,0)"/>
<path d="" fill="#494848" transform="translate(0,0)"/>
<path d="" fill="#282627" transform="translate(0,0)"/>
<path d="" fill="#292628" transform="translate(0,0)"/>
<path d="" fill="#282726" transform="translate(0,0)"/>
<path d="" fill="#494B46" transform="translate(0,0)"/>
<path d="" fill="#2B2C2B" transform="translate(0,0)"/>
<path d="" fill="#2D2A2B" transform="translate(0,0)"/>
<path d="" fill="#292828" transform="translate(0,0)"/>
<path d="" fill="#2B2D2B" transform="translate(0,0)"/>
<path d="" fill="#282829" transform="translate(0,0)"/>
<path d="" fill="#4C4B4B" transform="translate(0,0)"/>
<path d="" fill="#292929" transform="translate(0,0)"/>
<path d="" fill="#272725" transform="translate(0,0)"/>
<path d="" fill="#2C2C2A" transform="translate(0,0)"/>
<path d="" fill="#50504D" transform="translate(0,0)"/>
<path d="" fill="#262425" transform="translate(0,0)"/>
<path d="" fill="#26292A" transform="translate(0,0)"/>
<path d="" fill="#242323" transform="translate(0,0)"/>
<path d="" fill="#2A282A" transform="translate(0,0)"/>
<path d="" fill="#232322" transform="translate(0,0)"/>
<path d="" fill="#28292A" transform="translate(0,0)"/>
<path d="" fill="#2B2A29" transform="translate(0,0)"/>
<path d="" fill="#2D2B2D" transform="translate(0,0)"/>
<path d="" fill="#4C4C4B" transform="translate(0,0)"/>
<path d="" fill="#252526" transform="translate(0,0)"/>
<path d="" fill="#2B2C2C" transform="translate(0,0)"/>
<path d="" fill="#262625" transform="translate(0,0)"/>
<path d="" fill="#2B2A29" transform="translate(0,0)"/>
<path d="" fill="#4F4E4C" transform="translate(0,0)"/>
<path d="" fill="#2C2A2A" transform="translate(0,0)"/>
<path d="" fill="#282827" transform="translate(0,0)"/>
<path d="" fill="#292828" transform="translate(0,0)"/>
<path d="" fill="#222324" transform="translate(0,0)"/>
<path d="" fill="#272727" transform="translate(0,0)"/>
<path d="" fill="#292728" transform="translate(0,0)"/>
<path d="" fill="#252527" transform="translate(0,0)"/>
<path d="" fill="#262425" transform="translate(0,0)"/>
<path d="" fill="#252122" transform="translate(0,0)"/>
<path d="" fill="#2B2C2C" transform="translate(0,0)"/>
<path d="" fill="#535351" transform="translate(0,0)"/>
<path d="" fill="#28282B" transform="translate(0,0)"/>
<path d="" fill="#2A2828" transform="translate(0,0)"/>
<path d="" fill="#202121" transform="translate(0,0)"/>
<path d="" fill="#242325" transform="translate(0,0)"/>
<path d="" fill="#242523" transform="translate(0,0)"/>
<path d="" fill="#232324" transform="translate(0,0)"/>
<path d="" fill="#252729" transform="translate(0,0)"/>
<path d="" fill="#242423" transform="translate(0,0)"/>
<path d="" fill="#272826" transform="translate(0,0)"/>
<path d="" fill="#282828" transform="translate(0,0)"/>
<path d="" fill="#2D2B2C" transform="translate(0,0)"/>
<path d="" fill="#201F20" transform="translate(0,0)"/>
<path d="" fill="#2B2829" transform="translate(0,0)"/>
<path d="" fill="#2A2828" transform="translate(0,0)"/>
<path d="" fill="#2A2928" transform="translate(0,0)"/>
<path d="" fill="#252726" transform="translate(0,0)"/>
<path d="" fill="#292929" transform="translate(0,0)"/>
<path d="" fill="#555451" transform="translate(0,0)"/>
<path d="" fill="#262627" transform="translate(0,0)"/>
<path d="" fill="#282727" transform="translate(0,0)"/>
<path d="" fill="#292727" transform="translate(0,0)"/>
<path d="" fill="#292727" transform="translate(0,0)"/>
<path d="" fill="#2A282A" transform="translate(0,0)"/>
<path d="" fill="#232222" transform="translate(0,0)"/>
<path d="" fill="#20201E" transform="translate(0,0)"/>
<path d="" fill="#2A2A2A" transform="translate(0,0)"/>
<path d="" fill="#222223" transform="translate(0,0)"/>
<path d="" fill="#252325" transform="translate(0,0)"/>
<path d="" fill="#232223" transform="translate(0,0)"/>
<path d="" fill="#585858" transform="translate(0,0)"/>
<path d="" fill="#222523" transform="translate(0,0)"/>
<path d="" fill="#2D2D2D" transform="translate(0,0)"/>
<path d="" fill="#242323" transform="translate(0,0)"/>
<path d="" fill="#1E1D1C" transform="translate(0,0)"/>
<path d="" fill="#212422" transform="translate(0,0)"/>
<path d="" fill="#2F2F2F" transform="translate(0,0)"/>
<path d="" fill="#302E31" transform="translate(0,0)"/>
<path d="" fill="#4F5151" transform="translate(0,0)"/>
<path d="" fill="#302F30" transform="translate(0,0)"/>
<path d="" fill="#585A57" transform="translate(0,0)"/>
<path d="" fill="#353836" transform="translate(0,0)"/>
<path d="" fill="#4E4E4F" transform="translate(0,0)"/>
<path d="" fill="#585A56" transform="translate(0,0)"/>
<path d="" fill="#242322" transform="translate(0,0)"/>
<path d="" fill="#4E4C4C" transform="translate(0,0)"/>
<path d="" fill="#545452" transform="translate(0,0)"/>
<path d="" fill="#515151" transform="translate(0,0)"/>
<path d="" fill="#535551" transform="translate(0,0)"/>
<path d="" fill="#313132" transform="translate(0,0)"/>
<path d="" fill="#3A3939" transform="translate(0,0)"/>
<path d="" fill="#3A3737" transform="translate(0,0)"/>
<path d="" fill="#282826" transform="translate(0,0)"/>
<path d="" fill="#515254" transform="translate(0,0)"/>
<path d="" fill="#535253" transform="translate(0,0)"/>
<path d="" fill="#4A4C49" transform="translate(0,0)"/>
<path d="" fill="#262627" transform="translate(0,0)"/>
<path d="" fill="#444746" transform="translate(0,0)"/>
<path d="" fill="#4C4E4D" transform="translate(0,0)"/>
<path d="" fill="#545454" transform="translate(0,0)"/>
<path d="" fill="#52514F" transform="translate(0,0)"/>
<path d="" fill="#282828" transform="translate(0,0)"/>
<path d="" fill="#464647" transform="translate(0,0)"/>
<path d="" fill="#4E504E" transform="translate(0,0)"/>
<path d="" fill="#2D2D2D" transform="translate(0,0)"/>
<path d="" fill="#464745" transform="translate(0,0)"/>
<path d="" fill="#303232" transform="translate(0,0)"/>
<path d="" fill="#3F403E" transform="translate(0,0)"/>
<path d="" fill="#3F3E3E" transform="translate(0,0)"/>
<path d="" fill="#4C524F" transform="translate(0,0)"/>
<path d="" fill="#3F4140" transform="translate(0,0)"/>
<path d="" fill="#575759" transform="translate(0,0)"/>
<path d="" fill="#2B2B29" transform="translate(0,0)"/>
<path d="" fill="#2A2828" transform="translate(0,0)"/>
<path d="" fill="#1D1D1C" transform="translate(0,0)"/>
<path d="" fill="#414140" transform="translate(0,0)"/>
<path d="" fill="#58555A" transform="translate(0,0)"/>
<path d="" fill="#4B4D4C" transform="translate(0,0)"/>
<path d="" fill="#4E4F4F" transform="translate(0,0)"/>
<path d="" fill="#515252" transform="translate(0,0)"/>
<path d="" fill="#555556" transform="translate(0,0)"/>
<path d="" fill="#565756" transform="translate(0,0)"/>
<path d="" fill="#444443" transform="translate(0,0)"/>
<path d="" fill="#3F4041" transform="translate(0,0)"/>
<path d="" fill="#3E3E3E" transform="translate(0,0)"/>
<path d="" fill="#4F504F" transform="translate(0,0)"/>
<path d="" fill="#2B2B29" transform="translate(0,0)"/>
<path d="" fill="#464947" transform="translate(0,0)"/>
<path d="" fill="#494949" transform="translate(0,0)"/>
<path d="" fill="#494A49" transform="translate(0,0)"/>
<path d="" fill="#4A4A4C" transform="translate(0,0)"/>
<path d="" fill="#4B4D4B" transform="translate(0,0)"/>
<path d="" fill="#4C4E4C" transform="translate(0,0)"/>
<path d="" fill="#282927" transform="translate(0,0)"/>
<path d="" fill="#282626" transform="translate(0,0)"/>
<path d="" fill="#272628" transform="translate(0,0)"/>
<path d="" fill="#323130" transform="translate(0,0)"/>
<path d="" fill="#262624" transform="translate(0,0)"/>
<path d="" fill="#323030" transform="translate(0,0)"/>
<path d="" fill="#2A2927" transform="translate(0,0)"/>
<path d="" fill="#343534" transform="translate(0,0)"/>
<path d="" fill="#262626" transform="translate(0,0)"/>
<path d="" fill="#393837" transform="translate(0,0)"/>
<path d="" fill="#3A3C3A" transform="translate(0,0)"/>
<path d="" fill="#393A3B" transform="translate(0,0)"/>
<path d="" fill="#3A3A39" transform="translate(0,0)"/>
<path d="" fill="#2F2E2E" transform="translate(0,0)"/>
<path d="" fill="#2A2727" transform="translate(0,0)"/>
<path d="" fill="#323131" transform="translate(0,0)"/>
<path d="" fill="#302E2E" transform="translate(0,0)"/>
<path d="" fill="#484846" transform="translate(0,0)"/>
<path d="" fill="#32302F" transform="translate(0,0)"/>
<path d="" fill="#302D30" transform="translate(0,0)"/>
<path d="" fill="#2F2F2E" transform="translate(0,0)"/>
<path d="" fill="#444647" transform="translate(0,0)"/>
<path d="" fill="#2C2C2B" transform="translate(0,0)"/>
<path d="" fill="#272827" transform="translate(0,0)"/>
<path d="" fill="#2C2B2A" transform="translate(0,0)"/>
<path d="" fill="#262726" transform="translate(0,0)"/>
<path d="" fill="#2D2C2B" transform="translate(0,0)"/>
<path d="" fill="#262523" transform="translate(0,0)"/>
<path d="" fill="#232122" transform="translate(0,0)"/>
<path d="" fill="#262524" transform="translate(0,0)"/>
<path d="" fill="#3D3E3B" transform="translate(0,0)"/>
<path d="" fill="#262726" transform="translate(0,0)"/>
<path d="" fill="#242323" transform="translate(0,0)"/>
<path d="" fill="#3D3D3C" transform="translate(0,0)"/>
<path d="" fill="#252325" transform="translate(0,0)"/>
<path d="" fill="#5F5D5D" transform="translate(0,0)"/>
<path d="" fill="#545554" transform="translate(0,0)"/>
<path d="" fill="#21201F" transform="translate(0,0)"/>
<path d="" fill="#515353" transform="translate(0,0)"/>
<path d="" fill="#525254" transform="translate(0,0)"/>
<path d="" fill="#272727" transform="translate(0,0)"/>
<path d="" fill="#242525" transform="translate(0,0)"/>
<path d="" fill="#282628" transform="translate(0,0)"/>
<path d="" fill="#222221" transform="translate(0,0)"/>
<path d="" fill="#272728" transform="translate(0,0)"/>
<path d="" fill="#272926" transform="translate(0,0)"/>
<path d="" fill="#272827" transform="translate(0,0)"/>
<path d="" fill="#202222" transform="translate(0,0)"/>
<path d="" fill="#262526" transform="translate(0,0)"/>
<path d="" fill="#272625" transform="translate(0,0)"/>
<path d="" fill="#252625" transform="translate(0,0)"/>
<path d="" fill="#222424" transform="translate(0,0)"/>
<path d="" fill="#262728" transform="translate(0,0)"/>
<path d="" fill="#252827" transform="translate(0,0)"/>
<path d="" fill="#272928" transform="translate(0,0)"/>
<path d="" fill="#1F2120" transform="translate(0,0)"/>
<path d="" fill="#272828" transform="translate(0,0)"/>
<path d="" fill="#303030" transform="translate(0,0)"/>
<path d="" fill="#312F30" transform="translate(0,0)"/>
<path d="" fill="#2F2F2E" transform="translate(0,0)"/>
<path d="" fill="#444446" transform="translate(0,0)"/>
<path d="" fill="#272827" transform="translate(0,0)"/>
<path d="" fill="#2F2F2E" transform="translate(0,0)"/>
<path d="" fill="#333635" transform="translate(0,0)"/>
<path d="" fill="#333333" transform="translate(0,0)"/>
<path d="" fill="#343632" transform="translate(0,0)"/>
<path d="" fill="#272826" transform="translate(0,0)"/>
<path d="" fill="#282927" transform="translate(0,0)"/>
<path d="" fill="#272726" transform="translate(0,0)"/>
<path d="" fill="#282524" transform="translate(0,0)"/>
<path d="" fill="#262527" transform="translate(0,0)"/>
<path d="" fill="#3A3A3C" transform="translate(0,0)"/>
<path d="" fill="#4D4E4E" transform="translate(0,0)"/>
<path d="" fill="#424342" transform="translate(0,0)"/>
<path d="" fill="#3C3D3D" transform="translate(0,0)"/>
<path d="" fill="#262525" transform="translate(0,0)"/>
<path d="" fill="#5C5E5D" transform="translate(0,0)"/>
<path d="" fill="#515252" transform="translate(0,0)"/>
<path d="" fill="#403F42" transform="translate(0,0)"/>
<path d="" fill="#565656" transform="translate(0,0)"/>
<path d="" fill="#525553" transform="translate(0,0)"/>
<path d="" fill="#57575A" transform="translate(0,0)"/>
<path d="" fill="#434244" transform="translate(0,0)"/>
<path d="" fill="#4B4A49" transform="translate(0,0)"/>
<path d="" fill="#585B58" transform="translate(0,0)"/>
<path d="" fill="#484A48" transform="translate(0,0)"/>
<path d="" fill="#575958" transform="translate(0,0)"/>
<path d="" fill="#3E3F40" transform="translate(0,0)"/>
<path d="" fill="#626163" transform="translate(0,0)"/>
<path d="" fill="#545553" transform="translate(0,0)"/>
<path d="" fill="#484B4B" transform="translate(0,0)"/>
<path d="" fill="#505051" transform="translate(0,0)"/>
<path d="" fill="#575957" transform="translate(0,0)"/>
<path d="" fill="#494B4A" transform="translate(0,0)"/>
<path d="" fill="#515150" transform="translate(0,0)"/>
<path d="" fill="#676767" transform="translate(0,0)"/>
<path d="" fill="#4B4A49" transform="translate(0,0)"/>
<path d="" fill="#535352" transform="translate(0,0)"/>
<path d="" fill="#525451" transform="translate(0,0)"/>
<path d="" fill="#444645" transform="translate(0,0)"/>
<path d="" fill="#51504D" transform="translate(0,0)"/>
<path d="" fill="#4F504F" transform="translate(0,0)"/>
<path d="" fill="#545455" transform="translate(0,0)"/>
<path d="" fill="#595657" transform="translate(0,0)"/>
<path d="" fill="#595858" transform="translate(0,0)"/>
<path d="" fill="#5E5F5F" transform="translate(0,0)"/>
<path d="" fill="#575757" transform="translate(0,0)"/>
<path d="" fill="#5B5D5C" transform="translate(0,0)"/>
<path d="" fill="#5C5D5A" transform="translate(0,0)"/>
<path d="" fill="#585A59" transform="translate(0,0)"/>
<path d="" fill="#626661" transform="translate(0,0)"/>
<path d="" fill="#FFFFFF" transform="translate(0,0)"/>
<path d="" fill="#FFFEFE" transform="translate(0,0)"/>
<path d="" fill="#FEFFFF" transform="translate(0,0)"/>
</svg>
