<?xml version="1.0" encoding="UTF-8"?>
<svg version="1.1" xmlns="http://www.w3.org/2000/svg" width="1024" height="1024">
<path d="M0 0 C2.41431708 -0.00135893 4.82863395 -0.00314161 7.24295044 -0.00531006 C13.07017176 -0.0093628 18.89737852 -0.0088156 24.72460025 -0.00589742 C29.47920806 -0.0036175 34.23381228 -0.00334194 38.98842049 -0.00442123 C39.6712194 -0.00457447 40.35401831 -0.0047277 41.0575081 -0.00488558 C42.4458251 -0.00520539 43.83414209 -0.00552961 45.22245909 -0.00585817 C58.18899616 -0.00869762 71.15552613 -0.00545206 84.12206203 -0.0000578 C95.15673635 0.00439165 106.19140011 0.00364671 117.22607422 -0.00097656 C130.12719157 -0.00637953 143.02830268 -0.00840525 155.92942101 -0.0053643 C157.31717018 -0.00504586 158.70491936 -0.00473149 160.09266853 -0.00442123 C160.77491841 -0.00426696 161.45716828 -0.00411268 162.16009239 -0.00395373 C166.87937359 -0.00310426 171.5986495 -0.00456834 176.31793022 -0.00690079 C192.93832488 -0.01377008 209.55794576 0.01409965 226.17797852 0.12939453 C227.17567214 0.13583386 228.17336576 0.1422732 229.20129251 0.14890766 C234.65763262 0.18700836 240.11277724 0.24758872 245.5683614 0.34687829 C247.13778104 0.37340873 248.70731599 0.39401287 250.27690017 0.40770125 C265.48360143 0.55414151 280.30493537 4.01125845 292.17797852 14.12939453 C292.17797852 14.78939453 292.17797852 15.44939453 292.17797852 16.12939453 C292.83797852 16.12939453 293.49797852 16.12939453 294.17797852 16.12939453 C305.54418313 28.92474865 310.50597952 42.35628321 310.43245411 59.37021351 C310.43566059 60.47613422 310.43886707 61.58205493 310.44217071 62.72148839 C310.45047602 66.4295162 310.44454443 70.13738273 310.43867493 73.84541321 C310.44169536 76.52987848 310.44550347 79.2143322 310.45026749 81.89879388 C310.45902228 87.7365853 310.46034417 93.57434163 310.45676422 99.41213799 C310.45145466 108.09332823 310.45755509 116.77448454 310.46584715 125.4556711 C310.48108797 141.86274379 310.48279213 158.26980104 310.48032413 174.67687932 C310.47849147 187.34675941 310.48025051 200.01663444 310.48454857 212.6865139 C310.48515097 214.50679277 310.48575217 216.32707164 310.48635217 218.14735052 C310.48725943 220.89034167 310.48816809 223.63333283 310.48908452 226.37632398 C310.49751424 251.87968646 310.50184962 277.38304704 310.4976778 302.88641071 C310.49752143 303.84785598 310.49736505 304.80930124 310.49720394 305.79988121 C310.49639815 310.67286181 310.49555238 315.54584239 310.49469063 320.41882298 C310.494434 321.87050543 310.494434 321.87050543 310.49417219 323.35151479 C310.49382553 325.30861784 310.493477 327.26572089 310.4931266 329.22282395 C310.48776934 359.67566036 310.49569987 390.12846782 310.51416016 420.58129883 C310.53487668 454.79617359 310.54560353 489.01103041 310.54158467 523.2259118 C310.54118932 526.87421715 310.54082778 530.52252251 310.54048729 534.17082787 C310.54039656 535.06913125 310.54030583 535.96743463 310.54021234 536.89295933 C310.53904643 550.45303891 310.54569423 564.01310038 310.55629921 577.57317543 C310.56834816 592.99530701 310.56991368 608.41739869 310.55750904 623.83953086 C310.55087884 632.46872265 310.55251522 641.09781905 310.56609756 649.72700321 C310.57434229 655.49398042 310.57164419 661.26088618 310.56012229 667.02785758 C310.55386608 670.3117521 310.55392512 673.59542383 310.56398562 676.87931434 C310.57408968 680.4233999 310.56567064 683.96698646 310.55270863 687.51105213 C310.56001797 688.52138422 310.56732732 689.53171631 310.57485816 690.57266453 C310.46285264 705.36116844 305.61694322 718.25948226 295.43188477 729.06298828 C285.12729821 738.51034753 272.72370759 742.10286813 259.17797852 744.12939453 C259.17797852 744.45939453 259.17797852 744.78939453 259.17797852 745.12939453 C254.22797852 745.12939453 249.27797852 745.12939453 244.17797852 745.12939453 C244.17797852 744.79939453 244.17797852 744.46939453 244.17797852 744.12939453 C241.20797852 744.12939453 238.23797852 744.12939453 235.17797852 744.12939453 C235.17797852 744.45939453 235.17797852 744.78939453 235.17797852 745.12939453 C201.68145984 746.82519243 201.68145984 746.82519243 195.17797852 744.12939453 C192.39782259 743.78876281 190.00627461 743.94393249 187.17797852 744.12939453 C186.51797852 744.78939453 185.85797852 745.44939453 185.17797852 746.12939453 C183.14884949 746.37663269 183.14884949 746.37663269 180.62402344 746.37231445 C179.67931686 746.37539108 178.73461029 746.37846771 177.76127625 746.38163757 C176.73734268 746.37445206 175.71340912 746.36726654 174.65844727 746.35986328 C173.08236443 746.35917595 173.08236443 746.35917595 171.47444153 746.35847473 C169.247598 746.3554492 167.02075665 746.34755398 164.79394531 746.33520508 C161.38997872 746.31702538 157.98628532 746.31469486 154.58227539 746.31494141 C152.42016367 746.31002321 150.25805379 746.30419359 148.09594727 746.29736328 C147.0780864 746.29625046 146.06022552 746.29513763 145.01152039 746.29399109 C144.05735733 746.28761124 143.10319427 746.28123138 142.12011719 746.2746582 C141.28453781 746.27084641 140.44895844 746.26703461 139.58805847 746.2631073 C137.0393094 746.12170108 134.66913488 745.67206056 132.17797852 745.12939453 C131.03348648 745.11019006 131.03348648 745.11019006 129.33007812 745.34375 C122.45115792 746.12790418 115.65937601 746.27994123 108.74047852 746.25439453 C107.66604492 746.25826172 106.59161133 746.26212891 105.48461914 746.26611328 C104.4565918 746.26482422 103.42856445 746.26353516 102.36938477 746.26220703 C101.44327393 746.2610791 100.51716309 746.25995117 99.56298828 746.25878906 C97.17797852 746.12939453 97.17797852 746.12939453 94.17797852 745.12939453 C93.84797852 745.78939453 93.51797852 746.44939453 93.17797852 747.12939453 C92.84797852 746.79939453 92.51797852 746.46939453 92.17797852 746.12939453 C89.64275314 746.05314715 87.13454021 746.03865137 84.59985352 746.06689453 C83.83626526 746.07068115 83.072677 746.07446777 82.28594971 746.07836914 C79.00851983 746.09475253 75.73121291 746.12273658 72.45385742 746.14990234 C70.0650287 746.16803931 67.67622069 746.18010725 65.28735352 746.19189453 C64.55071472 746.20019287 63.81407593 746.20849121 63.05511475 746.21704102 C59.29080904 746.23487772 55.83969463 746.01307709 52.17797852 745.12939453 C50.80904612 745.0766899 50.80904612 745.0766899 48.17797852 746.12939453 C46.03833444 746.14536604 43.89794136 746.09536587 41.76000977 746.00830078 C39.87958984 745.93579102 39.87958984 745.93579102 37.96118164 745.86181641 C36.65084961 745.80574219 35.34051758 745.74966797 33.99047852 745.69189453 C32.65521222 745.63865218 31.31992579 745.58591193 29.98461914 745.53369141 C26.71550707 745.40387107 23.44668932 745.26889917 20.17797852 745.12939453 C20.17797852 744.79939453 20.17797852 744.46939453 20.17797852 744.12939453 C19.62110352 744.14099609 19.06422852 744.15259766 18.49047852 744.16455078 C13.28019509 744.22615886 8.33418342 743.87938797 3.17797852 743.12939453 C3.17797852 742.46939453 3.17797852 741.80939453 3.17797852 741.12939453 C4.02360352 740.65501953 4.86922852 740.18064453 5.74047852 739.69189453 C13.61570235 734.66515592 17.95828001 723.86318311 20.17797852 715.12939453 C21.0851196 710.15945927 21.66264122 705.15393319 22.17797852 700.12939453 C21.84797852 700.12939453 21.51797852 700.12939453 21.17797852 700.12939453 C21.17797852 637.7960612 21.17797852 575.46272786 21.17797852 513.12939453 C21.50797852 513.12939453 21.83797852 513.12939453 22.17797852 513.12939453 C22.17797852 507.51939453 22.17797852 501.90939453 22.17797852 496.12939453 C21.84797852 496.12939453 21.51797852 496.12939453 21.17797852 496.12939453 C21.17797852 421.46272786 21.17797852 346.7960612 21.17797852 272.12939453 C21.50797852 272.12939453 21.83797852 272.12939453 22.17797852 272.12939453 C22.27185888 257.91591879 22.34190316 243.70249187 22.3852272 229.48876858 C22.40602914 222.88750328 22.43421119 216.28644749 22.47973633 209.68530273 C22.52345827 203.30509976 22.54717111 196.92509726 22.55748749 190.54475594 C22.56483175 188.12050283 22.57917228 185.69625969 22.60089874 183.27209282 C22.7821845 162.19076833 21.30226084 143.55335152 6.11547852 127.31689453 C-5.82839368 116.09292696 -21.40213006 109.14069458 -37.88745117 108.93994141 C-39.64892487 108.91486511 -39.64892487 108.91486511 -41.44598389 108.88928223 C-42.69929504 108.87570679 -43.9526062 108.86213135 -45.24389648 108.84814453 C-47.22411376 108.82002318 -49.20433097 108.79189655 -51.18454361 108.76345062 C-55.3510521 108.70505856 -59.51766571 108.65474229 -63.68426514 108.60333252 C-67.12779302 108.56057868 -70.57127241 108.5160025 -74.01470947 108.46643066 C-76.59436204 108.42968817 -79.17408039 108.3972706 -81.75384521 108.36950684 C-83.49640594 108.34443054 -83.49640594 108.34443054 -85.27416992 108.31884766 C-86.81255524 108.30005554 -86.81255524 108.30005554 -88.38201904 108.28088379 C-90.82202148 108.12939453 -90.82202148 108.12939453 -92.82202148 107.12939453 C-92.8920776 99.7917179 -92.94511103 92.45411546 -92.977458 85.11616993 C-92.99299679 81.70745189 -93.01401382 78.29896559 -93.04833984 74.89038086 C-93.08770732 70.95575913 -93.10182797 67.0212254 -93.11499023 63.08642578 C-93.13047409 61.88484329 -93.14595795 60.6832608 -93.16191101 59.44526672 C-93.16517296 42.74315341 -88.7132312 28.47758496 -77.07202148 16.26611328 C-69.55693922 9.12939453 -69.55693922 9.12939453 -65.82202148 9.12939453 C-65.49202148 8.13939453 -65.16202148 7.14939453 -64.82202148 6.12939453 C-63.83202148 6.12939453 -62.84202148 6.12939453 -61.82202148 6.12939453 C-61.40952148 5.65501953 -60.99702148 5.18064453 -60.57202148 4.69189453 C-57.92675476 2.33004924 -55.2900918 2.48207965 -51.82202148 2.12939453 C-50.94826653 1.96809492 -50.07451159 1.80679531 -49.17427921 1.64060783 C-44.94976665 0.99637723 -40.7644632 0.76800128 -36.49839783 0.57498169 C-35.58075557 0.53285431 -34.66311331 0.49072693 -33.71766371 0.44732296 C-22.48038302 -0.02438283 -11.24517405 -0.01078435 0 0 Z M51.17797852 41.12939453 C48.4396793 44.61450263 47.95554504 47.37955516 48.17797852 51.69189453 C48.70301873 54.93511166 49.29378006 56.30309685 51.17797852 59.12939453 C57.35926632 63.25025307 65.85661539 62.28127209 73.0847168 62.29052734 C74.50359695 62.2979747 74.50359695 62.2979747 75.95114136 62.30557251 C79.05019887 62.32006408 82.14920533 62.32697149 85.24829102 62.33251953 C86.84459162 62.3367606 86.84459162 62.3367606 88.47314072 62.34108734 C94.09627273 62.35602116 99.71937943 62.36528938 105.3425293 62.36962891 C111.14063109 62.37512899 116.93849988 62.39920597 122.7365284 62.42760086 C127.2078418 62.4462354 131.67909889 62.45143311 136.15044785 62.45296478 C138.28822997 62.45598605 140.42601124 62.46399676 142.56375504 62.47714996 C145.55269422 62.4942399 148.54106083 62.49232378 151.5300293 62.48583984 C152.84562836 62.49966202 152.84562836 62.49966202 154.18780518 62.51376343 C160.27021647 62.47251435 165.48801605 61.72969158 170.05297852 57.31689453 C171.53153423 54.44192508 172.05059794 52.37759915 172.17797852 49.12939453 C170.71995172 44.60183763 169.43875493 41.45345439 165.17797852 39.12939453 C162.35507623 38.27724491 159.82066514 38.00081004 156.878479 37.98895264 C156.02629791 37.98324249 155.17411682 37.97753235 154.29611206 37.97164917 C153.36928619 37.97053131 152.44246033 37.96941345 151.48754883 37.96826172 C150.50495087 37.96329681 149.52235291 37.95833191 148.50997925 37.95321655 C145.25868021 37.93860974 142.00742998 37.93179506 138.75610352 37.92626953 C136.49412027 37.92051648 134.23213703 37.91475877 131.97015381 37.90899658 C127.22562432 37.89849054 122.48111175 37.8926454 117.73657227 37.88916016 C111.66602534 37.88367894 105.59570311 37.859657 99.52522659 37.8311882 C94.8514135 37.81253578 90.17765423 37.80735481 85.50380707 37.80582428 C83.26637291 37.80280268 81.02893959 37.79479085 78.79154205 37.7816391 C75.65618455 37.7645259 72.52137199 37.76647201 69.38598633 37.77294922 C68.00789291 37.75912704 68.00789291 37.75912704 66.60195923 37.74502563 C60.79308815 37.78249173 56.45834184 38.64602198 51.17797852 41.12939453 Z M22.17797852 328.12939453 C22.17797852 332.41939453 22.17797852 336.70939453 22.17797852 341.12939453 C22.50797852 341.12939453 22.83797852 341.12939453 23.17797852 341.12939453 C23.17797852 336.83939453 23.17797852 332.54939453 23.17797852 328.12939453 C22.84797852 328.12939453 22.51797852 328.12939453 22.17797852 328.12939453 Z M22.17797852 420.12939453 C22.17797852 433.65939453 22.17797852 447.18939453 22.17797852 461.12939453 C22.50797852 461.12939453 22.83797852 461.12939453 23.17797852 461.12939453 C23.17797852 447.59939453 23.17797852 434.06939453 23.17797852 420.12939453 C22.84797852 420.12939453 22.51797852 420.12939453 22.17797852 420.12939453 Z M22.17797852 568.12939453 C23.17797852 571.12939453 23.17797852 571.12939453 23.17797852 571.12939453 Z M22.17797852 572.12939453 C22.17797852 574.43939453 22.17797852 576.74939453 22.17797852 579.12939453 C22.50797852 579.12939453 22.83797852 579.12939453 23.17797852 579.12939453 C23.17797852 576.81939453 23.17797852 574.50939453 23.17797852 572.12939453 C22.84797852 572.12939453 22.51797852 572.12939453 22.17797852 572.12939453 Z M22.17797852 582.12939453 C22.17797852 584.76939453 22.17797852 587.40939453 22.17797852 590.12939453 C22.50797852 590.12939453 22.83797852 590.12939453 23.17797852 590.12939453 C23.17797852 587.48939453 23.17797852 584.84939453 23.17797852 582.12939453 C22.84797852 582.12939453 22.51797852 582.12939453 22.17797852 582.12939453 Z M22.17797852 636.12939453 C22.17797852 642.06939453 22.17797852 648.00939453 22.17797852 654.12939453 C22.50797852 654.12939453 22.83797852 654.12939453 23.17797852 654.12939453 C23.17797852 648.18939453 23.17797852 642.24939453 23.17797852 636.12939453 C22.84797852 636.12939453 22.51797852 636.12939453 22.17797852 636.12939453 Z M28.17797852 743.12939453 C28.17797852 743.45939453 28.17797852 743.78939453 28.17797852 744.12939453 C30.48797852 744.12939453 32.79797852 744.12939453 35.17797852 744.12939453 C35.17797852 743.79939453 35.17797852 743.46939453 35.17797852 743.12939453 C32.86797852 743.12939453 30.55797852 743.12939453 28.17797852 743.12939453 Z M36.17797852 743.12939453 C36.17797852 743.45939453 36.17797852 743.78939453 36.17797852 744.12939453 C40.46797852 744.12939453 44.75797852 744.12939453 49.17797852 744.12939453 C49.17797852 743.79939453 49.17797852 743.46939453 49.17797852 743.12939453 C44.88797852 743.12939453 40.59797852 743.12939453 36.17797852 743.12939453 Z M60.17797852 743.12939453 C60.17797852 743.45939453 60.17797852 743.78939453 60.17797852 744.12939453 C65.12797852 744.12939453 70.07797852 744.12939453 75.17797852 744.12939453 C75.17797852 743.79939453 75.17797852 743.46939453 75.17797852 743.12939453 C70.22797852 743.12939453 65.27797852 743.12939453 60.17797852 743.12939453 Z M76.17797852 743.12939453 C76.17797852 743.45939453 76.17797852 743.78939453 76.17797852 744.12939453 C89.04797852 744.12939453 101.91797852 744.12939453 115.17797852 744.12939453 C115.17797852 743.79939453 115.17797852 743.46939453 115.17797852 743.12939453 C102.30797852 743.12939453 89.43797852 743.12939453 76.17797852 743.12939453 Z M116.17797852 743.12939453 C116.17797852 743.45939453 116.17797852 743.78939453 116.17797852 744.12939453 C117.82797852 744.12939453 119.47797852 744.12939453 121.17797852 744.12939453 C121.17797852 743.79939453 121.17797852 743.46939453 121.17797852 743.12939453 C119.52797852 743.12939453 117.87797852 743.12939453 116.17797852 743.12939453 Z M140.17797852 743.12939453 C140.17797852 743.45939453 140.17797852 743.78939453 140.17797852 744.12939453 C142.48797852 744.12939453 144.79797852 744.12939453 147.17797852 744.12939453 C147.17797852 743.79939453 147.17797852 743.46939453 147.17797852 743.12939453 C144.86797852 743.12939453 142.55797852 743.12939453 140.17797852 743.12939453 Z M149.17797852 743.12939453 C149.17797852 743.45939453 149.17797852 743.78939453 149.17797852 744.12939453 C151.15797852 744.12939453 153.13797852 744.12939453 155.17797852 744.12939453 C155.17797852 743.79939453 155.17797852 743.46939453 155.17797852 743.12939453 C153.19797852 743.12939453 151.21797852 743.12939453 149.17797852 743.12939453 Z M156.17797852 743.12939453 C156.17797852 743.45939453 156.17797852 743.78939453 156.17797852 744.12939453 C158.48797852 744.12939453 160.79797852 744.12939453 163.17797852 744.12939453 C163.17797852 743.79939453 163.17797852 743.46939453 163.17797852 743.12939453 C160.86797852 743.12939453 158.55797852 743.12939453 156.17797852 743.12939453 Z M164.17797852 743.12939453 C164.17797852 743.45939453 164.17797852 743.78939453 164.17797852 744.12939453 C165.82797852 744.12939453 167.47797852 744.12939453 169.17797852 744.12939453 C169.17797852 743.79939453 169.17797852 743.46939453 169.17797852 743.12939453 C167.52797852 743.12939453 165.87797852 743.12939453 164.17797852 743.12939453 Z M196.17797852 743.12939453 C196.17797852 743.45939453 196.17797852 743.78939453 196.17797852 744.12939453 C203.76797852 744.12939453 211.35797852 744.12939453 219.17797852 744.12939453 C219.17797852 743.79939453 219.17797852 743.46939453 219.17797852 743.12939453 C211.58797852 743.12939453 203.99797852 743.12939453 196.17797852 743.12939453 Z " fill="#000000" transform="translate(506.822021484375,140.87060546875)"/>
<path d="M0 0 C2.19961214 -0.00243316 4.39922316 -0.00615753 6.59883118 -0.01106262 C12.52624641 -0.02040125 18.45349448 -0.01110686 24.38089657 0.00226951 C30.60657181 0.01365573 36.83223969 0.00947113 43.05792236 0.00752258 C54.17199463 0.00658588 65.2859949 0.01997076 76.40004793 0.03968398 C86.45437844 0.057187 96.50864458 0.06186708 106.56298828 0.05664062 C119.52976295 0.04992004 132.49649388 0.05324855 145.46326447 0.0657444 C150.39915843 0.07037341 155.33503189 0.07127165 160.27092743 0.06915855 C166.08559226 0.06726764 171.90016082 0.07544116 177.7148037 0.09121895 C179.84157348 0.09544156 181.96835306 0.09632607 184.0951252 0.09352875 C202.30894852 0.07321544 219.70256799 0.13678182 233.71972656 13.37231445 C243.36949647 23.97561894 247.04614659 34.72884667 246.97699547 48.92366409 C246.98050154 49.84694085 246.98400762 50.7702176 246.98761994 51.72147244 C246.99690694 54.8082111 246.99201756 57.89475998 246.9871521 60.98150635 C246.99088971 63.219777 246.99549167 65.45804634 247.00088274 67.69631362 C247.01311433 73.84195104 247.01285208 79.98753404 247.01049399 86.13318086 C247.0101278 92.08210027 247.01911076 98.03100376 247.02771977 103.97991533 C247.04704795 117.64838913 247.05268754 131.31684791 247.05383389 144.98533377 C247.05475344 155.54183796 247.05887258 166.09833628 247.06523514 176.65483856 C247.06703026 179.69498944 247.06880989 182.73514032 247.07058489 185.7752912 C247.07124804 186.90901917 247.07124804 186.90901917 247.07192458 188.06565073 C247.08423061 209.321488 247.09212594 230.57732323 247.09123802 251.83316422 C247.09119129 253.03492092 247.09119129 253.03492092 247.09114361 254.26095554 C247.09097739 258.32150085 247.09077931 262.38204615 247.09057419 266.44259146 C247.0905343 267.24901107 247.09049441 268.05543069 247.09045331 268.88628726 C247.09037244 270.51706371 247.09028884 272.14784017 247.09020253 273.77861662 C247.08897708 299.14955314 247.10399001 324.5204362 247.13134766 349.89135742 C247.16208085 378.40434491 247.17927942 406.91729728 247.17742121 435.43030238 C247.17727195 438.47171068 247.17717454 441.51311898 247.17711258 444.55452728 C247.17708927 445.30338299 247.17706596 446.0522387 247.17704195 446.82378701 C247.17698045 458.8648736 247.18974176 470.90591371 247.20697711 482.94698649 C247.22394572 495.05221583 247.22589781 507.15737729 247.21275847 519.26261196 C247.20602625 525.81809657 247.20612566 532.37344681 247.22346497 538.92891884 C247.23918335 544.93334857 247.23634422 550.9374766 247.2188967 556.94189891 C247.21582415 559.11075801 247.21946872 561.27963955 247.23061685 563.44847217 C247.31287946 580.59165608 245.88032725 594.98278582 233.91113281 608.3996582 C223.027272 618.74045735 209.82300928 621.58631796 195.42285156 622.58325195 C194.46378906 622.65801758 193.50472656 622.7327832 192.51660156 622.80981445 C191.64358398 622.87040039 190.77056641 622.93098633 189.87109375 622.9934082 C187.51291097 623.19663797 187.51291097 623.19663797 185.71972656 625.37231445 C182.77946472 625.61955261 182.77946472 625.61955261 178.96264648 625.61523438 C178.26812881 625.61713272 177.57361115 625.61903107 176.85804749 625.62098694 C174.55531629 625.62470025 172.25289864 625.61397959 169.95019531 625.6027832 C168.35077451 625.60159118 166.75135299 625.60113829 165.15193176 625.60139465 C161.79517246 625.59982862 158.43851962 625.59153241 155.08178711 625.578125 C150.78438272 625.56117612 146.48709587 625.55730948 142.18966198 625.55807018 C138.88421003 625.55779779 135.57878365 625.55230471 132.27334023 625.54506874 C130.68934637 625.54189129 129.10534963 625.53991683 127.52135277 625.53917503 C125.30251551 625.53699933 123.08380098 625.52822745 120.86499023 625.51757812 C118.97208504 625.51186043 118.97208504 625.51186043 117.04093933 625.50602722 C114.13237645 625.38892783 111.54620461 625.02809389 108.71972656 624.37231445 C107.15883655 624.37231445 105.60112477 624.51865783 104.04394531 624.6262207 C103.29822266 624.67584961 102.5525 624.72547852 101.78417969 624.77661133 C100.21094558 624.88132124 98.63801014 624.99062916 97.06542969 625.10473633 C96.31583984 625.15307617 95.56625 625.20141602 94.79394531 625.2512207 C94.10905029 625.29835205 93.42415527 625.3454834 92.71850586 625.39404297 C90.57445286 625.3707352 88.7726321 624.96931972 86.71972656 624.37231445 C86.38972656 625.03231445 86.05972656 625.69231445 85.71972656 626.37231445 C85.09735107 626.20787842 84.47497559 626.04344238 83.83374023 625.87402344 C79.50492635 625.176594 75.27171976 625.28988633 70.89550781 625.3449707 C68.96126475 625.35760755 67.02701987 625.36996919 65.09277344 625.38208008 C62.05096767 625.4069826 59.00925629 625.43506514 55.9675293 625.46826172 C53.0268491 625.49834359 50.08629211 625.51619315 47.14550781 625.5324707 C46.23094315 625.54593033 45.31637848 625.55938995 44.37409973 625.57325745 C43.52949692 625.5766362 42.6848941 625.58001495 41.81469727 625.58349609 C41.07032913 625.59095352 40.325961 625.59841095 39.55903625 625.60609436 C37.71972656 625.37231445 37.71972656 625.37231445 35.71972656 623.37231445 C34.72972656 624.03231445 33.73972656 624.69231445 32.71972656 625.37231445 C29.72056781 625.56885901 26.81651805 625.65227599 23.81738281 625.63793945 C22.50621742 625.64080963 22.50621742 625.64080963 21.16856384 625.64373779 C19.32013664 625.64509858 17.47169985 625.64140958 15.62329102 625.63305664 C12.79649313 625.6223684 9.97033262 625.63294885 7.14355469 625.64575195 C5.34732933 625.64443009 3.55110436 625.64186713 1.75488281 625.63793945 C0.90998795 625.64198792 0.06509308 625.64603638 -0.80540466 625.65020752 C-1.59624954 625.6439032 -2.38709442 625.63759888 -3.2019043 625.63110352 C-3.89456894 625.62951233 -4.58723358 625.62792114 -5.30088806 625.62628174 C-7.62809729 625.32768652 -9.20020214 624.43322788 -11.28027344 623.37231445 C-14.12254163 623.01418866 -16.92851858 622.73030965 -19.78027344 622.49731445 C-35.10328257 620.97959227 -48.46723106 616.0294819 -58.49902344 603.7980957 C-69.88291598 588.29503152 -69.72548889 571.08103929 -69.65449524 552.6181488 C-69.6572404 550.44950814 -69.66129638 548.28086881 -69.66653889 546.11223274 C-69.67706756 540.19146236 -69.66903462 534.27084424 -69.6577884 528.35008061 C-69.64891138 521.94987233 -69.65739998 515.54968322 -69.66365051 509.1494751 C-69.67257357 497.34954773 -69.66799147 485.54967524 -69.65648669 473.74975146 C-69.64593006 462.84743118 -69.64141381 451.94512816 -69.64278221 441.04280281 C-69.64286624 440.31824746 -69.64295027 439.5936921 -69.64303685 438.84718053 C-69.64338912 435.90562283 -69.64377314 432.96406514 -69.64420243 430.02250745 C-69.64816297 402.45717824 -69.6354707 374.89187954 -69.61467586 347.32655906 C-69.59630597 322.86076475 -69.59049455 298.39499968 -69.59594727 273.92919922 C-69.5962937 272.35799916 -69.5966398 270.78679911 -69.59698556 269.21559905 C-69.59715655 268.43881026 -69.59732755 267.66202146 -69.59750372 266.86169361 C-69.59835733 262.95105918 -69.59918111 259.04042475 -69.59997272 255.12979031 C-69.60012981 254.35820329 -69.60028689 253.58661628 -69.60044873 252.79164784 C-69.60444262 232.31950305 -69.59895806 211.84736106 -69.59046143 191.37521797 C-69.58955444 189.17127903 -69.58864879 186.96734009 -69.5877462 184.76340115 C-69.58714509 183.30150456 -69.58653647 181.83960797 -69.58592029 180.37771139 C-69.58170632 170.20483405 -69.58111757 160.03196225 -69.58302579 149.85908432 C-69.58547318 136.74720347 -69.58114761 123.63535695 -69.56581578 110.52348357 C-69.55858596 104.2046952 -69.55448274 97.88594764 -69.55905914 91.56715584 C-69.56315059 85.77700377 -69.55792741 79.98693578 -69.54543307 74.19679642 C-69.54251752 72.10819451 -69.54291986 70.0195846 -69.54707614 67.93098479 C-69.60430227 36.28804738 -69.60430227 36.28804738 -63.28027344 25.37231445 C-62.85875 24.62594727 -62.43722656 23.87958008 -62.00292969 23.1105957 C-55.74105957 12.89386025 -46.66453257 5.58417663 -35.03255844 2.51553059 C-23.31958073 0.119927 -11.92454389 -0.04662366 0 0 Z M44.84472656 33.05981445 C42.52505025 37.82803799 42.17450158 41.76692979 43.84472656 46.68481445 C45.98316511 49.74990971 47.34948964 50.78733037 50.71972656 52.37231445 C53.43293547 52.63562773 55.90482452 52.74717454 58.61035156 52.70043945 C59.35557068 52.69856628 60.10078979 52.69669312 60.86859131 52.69476318 C62.43522655 52.68806728 64.00184576 52.67420193 65.56835938 52.65356445 C67.97574254 52.62223616 70.38247167 52.61257353 72.79003906 52.60668945 C74.31348461 52.59752581 75.83692348 52.58715208 77.36035156 52.57543945 C78.44464447 52.56906464 78.44464447 52.56906464 79.55084229 52.56256104 C82.92204982 52.80656843 82.92204982 52.80656843 85.71972656 51.37231445 C85.71972656 51.70231445 85.71972656 52.03231445 85.71972656 52.37231445 C86.85410156 52.37231445 87.98847656 52.37231445 89.15722656 52.37231445 C109.71972656 52.37231445 109.71972656 52.37231445 111.49804688 52.41992188 C113.98849714 52.4825797 116.47879126 52.52129483 118.96972656 52.55981445 C119.82953125 52.58495117 120.68933594 52.61008789 121.57519531 52.63598633 C126.45143221 52.69233729 129.79248107 52.61190996 133.71972656 49.37231445 C136.09649842 45.96560812 136.973477 43.39792988 136.65722656 39.30981445 C135.94954341 35.41383247 134.72553512 33.06172211 131.71972656 30.37231445 C126.88208634 28.68485947 122.62454998 28.11686609 117.51855469 28.09765625 C116.83627304 28.09254532 116.15399139 28.08743439 115.45103455 28.08216858 C113.21759024 28.06837907 110.98445812 28.06922088 108.75097656 28.0715332 C107.18591194 28.06764109 105.62084836 28.06330536 104.05578613 28.05854797 C100.7843889 28.05110916 97.51309964 28.05136048 94.24169922 28.05664062 C90.0621984 28.06243941 85.88314014 28.04548328 81.70371246 28.02229595 C78.47452233 28.00752371 75.24543803 28.00669152 72.01622009 28.00980568 C70.47573468 28.00929446 68.93524303 28.00409433 67.39479065 27.99399376 C65.23653825 27.98157492 63.07913849 27.98845197 60.92089844 28 C59.69624878 27.99937057 58.47159912 27.99874115 57.20983887 27.99809265 C52.47782856 28.50547501 48.45487508 29.81068079 44.84472656 33.05981445 Z M13.71972656 622.37231445 C13.71972656 622.70231445 13.71972656 623.03231445 13.71972656 623.37231445 C17.67972656 623.37231445 21.63972656 623.37231445 25.71972656 623.37231445 C25.71972656 623.04231445 25.71972656 622.71231445 25.71972656 622.37231445 C21.75972656 622.37231445 17.79972656 622.37231445 13.71972656 622.37231445 Z M52.71972656 622.37231445 C52.71972656 622.70231445 52.71972656 623.03231445 52.71972656 623.37231445 C57.00972656 623.37231445 61.29972656 623.37231445 65.71972656 623.37231445 C65.71972656 623.04231445 65.71972656 622.71231445 65.71972656 622.37231445 C61.42972656 622.37231445 57.13972656 622.37231445 52.71972656 622.37231445 Z M66.71972656 622.37231445 C66.71972656 622.70231445 66.71972656 623.03231445 66.71972656 623.37231445 C68.36972656 623.37231445 70.01972656 623.37231445 71.71972656 623.37231445 C71.71972656 623.04231445 71.71972656 622.71231445 71.71972656 622.37231445 C70.06972656 622.37231445 68.41972656 622.37231445 66.71972656 622.37231445 Z M77.71972656 622.37231445 C77.71972656 622.70231445 77.71972656 623.03231445 77.71972656 623.37231445 C79.69972656 623.37231445 81.67972656 623.37231445 83.71972656 623.37231445 C83.71972656 623.04231445 83.71972656 622.71231445 83.71972656 622.37231445 C81.73972656 622.37231445 79.75972656 622.37231445 77.71972656 622.37231445 Z M84.71972656 622.37231445 C84.71972656 622.70231445 84.71972656 623.03231445 84.71972656 623.37231445 C87.02972656 623.37231445 89.33972656 623.37231445 91.71972656 623.37231445 C91.71972656 623.04231445 91.71972656 622.71231445 91.71972656 622.37231445 C89.40972656 622.37231445 87.09972656 622.37231445 84.71972656 622.37231445 Z M148.71972656 622.37231445 C148.71972656 622.70231445 148.71972656 623.03231445 148.71972656 623.37231445 C150.36972656 623.37231445 152.01972656 623.37231445 153.71972656 623.37231445 C153.71972656 623.04231445 153.71972656 622.71231445 153.71972656 622.37231445 C152.06972656 622.37231445 150.41972656 622.37231445 148.71972656 622.37231445 Z M154.71972656 622.37231445 C154.71972656 622.70231445 154.71972656 623.03231445 154.71972656 623.37231445 C160.32972656 623.37231445 165.93972656 623.37231445 171.71972656 623.37231445 C171.71972656 623.04231445 171.71972656 622.71231445 171.71972656 622.37231445 C166.10972656 622.37231445 160.49972656 622.37231445 154.71972656 622.37231445 Z " fill="#000000" transform="translate(266.2802734375,261.627685546875)"/>
<path d="M0 0 C337.92 0 675.84 0 1024 0 C1024 337.92 1024 675.84 1024 1024 C686.08 1024 348.16 1024 0 1024 C0 686.08 0 348.16 0 0 Z M1 1 C1 338.26 1 675.52 1 1023 C338.26 1023 675.52 1023 1023 1023 C1023 685.74 1023 348.48 1023 1 C685.74 1 348.48 1 1 1 Z " fill="#B7B6B6" transform="translate(0,0)"/>
<path d="M0 0 C0.66 0 1.32 0 2 0 C2 0.66 2 1.32 2 2 C2.83402344 1.91621094 3.66804688 1.83242188 4.52734375 1.74609375 C11.23795059 1.1388338 17.33716455 0.98363527 24 2 C20.05835609 4.62776261 16.67083469 4.28748581 12.09765625 4.265625 C10.78649086 4.26849518 10.78649086 4.26849518 9.44883728 4.27142334 C7.60041008 4.27278412 5.75197328 4.26909513 3.90356445 4.26074219 C1.07676656 4.25005394 -1.74939395 4.26063439 -4.57617188 4.2734375 C-6.37239723 4.27211563 -8.1686222 4.26955268 -9.96484375 4.265625 C-10.80973862 4.26967346 -11.65463348 4.27372192 -12.52513123 4.27789307 C-13.3159761 4.27158875 -14.10682098 4.26528442 -14.92163086 4.25878906 C-15.6142955 4.25719788 -16.30696014 4.25560669 -17.02061462 4.25396729 C-19 4 -19 4 -23 2 C-15.41 2 -7.82 2 0 2 C0 1.34 0 0.68 0 0 Z " fill="#0B0B0A" transform="translate(278,883)"/>
<path d="M0 0 C0.33 0 0.66 0 1 0 C1 12.54 1 25.08 1 38 C0.67 38 0.34 38 0 38 C0 25.46 0 12.92 0 0 Z " fill="#020202" transform="translate(528,374)"/>
<path d="M0 0 C0.33 0 0.66 0 1 0 C1 10.23 1 20.46 1 31 C0.67 31 0.34 31 0 31 C0 20.77 0 10.54 0 0 Z " fill="#020202" transform="translate(528,342)"/>
<path d="M0 0 C0.33 0 0.66 0 1 0 C1 10.23 1 20.46 1 31 C0.67 31 0.34 31 0 31 C0 20.77 0 10.54 0 0 Z " fill="#030302" transform="translate(528,310)"/>
<path d="M0 0 C0.33 0 0.66 0 1 0 C1 4.29 1 8.58 1 13 C0.67 13 0.34 13 0 13 C0 8.71 0 4.42 0 0 Z " fill="#020302" transform="translate(528,639)"/>
<path d="M0 0 C2.31 0 4.62 0 7 0 C6.67 0.66 6.34 1.32 6 2 C4.35 2 2.7 2 1 2 C0.67 1.34 0.34 0.68 0 0 Z " fill="#090807" transform="translate(695,885)"/>
<path d="M0 0 C2.31 0 4.62 0 7 0 C7 0.33 7 0.66 7 1 C4.69 1 2.38 1 0 1 C0 0.67 0 0.34 0 0 Z " fill="#0A0A09" transform="translate(455,885)"/>
<path d="M0 0 C1.98 0 3.96 0 6 0 C6 0.33 6 0.66 6 1 C4.02 1 2.04 1 0 1 C0 0.67 0 0.34 0 0 Z " fill="#0A0A0A" transform="translate(520,885)"/>
<path d="M0 0 C1.98 0 3.96 0 6 0 C6 0.33 6 0.66 6 1 C4.02 1 2.04 1 0 1 C0 0.67 0 0.34 0 0 Z " fill="#0F0E0E" transform="translate(248,885)"/>
<path d="M0 0 C1.98 0 3.96 0 6 0 C6 0.33 6 0.66 6 1 C4.02 1 2.04 1 0 1 C0 0.67 0 0.34 0 0 Z " fill="#0A0A08" transform="translate(626,201)"/>
<path d="M0 0 C1.65 0 3.3 0 5 0 C5 0.33 5 0.66 5 1 C3.35 1 1.7 1 0 1 C0 0.67 0 0.34 0 0 Z " fill="#0A0A09" transform="translate(743,885)"/>
<path d="M0 0 C1.65 0 3.3 0 5 0 C5 0.33 5 0.66 5 1 C3.35 1 1.7 1 0 1 C0 0.67 0 0.34 0 0 Z " fill="#060606" transform="translate(334,312)"/>
<path d="M0 0 C1.65 0 3.3 0 5 0 C5 0.33 5 0.66 5 1 C3.35 1 1.7 1 0 1 C0 0.67 0 0.34 0 0 Z " fill="#090B09" transform="translate(633,201)"/>
<path d="M0 0 C4 1 4 1 4 1 Z " fill="#0C0B0A" transform="translate(463,885)"/>
<path d="M0 0 C4 1 4 1 4 1 Z " fill="#070606" transform="translate(390,312)"/>
<path d="M0 0 C4 1 4 1 4 1 Z " fill="#060506" transform="translate(366,312)"/>
<path d="M0 0 C4 1 4 1 4 1 Z " fill="#070707" transform="translate(317,312)"/>
<path d="M0 0 C1 4 1 4 1 4 Z " fill="#0A0A09" transform="translate(412,220)"/>
<path d="M0 0 C1 4 1 4 1 4 Z " fill="#0B0B0A" transform="translate(412,204)"/>
<path d="M0 0 C3 1 3 1 3 1 Z " fill="#0B0B0A" transform="translate(513,885)"/>
<path d="M0 0 C3 1 3 1 3 1 Z " fill="#050706" transform="translate(347,312)"/>
<path d="M0 0 C3 1 3 1 3 1 Z " fill="#060605" transform="translate(342,312)"/>
<path d="M0 0 C3 1 3 1 3 1 Z " fill="#060606" transform="translate(324,312)"/>
<path d="" fill="#050506" transform="translate(0,0)"/>
<path d="M0 0 C3 1 3 1 3 1 Z " fill="#0A0A08" transform="translate(646,201)"/>
<path d="M0 0 C3 1 3 1 3 1 Z " fill="#090B0A" transform="translate(598,201)"/>
<path d="M0 0 C3 1 3 1 3 1 Z " fill="#0C0C0B" transform="translate(587,201)"/>
<path d="M0 0 C3 1 3 1 3 1 Z " fill="#131213" transform="translate(432,152)"/>
<path d="M0 0 C2 1 2 1 2 1 Z " fill="#10100D" transform="translate(768,885)"/>
<path d="M0 0 C2 1 2 1 2 1 Z " fill="#10100F" transform="translate(778,883)"/>
<path d="" fill="#131313" transform="translate(0,0)"/>
<path d="" fill="#121514" transform="translate(0,0)"/>
<path d="M0 0 C2 1 2 1 2 1 Z " fill="#040504" transform="translate(384,312)"/>
<path d="" fill="#090A08" transform="translate(0,0)"/>
<path d="" fill="#040605" transform="translate(0,0)"/>
<path d="" fill="#070708" transform="translate(0,0)"/>
<path d="M0 0 C2 1 2 1 2 1 Z " fill="#0A0908" transform="translate(491,255)"/>
<path d="M0 0 C2 1 2 1 2 1 Z " fill="#0A0908" transform="translate(470,250)"/>
<path d="" fill="#080A09" transform="translate(0,0)"/>
<path d="" fill="#090909" transform="translate(0,0)"/>
<path d="" fill="#0A0B0A" transform="translate(0,0)"/>
<path d="" fill="#0A0B09" transform="translate(0,0)"/>
<path d="" fill="#0A0B0A" transform="translate(0,0)"/>
<path d="M0 0 C2 1 2 1 2 1 Z " fill="#0A0B08" transform="translate(651,201)"/>
<path d="M0 0 C2 1 2 1 2 1 Z " fill="#0A0B09" transform="translate(639,201)"/>
<path d="M0 0 C2 1 2 1 2 1 Z " fill="#0C0B09" transform="translate(610,201)"/>
<path d="M0 0 C2 1 2 1 2 1 Z " fill="#0A0B09" transform="translate(602,201)"/>
<path d="M0 0 C2 1 2 1 2 1 Z " fill="#0B0C0B" transform="translate(591,201)"/>
<path d="M0 0 C2 1 2 1 2 1 Z " fill="#0C0C0A" transform="translate(578,201)"/>
<path d="M0 0 C2 1 2 1 2 1 Z " fill="#141416" transform="translate(782,144)"/>
<path d="" fill="#2C2C2B" transform="translate(0,0)"/>
<path d="" fill="#0B0B0B" transform="translate(0,0)"/>
<path d="" fill="#0B0A0A" transform="translate(0,0)"/>
<path d="" fill="#0A0A0A" transform="translate(0,0)"/>
<path d="" fill="#09080A" transform="translate(0,0)"/>
<path d="" fill="#090B0B" transform="translate(0,0)"/>
<path d="" fill="#090A0A" transform="translate(0,0)"/>
<path d="" fill="#0D0D0B" transform="translate(0,0)"/>
<path d="" fill="#0D0C0B" transform="translate(0,0)"/>
<path d="" fill="#0B090A" transform="translate(0,0)"/>
<path d="" fill="#0A0D0B" transform="translate(0,0)"/>
<path d="" fill="#0F0F0F" transform="translate(0,0)"/>
<path d="" fill="#0D0C0D" transform="translate(0,0)"/>
<path d="" fill="#131414" transform="translate(0,0)"/>
<path d="" fill="#0C0D0C" transform="translate(0,0)"/>
<path d="" fill="#101212" transform="translate(0,0)"/>
<path d="" fill="#131213" transform="translate(0,0)"/>
<path d="" fill="#141615" transform="translate(0,0)"/>
<path d="" fill="#131613" transform="translate(0,0)"/>
<path d="" fill="#080808" transform="translate(0,0)"/>
<path d="" fill="#161614" transform="translate(0,0)"/>
<path d="" fill="#161516" transform="translate(0,0)"/>
<path d="" fill="#161515" transform="translate(0,0)"/>
<path d="" fill="#151414" transform="translate(0,0)"/>
<path d="" fill="#070708" transform="translate(0,0)"/>
<path d="" fill="#151514" transform="translate(0,0)"/>
<path d="" fill="#060707" transform="translate(0,0)"/>
<path d="" fill="#161715" transform="translate(0,0)"/>
<path d="" fill="#101011" transform="translate(0,0)"/>
<path d="" fill="#0E0F0E" transform="translate(0,0)"/>
<path d="" fill="#121413" transform="translate(0,0)"/>
<path d="" fill="#0F100F" transform="translate(0,0)"/>
<path d="" fill="#0F100F" transform="translate(0,0)"/>
<path d="" fill="#101011" transform="translate(0,0)"/>
<path d="" fill="#0F1010" transform="translate(0,0)"/>
<path d="" fill="#0A0C0B" transform="translate(0,0)"/>
<path d="" fill="#0F110F" transform="translate(0,0)"/>
<path d="" fill="#0C0D0C" transform="translate(0,0)"/>
<path d="" fill="#0E1110" transform="translate(0,0)"/>
<path d="" fill="#101010" transform="translate(0,0)"/>
<path d="" fill="#0F1010" transform="translate(0,0)"/>
<path d="" fill="#100F10" transform="translate(0,0)"/>
<path d="" fill="#0B0C0B" transform="translate(0,0)"/>
<path d="" fill="#0C0C0C" transform="translate(0,0)"/>
<path d="" fill="#0F1010" transform="translate(0,0)"/>
<path d="" fill="#101110" transform="translate(0,0)"/>
<path d="" fill="#10100F" transform="translate(0,0)"/>
<path d="" fill="#0F110F" transform="translate(0,0)"/>
<path d="" fill="#0F0F0F" transform="translate(0,0)"/>
<path d="" fill="#0F1110" transform="translate(0,0)"/>
<path d="" fill="#101010" transform="translate(0,0)"/>
<path d="" fill="#0B0D0B" transform="translate(0,0)"/>
<path d="" fill="#0C0B0D" transform="translate(0,0)"/>
<path d="" fill="#0F100F" transform="translate(0,0)"/>
<path d="" fill="#0B0B09" transform="translate(0,0)"/>
<path d="" fill="#0F1010" transform="translate(0,0)"/>
<path d="" fill="#101011" transform="translate(0,0)"/>
<path d="" fill="#0A0C0A" transform="translate(0,0)"/>
<path d="" fill="#101110" transform="translate(0,0)"/>
<path d="" fill="#101110" transform="translate(0,0)"/>
<path d="" fill="#0E1110" transform="translate(0,0)"/>
<path d="" fill="#0F1210" transform="translate(0,0)"/>
<path d="" fill="#110F10" transform="translate(0,0)"/>
<path d="" fill="#0B0C0B" transform="translate(0,0)"/>
<path d="" fill="#0B0D0D" transform="translate(0,0)"/>
<path d="" fill="#120F10" transform="translate(0,0)"/>
<path d="" fill="#101010" transform="translate(0,0)"/>
<path d="" fill="#0F1010" transform="translate(0,0)"/>
<path d="" fill="#10100F" transform="translate(0,0)"/>
<path d="" fill="#10110D" transform="translate(0,0)"/>
<path d="" fill="#101010" transform="translate(0,0)"/>
<path d="" fill="#101010" transform="translate(0,0)"/>
<path d="" fill="#101011" transform="translate(0,0)"/>
<path d="" fill="#111112" transform="translate(0,0)"/>
<path d="" fill="#100F11" transform="translate(0,0)"/>
<path d="" fill="#0B0C0C" transform="translate(0,0)"/>
<path d="" fill="#101210" transform="translate(0,0)"/>
<path d="" fill="#0F1011" transform="translate(0,0)"/>
<path d="" fill="#0F1010" transform="translate(0,0)"/>
<path d="" fill="#0F0F0E" transform="translate(0,0)"/>
<path d="" fill="#0E0F11" transform="translate(0,0)"/>
<path d="" fill="#0D0D0C" transform="translate(0,0)"/>
<path d="" fill="#0F1010" transform="translate(0,0)"/>
<path d="" fill="#0F100F" transform="translate(0,0)"/>
<path d="" fill="#0F110E" transform="translate(0,0)"/>
<path d="" fill="#0F100F" transform="translate(0,0)"/>
<path d="" fill="#0F0F0F" transform="translate(0,0)"/>
<path d="" fill="#0B0C0B" transform="translate(0,0)"/>
<path d="" fill="#0A0C0C" transform="translate(0,0)"/>
<path d="" fill="#0A0B0B" transform="translate(0,0)"/>
<path d="" fill="#0F1210" transform="translate(0,0)"/>
<path d="" fill="#0C0C0C" transform="translate(0,0)"/>
<path d="" fill="#0F1110" transform="translate(0,0)"/>
<path d="" fill="#0B0D0B" transform="translate(0,0)"/>
<path d="" fill="#111210" transform="translate(0,0)"/>
<path d="" fill="#101311" transform="translate(0,0)"/>
<path d="" fill="#121113" transform="translate(0,0)"/>
<path d="" fill="#050707" transform="translate(0,0)"/>
<path d="" fill="#040706" transform="translate(0,0)"/>
<path d="" fill="#070707" transform="translate(0,0)"/>
<path d="" fill="#060607" transform="translate(0,0)"/>
<path d="" fill="#060607" transform="translate(0,0)"/>
<path d="" fill="#070806" transform="translate(0,0)"/>
<path d="" fill="#050604" transform="translate(0,0)"/>
<path d="" fill="#050504" transform="translate(0,0)"/>
<path d="" fill="#090809" transform="translate(0,0)"/>
<path d="" fill="#0A0808" transform="translate(0,0)"/>
<path d="" fill="#080809" transform="translate(0,0)"/>
<path d="" fill="#0A0708" transform="translate(0,0)"/>
<path d="" fill="#141213" transform="translate(0,0)"/>
<path d="" fill="#080707" transform="translate(0,0)"/>
<path d="" fill="#0A0909" transform="translate(0,0)"/>
<path d="" fill="#0A0A0B" transform="translate(0,0)"/>
<path d="" fill="#111212" transform="translate(0,0)"/>
<path d="" fill="#080705" transform="translate(0,0)"/>
<path d="" fill="#090607" transform="translate(0,0)"/>
<path d="" fill="#131412" transform="translate(0,0)"/>
<path d="" fill="#131412" transform="translate(0,0)"/>
<path d="" fill="#090A08" transform="translate(0,0)"/>
<path d="" fill="#040706" transform="translate(0,0)"/>
<path d="" fill="#171515" transform="translate(0,0)"/>
<path d="" fill="#0D0C0D" transform="translate(0,0)"/>
<path d="" fill="#0B0A09" transform="translate(0,0)"/>
<path d="" fill="#0B0B09" transform="translate(0,0)"/>
<path d="" fill="#0B0A08" transform="translate(0,0)"/>
<path d="" fill="#0C0A08" transform="translate(0,0)"/>
<path d="" fill="#0A0908" transform="translate(0,0)"/>
<path d="" fill="#0A0C07" transform="translate(0,0)"/>
<path d="" fill="#0A0A08" transform="translate(0,0)"/>
<path d="" fill="#0C0E0A" transform="translate(0,0)"/>
<path d="" fill="#0B0A0A" transform="translate(0,0)"/>
<path d="" fill="#0A0A09" transform="translate(0,0)"/>
<path d="" fill="#0D0D0A" transform="translate(0,0)"/>
<path d="" fill="#090C0A" transform="translate(0,0)"/>
<path d="" fill="#090C08" transform="translate(0,0)"/>
<path d="" fill="#0B0B09" transform="translate(0,0)"/>
<path d="" fill="#0B0C0D" transform="translate(0,0)"/>
<path d="" fill="#090B0A" transform="translate(0,0)"/>
<path d="" fill="#0C0F0E" transform="translate(0,0)"/>
<path d="" fill="#080A09" transform="translate(0,0)"/>
<path d="" fill="#0F0E0E" transform="translate(0,0)"/>
<path d="" fill="#080909" transform="translate(0,0)"/>
<path d="" fill="#080908" transform="translate(0,0)"/>
<path d="" fill="#0C0A0C" transform="translate(0,0)"/>
<path d="" fill="#090908" transform="translate(0,0)"/>
<path d="" fill="#121411" transform="translate(0,0)"/>
<path d="" fill="#121111" transform="translate(0,0)"/>
<path d="" fill="#161613" transform="translate(0,0)"/>
<path d="" fill="#171618" transform="translate(0,0)"/>
<path d="" fill="#191917" transform="translate(0,0)"/>
<path d="" fill="#181917" transform="translate(0,0)"/>
<path d="" fill="#191819" transform="translate(0,0)"/>
<path d="" fill="#1B1A19" transform="translate(0,0)"/>
<path d="" fill="#B7B8B5" transform="translate(0,0)"/>
<path d="" fill="#A2A1A0" transform="translate(0,0)"/>
<path d="" fill="#9D9D9D" transform="translate(0,0)"/>
<path d="" fill="#9A9898" transform="translate(0,0)"/>
<path d="" fill="#CECCCA" transform="translate(0,0)"/>
</svg>
