<?xml version="1.0" encoding="UTF-8"?>
<svg version="1.1" xmlns="http://www.w3.org/2000/svg" width="1024" height="1024">
<path d="M0 0 C0.98618142 -0.00311998 1.97236283 -0.00623996 2.98842853 -0.00945449 C6.27237183 -0.01739206 9.55612816 -0.01112741 12.84007263 -0.00482178 C15.20277514 -0.0075335 17.56547681 -0.01109545 19.92817688 -0.01544189 C26.33089059 -0.02454603 32.73353973 -0.02102988 39.13625455 -0.01468372 C43.13767124 -0.0111228 47.13908354 -0.0118007 51.14050102 -0.01366425 C51.80583389 -0.01397071 52.47116676 -0.01427718 53.15666122 -0.01459293 C54.50847857 -0.01523241 55.86029591 -0.01588084 57.21211325 -0.01653811 C69.87153147 -0.02223366 82.53092067 -0.01569548 95.19033413 -0.00493738 C106.04250758 0.00399949 116.89463824 0.00244347 127.74681091 -0.0067749 C140.36409218 -0.0174877 152.98134805 -0.02168657 165.59863323 -0.01555037 C166.94502731 -0.01491331 168.29142139 -0.01428457 169.63781548 -0.01366425 C170.30018546 -0.01335569 170.96255545 -0.01304714 171.64499726 -0.01272924 C176.30310087 -0.01100548 180.96117945 -0.01400868 185.61927986 -0.01862335 C191.89264355 -0.02440436 198.16592649 -0.02038598 204.43928146 -0.00883484 C206.74027179 -0.00619243 209.04126893 -0.00694619 211.34225655 -0.01136017 C214.48542396 -0.01683341 217.62833335 -0.00995974 220.77148438 0 C222.13389947 -0.00669217 222.13389947 -0.00669217 223.5238381 -0.01351953 C234.64184091 0.05470908 243.7406654 3.24041039 252.00975037 10.81646729 C260.05860452 19.28386186 262.97885715 28.9539146 262.95647144 40.34764194 C262.95882367 41.16192375 262.9611759 41.97620556 262.96359941 42.81516257 C262.97027858 45.55515857 262.96983152 48.29510702 262.96942139 51.03511047 C262.97272068 53.01490315 262.97644639 54.99469515 262.98056287 56.97448629 C262.99058346 62.42418019 262.99429976 67.87386308 262.99695218 73.32356489 C263.00085502 79.19765845 263.01043335 85.0717433 263.01916504 90.9458313 C263.0379953 104.46525384 263.04818539 117.98467705 263.05662572 131.50410944 C263.0608336 138.18638643 263.06605541 144.86866253 263.07131025 151.55093876 C263.08919978 174.42952881 263.1041953 197.30811912 263.11163044 220.18671513 C263.1121052 221.62280266 263.11258108 223.0588902 263.1130581 224.49497774 C263.11329448 225.20714041 263.11353085 225.91930308 263.11377439 226.65304644 C263.11497558 230.26114962 263.11619103 233.86925279 263.11741638 237.47735596 C263.11765653 238.19339175 263.11789668 238.90942755 263.11814411 239.6471614 C263.12603586 262.85926361 263.14946547 286.07131471 263.18197233 309.2833946 C263.21628535 333.83006677 263.23598294 358.37670904 263.23927468 382.92340559 C263.23969221 385.61913297 263.24017177 388.31486033 263.24069786 391.01058769 C263.24082105 391.6743415 263.24094424 392.3380953 263.24107117 393.02196285 C263.24325715 403.0342667 263.25662339 413.04651044 263.27573586 423.05879402 C263.29743335 434.45161648 263.30549788 445.84434555 263.29576907 457.23718632 C263.29122174 463.04927048 263.29313614 468.86116191 263.31253052 474.67321968 C263.33014343 479.99742488 263.32917939 485.32129648 263.31363323 490.64550512 C263.31125435 492.56817154 263.31559518 494.49086094 263.32746188 496.41349221 C263.40799295 510.32660541 262.54975365 522.09006332 253.02146912 533.06256104 C245.18643526 540.86976173 235.7906347 544.55768487 224.74717891 544.64121121 C223.91640775 544.63247269 223.08563659 544.62373416 222.22969055 544.61473083 C221.31868123 544.61729411 220.40767191 544.61985738 219.46905625 544.62249833 C216.44581421 544.62740179 213.42308237 544.61100045 210.39988708 544.59454346 C208.22109997 544.59369644 206.04231201 544.59417378 203.86352539 544.59587097 C197.96960179 544.59672943 192.07586246 544.57912766 186.18198156 544.5581491 C180.01472763 544.53935753 173.84746918 544.5376299 167.68019104 544.53407288 C156.01092224 544.52475971 144.34173805 544.50015573 132.67250645 544.47002441 C119.38353837 544.43645775 106.0945806 544.41998869 92.8055799 544.4049381 C65.47775653 544.37360558 38.1500082 544.3208592 10.82225037 544.25396729 C10.49225037 543.59396729 10.16225037 542.93396729 9.82225037 542.25396729 C10.66787537 541.75896729 11.51350037 541.26396729 12.38475037 540.75396729 C21.44617653 534.62732926 25.78242511 525.99588195 27.91184616 515.48647785 C29.24300133 507.8050305 29.09922296 500.11299476 29.07621765 492.34629822 C29.07852508 490.6432384 29.08170349 488.94017959 29.08567214 487.23712283 C29.09399023 482.58012695 29.08990845 477.92321346 29.0836997 473.26621735 C29.07916386 468.23473382 29.08616466 463.20326419 29.09165955 458.17178345 C29.10054369 448.3232829 29.09863572 438.47481288 29.09283426 428.62631115 C29.08831316 420.61896759 29.08770682 412.61163257 29.0898819 404.6042881 C29.0903416 402.89325058 29.0903416 402.89325058 29.09081058 401.14764664 C29.09145005 398.83014275 29.09209848 396.51263886 29.09275576 394.19513498 C29.09845639 372.47265617 29.09190576 350.75019426 29.08115503 329.02771822 C29.07222337 310.40463978 29.07376891 291.78158629 29.08299255 273.1585083 C29.09370612 251.51714903 29.0979033 229.87580456 29.09176803 208.23444301 C29.09113095 205.92465993 29.09050221 203.61487685 29.0898819 201.30509377 C29.08957335 200.16873106 29.08926479 199.03236835 29.08894689 197.86157041 C29.08722295 189.86900543 29.09012866 181.87644986 29.094841 173.88388634 C29.10046206 164.13598481 29.0989078 154.38811548 29.08827952 144.64021762 C29.08303874 139.67040984 29.08093875 134.70065565 29.08757782 129.73084831 C29.09357271 125.17415923 29.09020419 120.61757301 29.07962272 116.06089316 C29.07740357 114.41966578 29.07849122 112.77842956 29.08337429 111.13720795 C29.1328879 93.10025829 28.07494364 76.92448793 15.01365662 63.21881104 C3.01676251 52.46223753 -10.46937712 50.64262526 -25.86524963 50.50396729 C-27.45317191 50.47574765 -29.04106467 50.44581207 -30.62892151 50.41412354 C-34.47847677 50.34097601 -38.32768429 50.29097181 -42.17774963 50.25396729 C-45.35383596 40.72570831 -43.10748052 29.08487119 -39.05274963 20.12896729 C-34.66546908 11.95733655 -27.84852606 5.65892972 -19.17774963 2.25396729 C-12.74625086 0.43327267 -6.65782672 -0.03278367 0 0 Z M66.82225037 29.25396729 C65.27638161 32.3457048 65.52865515 34.84826281 65.82225037 38.25396729 C67.06615741 40.83352147 67.06615741 40.83352147 69.82225037 42.25396729 C78.52139509 44.02263531 87.78911631 43.36097608 96.62693787 43.27349854 C97.41815159 43.2665415 98.20936531 43.25958447 99.02455521 43.25241661 C103.19841917 43.21527618 107.37214822 43.17138825 111.54588318 43.12188721 C115.84984125 43.07220846 120.15361157 43.04624519 124.45779228 43.02545643 C127.7796694 43.0051112 131.10118151 42.96725343 134.42284012 42.92459679 C136.01039474 42.90727264 137.59803608 42.8965654 139.18568039 42.8926487 C141.39967957 42.88557548 143.61201297 42.85369412 145.82566833 42.81573486 C147.083461 42.80383621 148.34125366 42.79193756 149.63716125 42.77967834 C153.39242862 42.1598572 154.5992533 41.29934686 156.82225037 38.25396729 C157.3966206 34.23337565 157.51216797 32.19028403 155.07225037 28.87896729 C150.83958683 25.82204362 146.71894953 26.11970084 141.59446716 26.09283447 C140.87360931 26.08786957 140.15275146 26.08290466 139.41004944 26.07778931 C137.03051287 26.0632112 134.65104297 26.05637282 132.27146912 26.05084229 C130.61243692 26.04508707 128.95340474 26.03932939 127.29437256 26.03356934 C123.81676423 26.0230716 120.33917894 26.01722097 116.86155701 26.01373291 C112.41632983 26.00825199 107.97140953 25.9842275 103.5262785 25.95576096 C100.09893925 25.93709091 96.67167328 25.93192665 93.24428749 25.93039703 C91.60610591 25.92737962 89.96792535 25.919382 88.32979393 25.90621185 C86.03236754 25.88906011 83.73568249 25.89105347 81.43821716 25.89752197 C79.4810804 25.89205353 79.4810804 25.89205353 77.48440552 25.88647461 C73.23447882 26.31294942 70.59557095 27.29460215 66.82225037 29.25396729 Z " fill="#000000" transform="translate(506.17774963378906,237.74603271484375)"/>
<path d="M0 0 C1.06563755 -0.00233999 1.06563755 -0.00233999 2.15280312 -0.00472724 C4.51645635 -0.00869275 6.8800445 -0.00556467 9.24369812 -0.00241089 C10.94636574 -0.00376713 12.64903306 -0.00554832 14.35169983 -0.00772095 C18.97065967 -0.01227526 23.58959714 -0.01051219 28.20855737 -0.00734186 C33.06908237 -0.00480012 37.92960553 -0.00716156 42.79013062 -0.00872803 C50.97208497 -0.01054772 59.1540303 -0.00815207 67.33598328 -0.00338745 C76.72925116 0.00202022 86.12249721 0.00031735 95.51576453 -0.00521386 C103.62155475 -0.00979229 111.72733849 -0.01037164 119.83312958 -0.00777519 C124.65504606 -0.0062337 129.4769524 -0.00595832 134.29886818 -0.00931168 C146.0709592 -0.01615624 157.84199963 0.01019811 169.61357117 0.12698364 C170.65090432 0.13664264 170.65090432 0.13664264 171.70919371 0.14649677 C175.99132607 0.18988437 180.27092008 0.27464796 184.55180359 0.38528442 C185.55131955 0.3988693 186.55083551 0.41245419 187.58063984 0.42645073 C198.19359331 0.78828702 207.00482406 4.72230255 214.61357117 12.12698364 C222.39446807 21.57278862 224.73287715 31.29333907 224.74499893 43.40477276 C224.74705157 44.10655284 224.7491042 44.80833293 224.75121903 45.53137907 C224.75686138 47.87663491 224.75543522 50.2218315 224.75401306 52.5670929 C224.75659828 54.2681252 224.75961188 55.96915691 224.76301646 57.67018777 C224.7710712 62.340058 224.77287518 67.00991284 224.77361393 71.67978919 C224.77546712 76.71812006 224.78301575 81.75644301 224.78974915 86.79476929 C224.80332171 97.80927094 224.80935539 108.82376895 224.8137598 119.83827758 C224.8165238 126.71719614 224.82076142 133.59611329 224.82526398 140.4750309 C224.83745478 159.52525208 224.84775477 178.57547214 224.85113907 197.62569714 C224.85135863 198.84455599 224.8515782 200.06341485 224.85180442 201.31920882 C224.8520227 202.54096013 224.85224098 203.76271143 224.85246587 205.02148551 C224.85290933 207.49716262 224.8533559 209.97283973 224.85380554 212.44851685 C224.85402697 213.67653451 224.8542484 214.90455218 224.85447654 216.1697825 C224.85842465 236.0684493 224.87587991 255.96707949 224.89916506 275.86573216 C224.92288513 296.30115742 224.9353412 316.73656431 224.93650699 337.17200357 C224.93742333 348.64344389 224.94316547 360.11483649 224.9613266 371.58626366 C224.97673633 381.35408774 224.98184283 391.12184934 224.9735885 400.88968327 C224.96968524 405.87139614 224.97059587 410.85298321 224.98464584 415.83468056 C224.99740382 420.40009595 224.99617059 424.96529127 224.98405513 429.53070644 C224.98210144 431.17740448 224.98516135 432.82411821 224.99389949 434.47079422 C225.06418594 448.61801069 223.89036478 461.89673587 214.01982117 472.90432739 C206.68969089 479.69852833 197.98071992 483.20032326 188.10087585 483.33230591 C187.45655609 483.34220551 186.81223633 483.3521051 186.14839172 483.36230469 C184.02744672 483.39378793 181.90647935 483.41862467 179.78544617 483.44338989 C178.31142102 483.46397082 176.83740162 483.48496759 175.36338806 483.50636292 C171.49024625 483.56146605 167.61705222 483.61092699 163.74382019 483.65921021 C159.78889843 483.70951128 155.83405218 483.76515235 151.87919617 483.82034302 C144.12405185 483.92778069 136.36884459 484.02925738 128.61357117 484.12698364 C128.61357117 484.45698364 128.61357117 484.78698364 128.61357117 485.12698364 C85.38357117 485.12698364 42.15357117 485.12698364 -2.38642883 485.12698364 C-2.38642883 484.79698364 -2.38642883 484.46698364 -2.38642883 484.12698364 C-3.7283429 483.99743286 -3.7283429 483.99743286 -5.09736633 483.86526489 C-16.09868659 482.58685987 -25.8284496 479.64587955 -33.38642883 471.12698364 C-38.67432175 463.64089044 -41.63356479 457.02202245 -41.64369774 447.74801254 C-41.64720381 447.02314988 -41.65070989 446.29828721 -41.65432221 445.55145901 C-41.66362889 443.12162147 -41.65871481 440.69202398 -41.65385437 438.26217651 C-41.657591 436.50283337 -41.66219257 434.74349188 -41.66758502 432.98415303 C-41.67982888 428.14852423 -41.67955291 423.31296454 -41.67719626 418.47732377 C-41.67678845 413.26245445 -41.68782391 408.04760739 -41.6973114 402.83274841 C-41.7139301 392.6152694 -41.71942135 382.39781347 -41.72053616 372.18032208 C-41.72148624 363.87534087 -41.72559456 355.57036729 -41.73193741 347.26538849 C-41.74955238 323.72236551 -41.75877591 300.17936078 -41.75727646 276.63633117 C-41.75719655 275.36690371 -41.75711664 274.09747626 -41.7570343 272.7895813 C-41.75695254 271.5186049 -41.75687078 270.24762851 -41.75678654 268.93813768 C-41.75597362 248.33965681 -41.77511212 227.74124906 -41.80331104 207.14278933 C-41.83203299 185.99549381 -41.8458517 164.84823396 -41.84412348 143.70091844 C-41.84345933 131.82709812 -41.84896261 119.95335445 -41.87047958 108.0795517 C-41.88868231 97.96980622 -41.89304616 87.86017214 -41.87946074 77.75041738 C-41.87292648 72.59273018 -41.87283054 67.43525673 -41.89016724 62.2775898 C-41.9058826 57.55366205 -41.90304991 52.83011784 -41.88559897 48.10619953 C-41.8825257 46.39961566 -41.88617379 44.69300327 -41.89731912 42.98645303 C-41.97188934 30.75587521 -40.92317464 21.07693114 -32.16377258 11.87307739 C-22.71988198 2.59523321 -13.08933455 0.00390108 0 0 Z M54.61357117 25.12698364 C53.08510456 28.18391687 53.38114672 30.75682911 53.61357117 34.12698364 C55.37372247 37.31201934 56.11248033 37.95995336 59.61357117 39.12698364 C61.01008705 39.2071738 62.41010315 39.23464658 63.80888367 39.22463989 C64.60681335 39.22141724 65.40474304 39.21819458 66.22685242 39.21487427 C67.0557196 39.20649536 67.88458679 39.19811646 68.73857117 39.18948364 C69.57517273 39.18497192 70.41177429 39.18046021 71.27372742 39.17581177 C73.38703734 39.16382379 75.50031181 39.14588954 77.61357117 39.12698364 C79.11371584 39.12698364 80.61366562 39.16269961 82.11357117 39.18948364 C85.43669114 39.53532006 85.43669114 39.53532006 86.61357117 38.12698364 C86.61357117 38.45698364 86.61357117 38.78698364 86.61357117 39.12698364 C91.56357117 39.12698364 96.51357117 39.12698364 101.61357117 39.12698364 C101.61357117 38.79698364 101.61357117 38.46698364 101.61357117 38.12698364 C104.58357117 38.12698364 107.55357117 38.12698364 110.61357117 38.12698364 C110.61357117 38.45698364 110.61357117 38.78698364 110.61357117 39.12698364 C113.69682475 39.18520894 116.77993622 39.22065499 119.86357117 39.25198364 C120.73626648 39.26874146 121.60896179 39.28549927 122.50810242 39.30276489 C123.35243835 39.30921021 124.19677429 39.31565552 125.06669617 39.32229614 C125.841745 39.33276978 126.61679382 39.34324341 127.41532898 39.35403442 C129.91973571 39.09536069 131.48723992 38.46157123 133.61357117 37.12698364 C135.32528194 34.19262231 135.62475577 32.40659862 135.48857117 29.00198364 C134.47078591 25.65783209 133.61982637 24.80694978 130.61357117 23.12698364 C127.24222301 22.00320092 124.6643764 21.98630844 121.1101532 21.96585083 C120.45450378 21.96088593 119.79885437 21.95592102 119.12333679 21.95080566 C116.95600837 21.93621011 114.78875314 21.92938658 112.62138367 21.92385864 C111.1130727 21.91810522 109.60476174 21.91234751 108.09645081 21.90658569 C104.93402262 21.89608325 101.7716198 21.89023558 98.60917664 21.88674927 C94.56166667 21.88126484 90.51449316 21.85723501 86.4670887 21.82877731 C83.35122199 21.81013217 80.23543606 21.80494435 77.11951828 21.80341339 C75.62760961 21.80039077 74.13570222 21.79237536 72.64384842 21.77922821 C70.55423288 21.76212706 68.46543579 21.76405724 66.3757782 21.77053833 C65.18791718 21.7668927 64.00005615 21.76324707 62.77619934 21.75949097 C59.2869209 22.16493992 57.40757879 23.034317 54.61357117 25.12698364 Z M102.61357117 38.12698364 C102.61357117 38.45698364 102.61357117 38.78698364 102.61357117 39.12698364 C104.92357117 39.12698364 107.23357117 39.12698364 109.61357117 39.12698364 C109.61357117 38.79698364 109.61357117 38.46698364 109.61357117 38.12698364 C107.30357117 38.12698364 104.99357117 38.12698364 102.61357117 38.12698364 Z " fill="#000000" transform="translate(297.3864288330078,298.8730163574219)"/>
<path d="M0 0 C1.85886601 -0.00115559 3.71773178 -0.00274604 5.57659709 -0.00472724 C10.62752018 -0.00886063 15.67842412 -0.00685727 20.72934723 -0.00374103 C26.19920983 -0.00146238 31.66906931 -0.00497879 37.13893127 -0.00772095 C47.83357725 -0.01215193 58.52821619 -0.01121393 69.22286244 -0.00830831 C77.92356817 -0.00604304 86.62427193 -0.00574661 95.32497787 -0.00683212 C97.18782118 -0.00706197 97.18782118 -0.00706197 99.08829769 -0.00729647 C101.61185226 -0.00761622 104.13540683 -0.00794043 106.6589614 -0.00826906 C129.61480666 -0.01103516 152.57064886 -0.00817372 175.52649341 -0.00292646 C196.42813592 0.00181497 217.32977234 0.00139682 238.23141479 -0.00338745 C261.7703937 -0.00875751 285.30936992 -0.01083811 308.84834945 -0.00777519 C311.36406763 -0.00745667 313.87978582 -0.0071423 316.395504 -0.00683212 C317.63299516 -0.00667785 318.87048632 -0.00652357 320.14547721 -0.00636462 C328.82225751 -0.00550499 337.49903562 -0.00695044 346.17581558 -0.00931168 C356.76970659 -0.01213145 367.36359021 -0.01132595 377.95748039 -0.00603093 C383.35197351 -0.00342261 388.74645434 -0.00233951 394.14094734 -0.00568008 C415.0377015 -0.0175983 435.88880675 -0.01238681 456.76168823 1.12698364 C456.76168823 1.45698364 456.76168823 1.78698364 456.76168823 2.12698364 C457.79164917 2.34612427 458.82161011 2.56526489 459.88278198 2.79104614 C483.12396163 7.88987637 504.23237548 16.80134205 523.24215698 31.32620239 C525.51672425 33.32080924 525.51672425 33.32080924 527.76168823 33.12698364 C528.98825073 34.41213989 528.98825073 34.41213989 530.38668823 36.18948364 C532.63276567 38.90985413 534.93672064 41.23252269 537.63668823 43.50198364 C564.63142003 66.73473775 580.66981385 102.37196998 583.31710815 137.49905396 C583.5728539 141.3773129 583.76168823 145.24020654 583.76168823 149.12698364 C583.76369736 150.53944941 583.76597228 151.9519148 583.76841736 153.36437988 C583.78852083 165.37722174 583.80366078 177.39005919 583.8135004 189.40291405 C583.81872633 195.57136113 583.82582253 201.73979447 583.83712769 207.90823364 C583.84798456 213.87037924 583.85397066 219.83251158 583.85656548 225.79466629 C583.85841372 228.06806268 583.86202284 230.34145835 583.86741829 232.61484909 C583.87466647 235.79387743 583.8756776 238.97285072 583.87521362 242.15188599 C583.8788089 243.09232254 583.88240417 244.03275909 583.8861084 245.00169373 C583.87951196 249.17260012 583.82951698 253.06161155 582.76168823 257.12698364 C583.42168823 257.12698364 584.08168823 257.12698364 584.76168823 257.12698364 C584.43168823 258.11698364 584.10168823 259.10698364 583.76168823 260.12698364 C583.53717365 262.352727 583.35385946 264.58279883 583.19918823 266.81448364 C583.11539917 267.99397583 583.03161011 269.17346802 582.94528198 270.38870239 C582.88469604 271.29233521 582.82411011 272.19596802 582.76168823 273.12698364 C583.42168823 273.12698364 584.08168823 273.12698364 584.76168823 273.12698364 C584.43168823 273.78698364 584.10168823 274.44698364 583.76168823 275.12698364 C583.66561904 277.09897568 583.63538024 279.07428388 583.63470459 281.0486145 C583.63188477 282.31059662 583.62906494 283.57257874 583.62615967 284.87280273 C583.62810415 286.27914443 583.63015233 287.68548598 583.6322937 289.09182739 C583.6309393 290.56669152 583.62915915 292.04155531 583.62698364 293.51641846 C583.62241389 297.52871144 583.624197 301.5409788 583.62736273 305.55327225 C583.62988868 309.7457308 583.62754813 313.93818711 583.62597656 318.13064575 C583.62415556 325.1720723 583.62655937 332.21348837 583.63131714 339.25491333 C583.63675963 347.40398594 583.63499692 355.55303352 583.62949073 363.70210552 C583.62495764 370.68980721 583.62431002 377.67750136 583.6269294 384.66520405 C583.62849109 388.84256208 583.62868888 393.01990834 583.62539291 397.19726562 C583.62251136 401.12390188 583.62449515 405.05050577 583.63028717 408.97713852 C583.63161324 410.42115093 583.63122324 411.86516605 583.62902451 413.3091774 C583.62630705 415.27456823 583.63031305 417.23996498 583.63470459 419.20535278 C583.63508162 420.30706314 583.63545864 421.4087735 583.63584709 422.54386902 C583.58706008 425.11369551 583.58706008 425.11369551 584.76168823 427.12698364 C584.43168823 427.78698364 584.10168823 428.44698364 583.76168823 429.12698364 C583.66259933 431.94783893 583.62186576 434.74347372 583.62887573 437.56448364 C583.62791901 438.40036011 583.62696228 439.23623657 583.62597656 440.09744263 C583.62529556 441.86607946 583.62714432 443.63471879 583.63131714 445.40335083 C583.63666652 448.11597285 583.63136949 450.82842929 583.62496948 453.54104614 C583.62563028 455.25719234 583.62691147 456.97333844 583.62887573 458.68948364 C583.6268515 459.50409058 583.62482727 460.31869751 583.6227417 461.1579895 C583.53577998 465.27457527 583.53577998 465.27457527 584.76168823 469.12698364 C584.10168823 469.12698364 583.44168823 469.12698364 582.76168823 469.12698364 C582.83387573 469.90299927 582.90606323 470.67901489 582.98043823 471.47854614 C583.94956401 482.75809335 584.31165494 493.88972503 582.76168823 505.12698364 C583.42168823 505.12698364 584.08168823 505.12698364 584.76168823 505.12698364 C584.43168823 506.11698364 584.10168823 507.10698364 583.76168823 508.12698364 C583.67664503 509.64079229 583.64830935 511.15813514 583.65489197 512.67431641 C583.65716545 514.0738002 583.65716545 514.0738002 583.65948486 515.5015564 C583.66959091 517.03486603 583.66959091 517.03486603 583.67990112 518.59915161 C583.68450096 520.21707108 583.68450096 520.21707108 583.68919373 521.86767578 C583.69635885 524.21667084 583.70575403 526.56565988 583.7170887 528.91463852 C583.73449181 532.65079903 583.74478542 536.38691658 583.75300598 540.12310791 C583.77742542 550.74928172 583.81258344 561.37539095 583.8576355 572.00149536 C583.88469236 578.50186908 583.9015604 585.0022085 583.9125042 591.50262833 C583.91864812 593.96376932 583.92856821 596.42490428 583.94258308 598.88601303 C584.20906678 646.17418082 575.45624197 688.057142 541.76168823 723.12698364 C540.92121948 724.01901489 540.08075073 724.91104614 539.21481323 725.83010864 C522.27175891 743.36078335 501.18414751 756.21216624 477.88668823 763.37698364 C477.13363403 763.61119019 476.38057983 763.84539673 475.60470581 764.08670044 C461.70224276 768.14043483 447.81591048 769.60130211 433.40553284 769.80639648 C431.75377393 769.83916956 430.10202849 769.87262778 428.4502961 769.90671146 C409.78432808 770.26510501 391.11399363 770.27008175 372.44531691 770.25770831 C367.25879587 770.25539727 362.07227784 770.25896126 356.88575745 770.26168823 C346.78862621 770.2660835 336.6915025 770.26519821 326.594371 770.26227559 C318.38367538 770.25999903 310.17298184 770.25971868 301.962286 770.26079941 C300.19645561 770.26102926 300.19645561 770.26102926 298.39495188 770.26126375 C296.00224307 770.26158353 293.60953426 770.26190774 291.21682545 770.26223634 C268.90416416 770.26507219 246.59150701 770.26183282 224.27884641 770.25643598 C205.17555009 770.25195851 186.07225984 770.25275529 166.96896362 770.25735474 C144.6959753 770.26271495 122.42299058 770.2648093 100.1500017 770.26174247 C97.77286478 770.26142397 95.39572785 770.2611096 93.01859093 770.26079941 C91.26485673 770.26056799 91.26485673 770.26056799 89.47569356 770.26033191 C81.27477293 770.25947192 73.07385461 770.26091818 64.87293434 770.26327896 C54.88063407 770.26609277 44.88834165 770.26530498 34.89604226 770.25999822 C29.80797546 770.25738421 24.7199217 770.25631698 19.63185501 770.25964737 C14.96251728 770.26265741 10.29320454 770.26094038 5.62386902 770.25566982 C3.94769297 770.25456565 2.27151474 770.25509149 0.59534011 770.25754561 C-30.91589781 770.30009391 -30.91589781 770.30009391 -44.67581177 767.50198364 C-45.5328772 767.33303589 -46.38994263 767.16408813 -47.27297974 766.99002075 C-60.33325792 764.24218404 -74.64053183 759.84413602 -86.23831177 753.12698364 C-86.56831177 752.46698364 -86.89831177 751.80698364 -87.23831177 751.12698364 C-88.90028012 750.44868914 -90.5679601 749.78436294 -92.23831177 749.12698364 C-100.48290671 744.20148781 -107.9410251 738.3431908 -115.23831177 732.12698364 C-115.97049927 731.51854614 -116.70268677 730.91010864 -117.45706177 730.28323364 C-126.39775039 722.71803557 -133.20970266 713.41654394 -140.23831177 704.12698364 C-140.77585083 703.43346802 -141.31338989 702.73995239 -141.86721802 702.02542114 C-158.54047159 678.93937773 -165.03807807 649.20973427 -165.79690552 621.33035278 C-165.81796293 620.58420153 -165.83902035 619.83805027 -165.86071587 619.06928837 C-166.46035407 597.19100484 -166.34858584 575.30595342 -166.30677414 553.42158771 C-166.29662872 547.38353485 -166.29325295 541.34547837 -166.28933716 535.30741882 C-166.27836428 520.05976515 -166.25873427 504.81212712 -166.23831177 489.56448364 C-166.2162185 472.97962983 -166.19574165 456.39478162 -166.18489361 439.80991608 C-166.17991317 432.64093318 -166.17006145 425.47197851 -166.15646362 418.30300701 C-166.14903468 413.87362076 -166.14569521 409.44423844 -166.14349747 405.0148468 C-166.1416181 402.95641917 -166.13800269 400.89799231 -166.13256454 398.839571 C-166.1254011 396.0417156 -166.12430838 393.24392312 -166.12478638 390.44606018 C-166.12119142 389.62364238 -166.11759645 388.80122457 -166.11389256 387.95388502 C-166.0249357 383.90965671 -166.0249357 383.90965671 -167.23831177 380.12698364 C-166.57831177 380.12698364 -165.91831177 380.12698364 -165.23831177 380.12698364 C-165.30899809 379.57394814 -165.37968441 379.02091263 -165.45251274 378.45111847 C-166.5534734 368.43834329 -166.3786425 358.40985116 -166.3677063 348.35159302 C-166.36906309 346.25274627 -166.37084459 344.15389977 -166.37301636 342.05505371 C-166.3775598 336.37691853 -166.37581325 330.69880161 -166.37263727 325.02066612 C-166.37009502 319.05581999 -166.37245664 313.09097535 -166.37402344 307.12612915 C-166.37584082 297.10264813 -166.3734513 287.07917448 -166.36868286 277.05569458 C-166.36325296 265.50934426 -166.36499538 253.96301163 -166.37050927 242.41666174 C-166.3750669 232.47057619 -166.37567767 222.52449593 -166.3730706 212.57840967 C-166.37152083 206.65292223 -166.37127786 200.72744307 -166.37460709 194.80195618 C-166.37752403 189.22046723 -166.37544082 183.63900075 -166.36971283 178.05751419 C-166.36840502 176.02398846 -166.36874507 173.99046081 -166.37097549 171.95693588 C-166.40500991 137.7362153 -166.40500991 137.7362153 -163.55081177 123.06448364 C-163.3771106 122.15166626 -163.20340942 121.23884888 -163.02444458 120.29837036 C-157.52382011 92.88581289 -143.46540625 65.65763625 -123.23831177 46.12698364 C-122.74427856 45.64414917 -122.25024536 45.1613147 -121.74124146 44.66384888 C-101.35272713 24.83960383 -70.80237966 4.21959312 -41.19924927 3.00198364 C-40.55213989 3.04323364 -39.90503052 3.08448364 -39.23831177 3.12698364 C-38.90831177 2.46698364 -38.57831177 1.80698364 -38.23831177 1.12698364 C-25.47861174 0.34126589 -12.78226905 -0.0176199 0 0 Z M-53.42581177 39.81448364 C-54.1593689 40.06794556 -54.89292603 40.32140747 -55.64871216 40.58255005 C-72.00964398 46.47128444 -85.65784616 56.2431562 -98.23831177 68.12698364 C-98.98854614 68.81276489 -99.73878052 69.49854614 -100.51174927 70.20510864 C-120.71757905 89.3474737 -132.56034137 117.88789217 -133.42487967 145.58353746 C-133.52278224 150.76658674 -133.51017091 155.94938996 -133.49900818 161.13313293 C-133.50203336 163.13632897 -133.50592467 165.13952385 -133.51060075 167.14271671 C-133.52084235 172.61558912 -133.51870873 178.08839574 -133.51442015 183.56127346 C-133.51194591 189.47624527 -133.52097579 195.39120154 -133.52845764 201.3061676 C-133.54118767 212.88248422 -133.54300617 224.45877904 -133.54065738 236.03510132 C-133.53882095 245.44869957 -133.54059166 254.86229104 -133.54488182 264.27588844 C-133.54548424 265.63088134 -133.54608543 266.98587424 -133.54668542 268.34086714 C-133.54759273 270.38301161 -133.5485014 272.42515608 -133.54941777 274.46730054 C-133.55784133 293.44219597 -133.56218718 312.41708885 -133.55801105 331.39198589 C-133.55785468 332.10655261 -133.5576983 332.82111932 -133.55753719 333.55733957 C-133.55673147 337.17859966 -133.5558857 340.79985975 -133.55502389 344.42111983 C-133.5548528 345.140243 -133.55468171 345.85936617 -133.55450544 346.60028095 C-133.55415878 348.05452137 -133.55381025 349.50876178 -133.55345985 350.96300219 C-133.5481047 373.58237537 -133.55602966 396.20170954 -133.57449341 418.82107544 C-133.59524032 444.26694561 -133.60593093 469.71279163 -133.60191792 495.15867072 C-133.60152261 497.87544715 -133.60116106 500.59222358 -133.60082054 503.30900002 C-133.60072981 503.97787911 -133.60063908 504.6467582 -133.6005456 505.33590635 C-133.59938285 515.40421732 -133.60603999 525.47250276 -133.61663246 535.54080772 C-133.62856795 547.00127759 -133.6299269 558.46169008 -133.61784229 569.92216077 C-133.61196862 575.7634928 -133.61081225 581.60471998 -133.6228447 587.44604492 C-133.63375423 592.80475537 -133.63054023 598.16327406 -133.61658301 603.52197573 C-133.61394996 605.44920415 -133.61625825 607.37644784 -133.62431888 609.30366119 C-133.76645191 645.85517646 -123.27572071 677.8250437 -97.23831177 704.12698364 C-84.97375675 716.04462113 -70.47225634 724.93016331 -54.30081177 730.43948364 C-53.3021106 730.78475098 -53.3021106 730.78475098 -52.28323364 731.13699341 C-38.06186586 735.70599317 -24.17359308 736.5664818 -9.37802124 736.5146637 C-7.41505815 736.51884495 -5.45209748 736.52432678 -3.48914123 736.53098351 C1.86329493 736.54535309 7.215576 736.54122009 12.56802034 736.5338167 C18.35687459 736.52906615 24.14569618 736.54161154 29.93453979 736.55183411 C41.25959822 736.56899099 52.58460109 736.56986851 63.90966913 736.5646212 C73.11964811 736.56057221 82.32961073 736.56203171 91.53958893 736.56736946 C92.85271858 736.56811788 94.16584824 736.56886631 95.5187697 736.56963741 C97.51788117 736.57078497 99.51699264 736.57193257 101.51610411 736.57309665 C120.08661306 736.58379168 138.65711599 736.58853723 157.2276268 736.58062649 C157.92670766 736.58032931 158.62578852 736.58003214 159.34605365 736.57972596 C165.02196386 736.57727738 170.69787401 736.57466562 176.37378414 736.57204183 C198.50343986 736.56194331 220.63301966 736.57029135 242.76266479 736.59353638 C267.66543937 736.61965241 292.56816827 736.63244523 317.47095704 736.62534863 C330.64161934 736.62186198 343.81221934 736.62405174 356.98287201 736.64159966 C368.19551489 736.65635419 379.4080516 736.65691468 390.62069246 736.63952874 C396.33459969 736.6310429 402.04831753 736.62880995 407.76221466 736.6441803 C413.0056111 736.65810966 418.24865738 736.65315911 423.49203399 736.63394106 C425.37615115 736.63020587 427.26029693 736.63303026 429.14438841 736.64355271 C465.10371582 736.82990062 494.30404658 724.14050471 520.03121948 698.90042114 C526.84920318 691.76004592 531.83124538 683.62160206 536.76168823 675.12698364 C537.34047729 674.15116333 537.91926636 673.17534302 538.51559448 672.16995239 C541.92655993 665.9447178 544.03499539 659.47608893 546.01168823 652.68948364 C546.25822144 651.84361694 546.50475464 650.99775024 546.75875854 650.12625122 C550.53420334 636.44874945 551.05397666 623.17614972 551.02911377 609.09596252 C551.03285529 607.07784276 551.03745881 605.05972444 551.04284441 603.04160839 C551.05502778 597.52280429 551.05481946 592.00406101 551.05245566 586.48524654 C551.05204631 580.52251884 551.06309794 574.55981035 551.0725708 568.59709167 C551.08915633 556.92472063 551.09470523 545.25236475 551.09579556 533.5799837 C551.09671643 524.08770845 551.10084237 514.59543971 551.10719681 505.10316658 C551.10899204 502.36580836 551.11077167 499.62845012 551.11254656 496.89109188 C551.11298866 496.21047555 551.11343076 495.52985922 551.11388625 494.82861814 C551.1261866 475.6961858 551.1340882 456.56375571 551.13319969 437.43131924 C551.13316853 436.71068029 551.13313738 435.99004134 551.13310528 435.24756484 C551.13293907 431.59549569 551.13274099 427.94342654 551.13253586 424.29135739 C551.13249597 423.56611132 551.13245608 422.84086525 551.13241498 422.09364202 C551.1323341 420.62701852 551.13225051 419.16039502 551.1321642 417.69377152 C551.13093928 394.88657127 551.14594421 372.07943054 551.17330933 349.27224731 C551.20407952 323.61688745 551.22123884 297.96156668 551.21938288 272.30618721 C551.21923363 269.5666285 551.21913621 266.82706978 551.21907425 264.08751106 C551.21905094 263.41302029 551.21902763 262.73852952 551.21900362 262.04359964 C551.21894226 251.22405404 551.2316736 240.40456042 551.24893878 229.58503024 C551.26595346 218.69670975 551.26748273 207.80846829 551.25472014 196.92014193 C551.24821008 191.03005554 551.24800223 185.1401561 551.26542664 179.25008774 C551.28124935 173.84559432 551.27820047 168.44143466 551.26085837 163.03694893 C551.25780862 161.09419354 551.2613433 159.15141265 551.27257852 157.20868736 C551.42771307 128.45184785 544.01557794 100.20256408 524.76168823 78.12698364 C524.03981323 77.29682739 523.31793823 76.46667114 522.57418823 75.61135864 C520.3353684 73.08512275 518.05786888 70.60106657 515.76168823 68.12698364 C515.22157104 67.52112427 514.68145386 66.91526489 514.12496948 66.29104614 C494.89106382 45.65214485 465.6343488 35.07926263 437.96287239 33.85149884 C432.90620673 33.71038605 427.85104831 33.72600654 422.79292297 33.74603271 C420.85481935 33.74256659 418.91671771 33.73779568 416.97862011 33.73185098 C411.70890583 33.71944254 406.43935661 33.72546456 401.16964209 33.73480964 C395.4647278 33.7416418 389.75984045 33.73109841 384.05493164 33.72286987 C372.90140096 33.7095748 361.74793107 33.71239131 350.59439807 33.7211078 C341.52511127 33.72790029 332.45584143 33.72879431 323.38655281 33.72553635 C322.09267971 33.72507665 320.79880661 33.72461695 319.46572523 33.72414332 C316.83674454 33.72318408 314.20776385 33.72221144 311.57878316 33.72122554 C287.66504989 33.7129273 263.75134934 33.72151274 239.83762134 33.73725334 C218.04316827 33.75148994 196.2487678 33.75021286 174.45431519 33.73587036 C149.92253474 33.71978013 125.39078605 33.7135063 100.85900074 33.72270715 C98.24033646 33.72366274 95.62167218 33.72460585 93.00300789 33.72553635 C91.07066269 33.72623059 91.07066269 33.72623059 89.09928022 33.72693885 C80.0465053 33.72952282 70.99374911 33.72517059 61.9409771 33.71809769 C50.90073772 33.70966107 39.8605623 33.71200825 28.8203302 33.72793992 C23.19376709 33.73579332 17.56731039 33.73896446 11.94074821 33.72899246 C6.77966082 33.71998414 1.61877741 33.72507845 -3.54229175 33.74092512 C-5.39869195 33.74424711 -7.25510976 33.7426379 -9.11149842 33.73529775 C-24.11392096 33.68057772 -39.16201397 34.75479218 -53.42581177 39.81448364 Z " fill="#000000" transform="translate(303.2383117675781,126.87301635742188)"/>
<path d="M0 0 C337.92 0 675.84 0 1024 0 C1024 337.92 1024 675.84 1024 1024 C686.08 1024 348.16 1024 0 1024 C0 686.08 0 348.16 0 0 Z M1 1 C1 338.26 1 675.52 1 1023 C338.26 1023 675.52 1023 1023 1023 C1023 685.74 1023 348.48 1023 1 C685.74 1 348.48 1 1 1 Z " fill="#6B6B6B" transform="translate(0,0)"/>
<path d="M0 0 C29.04 0 58.08 0 88 0 C88 0.33 88 0.66 88 1 C58.96 1 29.92 1 0 1 C0 0.67 0 0.34 0 0 Z " fill="#070605" transform="translate(648,783)"/>
<path d="M0 0 C20.13 0 40.26 0 61 0 C61 0.33 61 0.66 61 1 C40.87 1 20.74 1 0 1 C0 0.67 0 0.34 0 0 Z " fill="#060605" transform="translate(427,783)"/>
<path d="M0 0 C11.55 0 23.1 0 35 0 C35 0.33 35 0.66 35 1 C23.45 1 11.9 1 0 1 C0 0.67 0 0.34 0 0 Z " fill="#060605" transform="translate(603,783)"/>
<path d="M0 0 C9.9 0 19.8 0 30 0 C30 0.33 30 0.66 30 1 C20.1 1 10.2 1 0 1 C0 0.67 0 0.34 0 0 Z " fill="#060605" transform="translate(536,783)"/>
<path d="M0 0 C6.27 0 12.54 0 19 0 C19 0.33 19 0.66 19 1 C12.73 1 6.46 1 0 1 C0 0.67 0 0.34 0 0 Z " fill="#060605" transform="translate(567,783)"/>
<path d="M0 0 C0.33 0 0.66 0 1 0 C1 5.61 1 11.22 1 17 C0.67 17 0.34 17 0 17 C0 11.39 0 5.78 0 0 Z " fill="#0B0B0B" transform="translate(852,601)"/>
<path d="M0 0 C4.95 0 9.9 0 15 0 C15 0.33 15 0.66 15 1 C10.05 1 5.1 1 0 1 C0 0.67 0 0.34 0 0 Z " fill="#060605" transform="translate(587,783)"/>
<path d="M0 0 C0.33 0 0.66 0 1 0 C1 4.95 1 9.9 1 15 C0.67 15 0.34 15 0 15 C0 10.05 0 5.1 0 0 Z " fill="#0B0C0C" transform="translate(852,694)"/>
<path d="M0 0 C0.33 0 0.66 0 1 0 C1 4.62 1 9.24 1 14 C0.67 14 0.34 14 0 14 C0 9.38 0 4.76 0 0 Z " fill="#0B0B0B" transform="translate(852,628)"/>
<path d="M0 0 C0.33 0 0.66 0 1 0 C1 3.96 1 7.92 1 12 C0.67 12 0.34 12 0 12 C0 8.04 0 4.08 0 0 Z " fill="#0C0D0C" transform="translate(852,716)"/>
<path d="M0 0 C0.33 0 0.66 0 1 0 C1 3.63 1 7.26 1 11 C0.67 11 0.34 11 0 11 C0 7.37 0 3.74 0 0 Z " fill="#0B0B0B" transform="translate(852,318)"/>
<path d="M0 0 C0.33 0 0.66 0 1 0 C1 3.3 1 6.6 1 10 C0.67 10 0.34 10 0 10 C0 6.7 0 3.4 0 0 Z " fill="#0B0B0B" transform="translate(852,438)"/>
<path d="M0 0 C0.33 0 0.66 0 1 0 C1 2.97 1 5.94 1 9 C0.67 9 0.34 9 0 9 C0 6.03 0 3.06 0 0 Z " fill="#0C0C0B" transform="translate(852,569)"/>
<path d="M0 0 C0.33 0 0.66 0 1 0 C1 2.97 1 5.94 1 9 C0.67 9 0.34 9 0 9 C0 6.03 0 3.06 0 0 Z " fill="#0D0C0C" transform="translate(852,476)"/>
<path d="M0 0 C2.97 0 5.94 0 9 0 C9 0.33 9 0.66 9 1 C6.03 1 3.06 1 0 1 C0 0.67 0 0.34 0 0 Z " fill="#080907" transform="translate(412,336)"/>
<path d="M0 0 C0.33 0 0.66 0 1 0 C1 2.97 1 5.94 1 9 C0.67 9 0.34 9 0 9 C0 6.03 0 3.06 0 0 Z " fill="#0C0C0B" transform="translate(852,300)"/>
<path d="M0 0 C0.33 0 0.66 0 1 0 C1 2.64 1 5.28 1 8 C0.67 8 0.34 8 0 8 C0 5.36 0 2.72 0 0 Z " fill="#0C0C0B" transform="translate(852,498)"/>
<path d="M0 0 C0.33 0 0.66 0 1 0 C1 2.31 1 4.62 1 7 C0.67 7 0.34 7 0 7 C0 4.69 0 2.38 0 0 Z " fill="#0B0C0C" transform="translate(852,668)"/>
<path d="M0 0 C0.33 0 0.66 0 1 0 C1 2.31 1 4.62 1 7 C0.67 7 0.34 7 0 7 C0 4.69 0 2.38 0 0 Z " fill="#0B0B0B" transform="translate(852,652)"/>
<path d="M0 0 C0.33 0 0.66 0 1 0 C1 2.31 1 4.62 1 7 C0.67 7 0.34 7 0 7 C0 4.69 0 2.38 0 0 Z " fill="#0B0C0C" transform="translate(852,593)"/>
<path d="M0 0 C0.33 0 0.66 0 1 0 C1 2.31 1 4.62 1 7 C0.67 7 0.34 7 0 7 C0 4.69 0 2.38 0 0 Z " fill="#0B0B0B" transform="translate(852,531)"/>
<path d="M0 0 C0.33 0 0.66 0 1 0 C1 2.31 1 4.62 1 7 C0.67 7 0.34 7 0 7 C0 4.69 0 2.38 0 0 Z " fill="#0A0B0B" transform="translate(852,396)"/>
<path d="M0 0 C0.33 0 0.66 0 1 0 C1 1.98 1 3.96 1 6 C0.67 6 0.34 6 0 6 C0 4.02 0 2.04 0 0 Z " fill="#0B0C0C" transform="translate(852,620)"/>
<path d="M0 0 C0.33 0 0.66 0 1 0 C1 1.98 1 3.96 1 6 C0.67 6 0.34 6 0 6 C0 4.02 0 2.04 0 0 Z " fill="#0C0C0C" transform="translate(852,522)"/>
<path d="M0 0 C0.33 0 0.66 0 1 0 C1 1.98 1 3.96 1 6 C0.67 6 0.34 6 0 6 C0 4.02 0 2.04 0 0 Z " fill="#0B0B0B" transform="translate(852,372)"/>
<path d="M0 0 C0.33 0 0.66 0 1 0 C1 1.65 1 3.3 1 5 C0.67 5 0.34 5 0 5 C0 3.35 0 1.7 0 0 Z " fill="#0C0C0D" transform="translate(852,731)"/>
<path d="M0 0 C0.33 0 0.66 0 1 0 C1 1.65 1 3.3 1 5 C0.67 5 0.34 5 0 5 C0 3.35 0 1.7 0 0 Z " fill="#0B0C0C" transform="translate(852,710)"/>
<path d="M0 0 C0.33 0 0.66 0 1 0 C1 1.65 1 3.3 1 5 C0.67 5 0.34 5 0 5 C0 3.35 0 1.7 0 0 Z " fill="#0B0C0C" transform="translate(852,678)"/>
<path d="M0 0 C0.33 0 0.66 0 1 0 C1 1.65 1 3.3 1 5 C0.67 5 0.34 5 0 5 C0 3.35 0 1.7 0 0 Z " fill="#0B0B0B" transform="translate(852,662)"/>
<path d="M0 0 C0.33 0 0.66 0 1 0 C1 1.65 1 3.3 1 5 C0.67 5 0.34 5 0 5 C0 3.35 0 1.7 0 0 Z " fill="#0B0C0B" transform="translate(852,582)"/>
<path d="M0 0 C0.33 0 0.66 0 1 0 C1 1.65 1 3.3 1 5 C0.67 5 0.34 5 0 5 C0 3.35 0 1.7 0 0 Z " fill="#0C0C0C" transform="translate(852,515)"/>
<path d="M0 0 C0.33 0 0.66 0 1 0 C1 1.65 1 3.3 1 5 C0.67 5 0.34 5 0 5 C0 3.35 0 1.7 0 0 Z " fill="#0C0C0C" transform="translate(852,507)"/>
<path d="M0 0 C0.33 0 0.66 0 1 0 C1 1.65 1 3.3 1 5 C0.67 5 0.34 5 0 5 C0 3.35 0 1.7 0 0 Z " fill="#0B0B0B" transform="translate(852,404)"/>
<path d="M0 0 C4 1 4 1 4 1 Z " fill="#100F0F" transform="translate(763,895)"/>
<path d="M0 0 C4 1 4 1 4 1 Z " fill="#060605" transform="translate(639,783)"/>
<path d="M0 0 C1 4 1 4 1 4 Z " fill="#0D0D0D" transform="translate(852,737)"/>
<path d="M0 0 C1 4 1 4 1 4 Z " fill="#0C0C0C" transform="translate(852,564)"/>
<path d="M0 0 C1 4 1 4 1 4 Z " fill="#0B0C0B" transform="translate(852,556)"/>
<path d="M0 0 C1 4 1 4 1 4 Z " fill="#0B0C0D" transform="translate(852,540)"/>
<path d="M0 0 C1 4 1 4 1 4 Z " fill="#0C0C0C" transform="translate(852,454)"/>
<path d="M0 0 C1 4 1 4 1 4 Z " fill="#0C0C0C" transform="translate(852,428)"/>
<path d="M0 0 C1 4 1 4 1 4 Z " fill="#0B0B0C" transform="translate(852,421)"/>
<path d="M0 0 C1 4 1 4 1 4 Z " fill="#0B0C0C" transform="translate(852,412)"/>
<path d="M0 0 C1 4 1 4 1 4 Z " fill="#0B0B0B" transform="translate(852,366)"/>
<path d="M0 0 C1 4 1 4 1 4 Z " fill="#0A0B0B" transform="translate(852,348)"/>
<path d="M0 0 C1 4 1 4 1 4 Z " fill="#0A0B0B" transform="translate(852,334)"/>
<path d="M0 0 C4 1 4 1 4 1 Z " fill="#090A0A" transform="translate(357,336)"/>
<path d="M0 0 C1 4 1 4 1 4 Z " fill="#0B0B0B" transform="translate(852,310)"/>
<path d="M0 0 C3 1 3 1 3 1 Z " fill="#060606" transform="translate(644,783)"/>
<path d="" fill="#0D0D0D" transform="translate(0,0)"/>
<path d="" fill="#0A0B0B" transform="translate(0,0)"/>
<path d="" fill="#0A0A0B" transform="translate(0,0)"/>
<path d="" fill="#0B0B0C" transform="translate(0,0)"/>
<path d="M0 0 C3 1 3 1 3 1 Z " fill="#0A0807" transform="translate(367,336)"/>
<path d="" fill="#0C0C0D" transform="translate(0,0)"/>
<path d="" fill="#111111" transform="translate(0,0)"/>
<path d="M0 0 C2 1 2 1 2 1 Z " fill="#10100F" transform="translate(258,895)"/>
<path d="M0 0 C2 1 2 1 2 1 Z " fill="#101010" transform="translate(767,894)"/>
<path d="M0 0 C2 1 2 1 2 1 Z " fill="#100F10" transform="translate(226,885)"/>
<path d="M0 0 C2 1 2 1 2 1 Z " fill="#050605" transform="translate(533,783)"/>
<path d="M0 0 C2 1 2 1 2 1 Z " fill="#050505" transform="translate(528,783)"/>
<path d="M0 0 C2 1 2 1 2 1 Z " fill="#070505" transform="translate(525,783)"/>
<path d="M0 0 C2 1 2 1 2 1 Z " fill="#060605" transform="translate(521,783)"/>
<path d="M0 0 C2 1 2 1 2 1 Z " fill="#070706" transform="translate(288,783)"/>
<path d="" fill="#090A09" transform="translate(0,0)"/>
<path d="" fill="#0D0D0C" transform="translate(0,0)"/>
<path d="" fill="#0B0E0E" transform="translate(0,0)"/>
<path d="" fill="#0C0D0C" transform="translate(0,0)"/>
<path d="" fill="#0A0C0D" transform="translate(0,0)"/>
<path d="" fill="#0D0D0F" transform="translate(0,0)"/>
<path d="" fill="#0A0C0C" transform="translate(0,0)"/>
<path d="" fill="#0B0B0B" transform="translate(0,0)"/>
<path d="" fill="#0B0C0C" transform="translate(0,0)"/>
<path d="" fill="#0D0C0B" transform="translate(0,0)"/>
<path d="" fill="#0F1011" transform="translate(0,0)"/>
<path d="" fill="#0B0D0D" transform="translate(0,0)"/>
<path d="" fill="#0C0D0D" transform="translate(0,0)"/>
<path d="" fill="#0E0F0E" transform="translate(0,0)"/>
<path d="" fill="#0B0D0C" transform="translate(0,0)"/>
<path d="" fill="#0C0C0C" transform="translate(0,0)"/>
<path d="" fill="#0D0F0F" transform="translate(0,0)"/>
<path d="" fill="#0C0B0C" transform="translate(0,0)"/>
<path d="" fill="#0C0C0C" transform="translate(0,0)"/>
<path d="" fill="#0C0C0C" transform="translate(0,0)"/>
<path d="" fill="#0C0C0B" transform="translate(0,0)"/>
<path d="" fill="#0A0B0A" transform="translate(0,0)"/>
<path d="" fill="#0A0C0C" transform="translate(0,0)"/>
<path d="" fill="#0D100F" transform="translate(0,0)"/>
<path d="" fill="#090906" transform="translate(0,0)"/>
<path d="" fill="#0E0E0D" transform="translate(0,0)"/>
<path d="" fill="#0D0D0D" transform="translate(0,0)"/>
<path d="" fill="#0D100F" transform="translate(0,0)"/>
<path d="" fill="#0F1011" transform="translate(0,0)"/>
<path d="M0 0 C2 1 2 1 2 1 Z " fill="#0F0F0F" transform="translate(768,167)"/>
<path d="M0 0 C2 1 2 1 2 1 Z " fill="#101010" transform="translate(790,136)"/>
<path d="M0 0 C2 1 2 1 2 1 Z " fill="#121111" transform="translate(232,136)"/>
<path d="" fill="#767977" transform="translate(0,0)"/>
<path d="" fill="#100E0E" transform="translate(0,0)"/>
<path d="" fill="#11110F" transform="translate(0,0)"/>
<path d="" fill="#0F100E" transform="translate(0,0)"/>
<path d="" fill="#101011" transform="translate(0,0)"/>
<path d="" fill="#11110F" transform="translate(0,0)"/>
<path d="" fill="#0B0E0C" transform="translate(0,0)"/>
<path d="" fill="#11100D" transform="translate(0,0)"/>
<path d="" fill="#0E0C0E" transform="translate(0,0)"/>
<path d="" fill="#0F0F0E" transform="translate(0,0)"/>
<path d="" fill="#0F1010" transform="translate(0,0)"/>
<path d="" fill="#0F0D0C" transform="translate(0,0)"/>
<path d="" fill="#10100F" transform="translate(0,0)"/>
<path d="" fill="#090605" transform="translate(0,0)"/>
<path d="" fill="#0B0A07" transform="translate(0,0)"/>
<path d="" fill="#080706" transform="translate(0,0)"/>
<path d="" fill="#5E5E5E" transform="translate(0,0)"/>
<path d="" fill="#0A0C0C" transform="translate(0,0)"/>
<path d="" fill="#121012" transform="translate(0,0)"/>
<path d="" fill="#0F0F10" transform="translate(0,0)"/>
<path d="" fill="#090907" transform="translate(0,0)"/>
<path d="" fill="#0F0E0D" transform="translate(0,0)"/>
<path d="" fill="#0F0E0E" transform="translate(0,0)"/>
<path d="" fill="#121313" transform="translate(0,0)"/>
<path d="" fill="#0D0E0D" transform="translate(0,0)"/>
<path d="" fill="#0F0F0D" transform="translate(0,0)"/>
<path d="" fill="#050707" transform="translate(0,0)"/>
<path d="" fill="#0D100E" transform="translate(0,0)"/>
<path d="" fill="#0D0D0A" transform="translate(0,0)"/>
<path d="" fill="#101010" transform="translate(0,0)"/>
<path d="" fill="#0D0C0D" transform="translate(0,0)"/>
<path d="" fill="#0D0F0F" transform="translate(0,0)"/>
<path d="" fill="#0F0F0E" transform="translate(0,0)"/>
<path d="" fill="#0D0E0C" transform="translate(0,0)"/>
<path d="" fill="#0D0C0A" transform="translate(0,0)"/>
<path d="" fill="#0F0E11" transform="translate(0,0)"/>
<path d="" fill="#0D0C0C" transform="translate(0,0)"/>
<path d="" fill="#040403" transform="translate(0,0)"/>
<path d="" fill="#0D0F0F" transform="translate(0,0)"/>
<path d="" fill="#0C0C0C" transform="translate(0,0)"/>
<path d="" fill="#0D0D0E" transform="translate(0,0)"/>
<path d="" fill="#0C0C0B" transform="translate(0,0)"/>
<path d="" fill="#0E1110" transform="translate(0,0)"/>
<path d="" fill="#0D0C0B" transform="translate(0,0)"/>
<path d="" fill="#0F1111" transform="translate(0,0)"/>
<path d="" fill="#10100F" transform="translate(0,0)"/>
<path d="" fill="#111212" transform="translate(0,0)"/>
<path d="" fill="#0E0C0D" transform="translate(0,0)"/>
<path d="" fill="#121211" transform="translate(0,0)"/>
<path d="" fill="#0C0D0C" transform="translate(0,0)"/>
<path d="" fill="#0E0F0F" transform="translate(0,0)"/>
<path d="" fill="#0B0F11" transform="translate(0,0)"/>
<path d="" fill="#0B0C0C" transform="translate(0,0)"/>
<path d="" fill="#0E0F0F" transform="translate(0,0)"/>
<path d="" fill="#100F11" transform="translate(0,0)"/>
<path d="" fill="#0E110F" transform="translate(0,0)"/>
<path d="" fill="#0F1110" transform="translate(0,0)"/>
<path d="" fill="#0D0D0D" transform="translate(0,0)"/>
<path d="" fill="#0E0D0D" transform="translate(0,0)"/>
<path d="" fill="#0F0D0E" transform="translate(0,0)"/>
<path d="" fill="#111010" transform="translate(0,0)"/>
<path d="" fill="#0D0D0D" transform="translate(0,0)"/>
<path d="" fill="#101112" transform="translate(0,0)"/>
<path d="" fill="#0E0F11" transform="translate(0,0)"/>
<path d="" fill="#0D0D0C" transform="translate(0,0)"/>
<path d="" fill="#0F1010" transform="translate(0,0)"/>
<path d="" fill="#0E0F11" transform="translate(0,0)"/>
<path d="" fill="#0F100E" transform="translate(0,0)"/>
<path d="" fill="#101210" transform="translate(0,0)"/>
<path d="" fill="#0C110D" transform="translate(0,0)"/>
<path d="" fill="#0C0F0E" transform="translate(0,0)"/>
<path d="" fill="#0E0E11" transform="translate(0,0)"/>
<path d="" fill="#0D110E" transform="translate(0,0)"/>
<path d="" fill="#0D1011" transform="translate(0,0)"/>
<path d="" fill="#0E0E11" transform="translate(0,0)"/>
<path d="" fill="#0D0B0D" transform="translate(0,0)"/>
<path d="" fill="#111010" transform="translate(0,0)"/>
<path d="" fill="#0D100F" transform="translate(0,0)"/>
<path d="" fill="#0E0F0F" transform="translate(0,0)"/>
<path d="" fill="#0E0F0D" transform="translate(0,0)"/>
<path d="" fill="#0B0B0C" transform="translate(0,0)"/>
<path d="" fill="#0D0D0F" transform="translate(0,0)"/>
<path d="" fill="#0C0E0D" transform="translate(0,0)"/>
<path d="" fill="#0E0D0D" transform="translate(0,0)"/>
<path d="" fill="#0C0E0D" transform="translate(0,0)"/>
<path d="" fill="#0C0C0A" transform="translate(0,0)"/>
<path d="" fill="#0B0D0E" transform="translate(0,0)"/>
<path d="" fill="#0F0F0E" transform="translate(0,0)"/>
<path d="" fill="#0E1110" transform="translate(0,0)"/>
<path d="" fill="#0B0C0B" transform="translate(0,0)"/>
<path d="" fill="#0D0C0A" transform="translate(0,0)"/>
<path d="" fill="#0C0E0D" transform="translate(0,0)"/>
<path d="" fill="#0C0C0C" transform="translate(0,0)"/>
<path d="" fill="#0C0D0B" transform="translate(0,0)"/>
<path d="" fill="#080907" transform="translate(0,0)"/>
<path d="" fill="#090809" transform="translate(0,0)"/>
<path d="" fill="#070606" transform="translate(0,0)"/>
<path d="" fill="#090806" transform="translate(0,0)"/>
<path d="" fill="#0C0D0B" transform="translate(0,0)"/>
<path d="" fill="#0E0C0C" transform="translate(0,0)"/>
<path d="" fill="#0B0C0B" transform="translate(0,0)"/>
<path d="" fill="#0A0908" transform="translate(0,0)"/>
<path d="" fill="#0E1010" transform="translate(0,0)"/>
<path d="" fill="#0D0E0D" transform="translate(0,0)"/>
<path d="" fill="#0E0E0E" transform="translate(0,0)"/>
<path d="" fill="#0F0F0E" transform="translate(0,0)"/>
<path d="" fill="#0A0A07" transform="translate(0,0)"/>
<path d="" fill="#080808" transform="translate(0,0)"/>
<path d="" fill="#0E0E0C" transform="translate(0,0)"/>
<path d="" fill="#0F110F" transform="translate(0,0)"/>
<path d="" fill="#0A0A09" transform="translate(0,0)"/>
<path d="" fill="#100E0F" transform="translate(0,0)"/>
<path d="" fill="#101010" transform="translate(0,0)"/>
<path d="" fill="#131415" transform="translate(0,0)"/>
<path d="" fill="#090908" transform="translate(0,0)"/>
<path d="" fill="#080909" transform="translate(0,0)"/>
<path d="" fill="#090A09" transform="translate(0,0)"/>
<path d="" fill="#080807" transform="translate(0,0)"/>
<path d="" fill="#10110F" transform="translate(0,0)"/>
<path d="" fill="#101110" transform="translate(0,0)"/>
<path d="" fill="#100F0D" transform="translate(0,0)"/>
<path d="" fill="#121311" transform="translate(0,0)"/>
<path d="" fill="#110F11" transform="translate(0,0)"/>
<path d="" fill="#11110F" transform="translate(0,0)"/>
<path d="" fill="#141210" transform="translate(0,0)"/>
<path d="" fill="#0F100D" transform="translate(0,0)"/>
<path d="" fill="#0F0F0D" transform="translate(0,0)"/>
<path d="" fill="#110D0E" transform="translate(0,0)"/>
<path d="" fill="#0E0F10" transform="translate(0,0)"/>
<path d="" fill="#0F0F0D" transform="translate(0,0)"/>
<path d="" fill="#0E0D0E" transform="translate(0,0)"/>
<path d="" fill="#100F0C" transform="translate(0,0)"/>
<path d="" fill="#0E0D0D" transform="translate(0,0)"/>
<path d="" fill="#0E0E0E" transform="translate(0,0)"/>
<path d="" fill="#100E0E" transform="translate(0,0)"/>
<path d="" fill="#121212" transform="translate(0,0)"/>
<path d="" fill="#120F10" transform="translate(0,0)"/>
<path d="" fill="#0E1110" transform="translate(0,0)"/>
<path d="" fill="#110F10" transform="translate(0,0)"/>
<path d="" fill="#111311" transform="translate(0,0)"/>
<path d="" fill="#111010" transform="translate(0,0)"/>
<path d="" fill="#141312" transform="translate(0,0)"/>
<path d="" fill="#110F0E" transform="translate(0,0)"/>
<path d="" fill="#110F11" transform="translate(0,0)"/>
<path d="" fill="#858382" transform="translate(0,0)"/>
</svg>
