<svg width="112" height="112" viewBox="0 0 112 112" fill="none" xmlns="http://www.w3.org/2000/svg">
<path fill-rule="evenodd" clip-rule="evenodd" d="M101.993 53.3707L93.0076 58.5668V60.8644L101.993 55.6683V53.3707ZM93.0076 63.7158V65.5068C94.2441 65.3654 95.563 65.2829 96.9527 65.2829C100.05 65.2829 102.888 65.6835 104.961 66.3198C107.457 67.0857 109 68.3228 109 69.8546V81.272C109 83.4518 106.327 84.5947 103.371 85.1838C100.862 85.6787 98.0714 85.8201 97.0587 85.8318H96.8702C95.8575 85.8318 93.0664 85.6787 90.558 85.1838C88.3087 84.7361 86.2361 83.9702 85.3528 82.6741C84.7522 82.7566 84.1752 82.8155 83.657 82.8626C82.4558 82.9687 81.4548 83.004 80.972 83.004H80.9131C79.9239 83.004 77.1211 82.8626 74.6009 82.3678C71.6215 81.7786 68.9364 80.6357 68.9364 78.4441V77.6547L39.2009 94.8338C38.7651 95.0812 38.2116 95.0576 37.7995 94.7277L3.54172 66.9207C3.21198 66.6968 3 66.3198 3 65.8956V55.5976C3 55.3266 3.09421 55.0438 3.28264 54.8199C3.4004 54.6786 3.52994 54.5725 3.68304 54.5018L68.3005 17.1626C68.7598 16.9034 69.3133 16.9623 69.7019 17.2805L104.019 45.1228C104.325 45.3703 104.478 45.7237 104.478 46.089V56.387C104.478 56.8937 104.183 57.3179 103.748 57.5182L92.9958 63.7276L93.0076 63.7158ZM68.9129 74.7679V72.7178V67.015V61.324V56.2456L41.933 35.2372L32.7945 40.5158L66.4516 66.7204C66.7696 66.9443 66.9698 67.3095 66.9698 67.7337V75.8873L68.9247 74.7562L68.9129 74.7679ZM64.4849 77.3248V75.0389L39.1773 89.6494C38.7063 89.9204 38.1174 89.8497 37.7288 89.508L5.48484 63.3506V65.3065L38.6709 92.2416L64.4732 77.3366L64.4849 77.3248ZM5.48484 60.1575L38.6709 87.0926L64.4732 72.1875V69.9017L39.1655 84.5122C38.6945 84.7832 38.1057 84.7125 37.717 84.3708L5.48484 58.1898V60.1457V60.1575ZM101.993 48.2217V50.5193L93.0076 55.7154V55.6565C93.0076 54.9967 92.7367 54.4076 92.2303 53.8773L101.993 48.2334V48.2217ZM106.503 72.8002C106.044 73.0241 105.514 73.2244 104.949 73.4012C102.876 74.0374 100.05 74.438 96.9409 74.438C93.8319 74.438 91.0056 74.0492 88.9329 73.4012C88.3559 73.2244 87.8377 73.0241 87.3784 72.8002V75.5456C87.3784 75.8637 88.2499 76.2879 89.663 76.7239C91.5002 77.2894 94.0674 77.6429 96.9409 77.6429C99.8143 77.6429 102.382 77.2894 104.219 76.7239C105.632 76.2879 106.503 75.8637 106.503 75.5574V72.8002ZM84.8936 71.3745C84.5167 71.4217 84.1281 71.457 83.7277 71.4924C82.8327 71.5631 81.9023 71.5984 80.9484 71.5984C77.8512 71.5984 75.0131 71.1978 72.9404 70.5615C72.3634 70.3848 71.8452 70.1845 71.386 69.9606V72.7178C71.386 73.0241 72.2574 73.4483 73.6706 73.8843C75.5077 74.4498 78.075 74.8033 80.9484 74.8033C81.8552 74.8033 82.7149 74.7679 83.5275 74.709C83.9986 74.6737 84.4461 74.6266 84.8818 74.5676V71.3745H84.8936ZM106.503 78.4913C106.044 78.7151 105.514 78.9154 104.949 79.0922C102.876 79.7284 100.05 80.129 96.9409 80.129C93.8319 80.129 91.0056 79.7284 88.9329 79.0922C88.3559 78.9154 87.8377 78.7151 87.3784 78.4913V81.2602C87.3784 81.8493 89.0978 82.356 91.0056 82.733C93.3726 83.2043 95.9399 83.3339 96.8702 83.3457H97.0233C97.9537 83.3457 100.521 83.2043 102.888 82.733C104.796 82.356 106.515 81.8493 106.515 81.2602V78.4913H106.503ZM84.8936 77.0656C84.5167 77.1127 84.1281 77.148 83.7277 77.1834C82.8327 77.2541 81.9023 77.2894 80.9484 77.2894C77.8512 77.2894 75.0131 76.8888 72.9404 76.2526C72.3634 76.0758 71.8452 75.8755 71.386 75.6516V78.4206C71.386 79.0097 73.1171 79.5281 75.0484 79.9052C77.4273 80.3765 79.9946 80.5061 80.9013 80.5061H80.9484C81.3842 80.5061 82.3027 80.4707 83.4215 80.3765C83.8926 80.3293 84.399 80.2822 84.8936 80.2233V77.0773V77.0656ZM90.5109 65.9074V64.2578C90.0517 64.4817 89.5217 64.682 88.9564 64.8587C86.8838 65.495 84.0574 65.8956 80.9484 65.8956C77.8395 65.8956 75.0131 65.5068 72.9404 64.8587C72.3634 64.682 71.8452 64.4817 71.386 64.2578V67.015C71.386 67.3213 72.2574 67.7455 73.6706 68.1815C75.5077 68.747 78.075 69.1005 80.9484 69.1005C81.8552 69.1005 82.7149 69.0652 83.5275 69.0062C84.081 68.9591 84.6227 68.9002 85.1291 68.8413C85.659 67.7808 87.0133 66.9089 88.9329 66.3198C89.4157 66.1666 89.9457 66.037 90.5109 65.9074ZM104.207 68.6881C102.37 68.1225 99.8026 67.7691 96.9291 67.7691C94.0557 67.7691 91.4884 68.1225 89.6513 68.6881C88.2381 69.1241 87.3666 69.5482 87.3666 69.8546C87.3666 70.1609 88.2381 70.5851 89.6513 71.0211C91.4884 71.5866 94.0557 71.9401 96.9291 71.9401C99.8026 71.9401 102.37 71.5866 104.207 71.0211C105.62 70.5851 106.492 70.1609 106.492 69.8546C106.492 69.5482 105.62 69.1241 104.207 68.6881ZM90.5109 58.5668C90.0517 58.7907 89.5217 58.991 88.9564 59.1677C86.8838 59.804 84.0574 60.2046 80.9484 60.2046C77.8395 60.2046 75.0131 59.804 72.9404 59.1677C72.3634 58.991 71.8452 58.7907 71.386 58.5668V61.324C71.386 61.6303 72.2574 62.0545 73.6706 62.4904C75.5077 63.056 78.075 63.4095 80.9484 63.4095C83.8219 63.4095 86.3892 63.056 88.2263 62.4904C89.6395 62.0545 90.5109 61.6303 90.5109 61.324V58.5668ZM71.386 55.6329C71.386 55.9511 72.2574 56.3635 73.6706 56.7994C75.5077 57.365 78.075 57.7185 80.9484 57.7185C83.8219 57.7185 86.3892 57.365 88.2263 56.7994C89.6395 56.3635 90.5109 55.9393 90.5109 55.6329C90.5109 55.3148 89.6395 54.9024 88.2263 54.4665C86.3892 53.9009 83.8219 53.5474 80.9484 53.5474C78.075 53.5474 75.5077 53.9009 73.6706 54.4665C72.2574 54.9024 71.386 55.3266 71.386 55.6329ZM80.9484 51.0613C81.4784 51.0613 81.9966 51.0613 82.5029 51.0966L88.9329 47.3851C88.8976 47.2673 88.8622 47.1495 88.8269 47.0198C88.6856 46.5014 88.6149 45.9712 88.6149 45.4174C88.6149 44.6987 88.7445 44.0035 88.9682 43.3437C89.0624 43.0727 89.1802 42.8017 89.3097 42.5542L72.3752 28.8157C71.9866 29.1338 71.5626 29.4048 71.1033 29.6287C70.2907 30.0175 69.3957 30.2296 68.4418 30.2296C67.3231 30.2296 66.2632 29.9232 65.3564 29.4048C64.7676 29.0631 64.2494 28.6389 63.8137 28.1441L48.3041 37.0989L69.7608 53.7949C70.4556 53.1115 71.5508 52.5341 72.9404 52.1099C75.0131 51.4737 77.8395 51.0731 80.9484 51.0731V51.0613ZM86.6718 51.5444C87.5079 51.6975 88.2734 51.8861 88.9564 52.0864C89.2626 52.1806 89.5453 52.2749 89.8161 52.3809L101.051 45.8887L68.7951 19.7077L44.2412 33.894L46.2079 35.4257L63.4839 25.4458C63.4839 25.4458 63.531 25.4223 63.5428 25.4105C64.1316 25.0688 64.8971 25.2691 65.2386 25.8582C65.5684 26.4238 66.0394 26.8951 66.6047 27.225C67.1464 27.5431 67.7824 27.7199 68.4654 27.7199C69.0424 27.7199 69.5724 27.5903 70.0552 27.3664C70.5616 27.1307 70.9973 26.7773 71.3506 26.3531C71.7864 25.8229 72.5636 25.7404 73.0935 26.1764L91.7592 41.3288C92.2892 41.7648 92.3716 42.5424 91.9359 43.0727C91.6768 43.3908 91.4648 43.7678 91.3235 44.1684C91.1822 44.5573 91.1115 44.9697 91.1115 45.4174C91.1115 45.7591 91.1586 46.0772 91.2411 46.3836C91.3235 46.7017 91.4531 47.0081 91.6061 47.2791C91.9477 47.8682 91.7475 48.6223 91.1469 48.964L86.6718 51.5444ZM37.0575 55.4916C35.6797 55.4916 34.4432 56.0453 33.5482 56.9526C32.6531 57.8481 32.0879 59.097 32.0879 60.4756C32.0879 61.8542 32.6414 63.0914 33.5482 63.9868C34.4432 64.8823 35.6915 65.4479 37.0575 65.4479C38.4236 65.4479 39.6719 64.8941 40.5669 63.9868C41.4619 63.0914 42.0272 61.8424 42.0272 60.4756C42.0272 59.1088 41.4737 57.8599 40.5669 56.9644C39.6719 56.0689 38.4236 55.5033 37.0575 55.5033V55.4916ZM38.8122 58.7082C38.3647 58.2605 37.7406 57.9777 37.0575 57.9777C36.3745 57.9777 35.7504 58.2605 35.3029 58.7082C34.8553 59.156 34.5727 59.7804 34.5727 60.4638C34.5727 61.1472 34.8553 61.7717 35.3029 62.2194C35.7504 62.6672 36.3745 62.95 37.0575 62.95C37.7406 62.95 38.3647 62.6672 38.8122 62.2194C39.2597 61.7717 39.5424 61.1472 39.5424 60.4638C39.5424 59.7804 39.2597 59.156 38.8122 58.7082ZM70.4321 36.2152C69.0542 36.2152 67.8177 36.7689 66.9227 37.6762C66.0277 38.5835 65.4624 39.8206 65.4624 41.1874C65.4624 42.5542 66.0159 43.8032 66.9227 44.6987C67.8177 45.5941 69.066 46.1597 70.4321 46.1597C71.7981 46.1597 73.0464 45.6059 73.9415 44.6987C74.8365 43.8032 75.4017 42.5542 75.4017 41.1874C75.4017 39.8206 74.8482 38.5717 73.9415 37.6644C73.0464 36.7689 71.7981 36.2034 70.4321 36.2034V36.2152ZM72.1868 39.4318C71.7393 38.9841 71.1151 38.7013 70.4321 38.7013C69.749 38.7013 69.1249 38.9841 68.6774 39.4318C68.2299 39.8796 67.9472 40.504 67.9472 41.1874C67.9472 41.8708 68.2299 42.4953 68.6774 42.943C69.1249 43.3908 69.749 43.6736 70.4321 43.6736C71.1151 43.6736 71.7393 43.3908 72.1868 42.943C72.6343 42.4953 72.9169 41.8708 72.9169 41.1874C72.9169 40.504 72.6343 39.8796 72.1868 39.4318ZM34.5138 45.0521L18.5096 54.3015C18.5449 54.4193 18.5803 54.5372 18.6156 54.6668C18.7569 55.1852 18.8276 55.7154 18.8276 56.2692C18.8276 56.988 18.698 57.6831 18.4743 58.343C18.3801 58.614 18.2623 58.885 18.1328 59.1324L35.0673 72.8709C35.4559 72.5528 35.8799 72.2818 36.3392 72.0579C37.1518 71.6691 38.0468 71.457 39.0007 71.457C40.1194 71.457 41.1793 71.7634 42.0861 72.2936C42.6631 72.6353 43.1931 73.0595 43.6288 73.5543L59.4093 64.4346L34.5138 45.0521ZM61.5173 66.0724L43.8997 76.2526C43.3109 76.5943 42.5454 76.394 42.2039 75.8048C41.8741 75.2393 41.4031 74.7679 40.8378 74.438C40.2961 74.1317 39.6601 73.9432 38.9771 73.9432C38.4001 73.9432 37.8583 74.0728 37.3873 74.2966C36.8809 74.5323 36.4452 74.8858 36.0919 75.31C35.6561 75.8402 34.8789 75.9226 34.349 75.4867L15.6833 60.3342C15.1533 59.8983 15.0709 59.1206 15.5066 58.5904C15.7657 58.2723 15.9777 57.8952 16.119 57.4946C16.2603 57.1058 16.331 56.6934 16.331 56.2456C16.331 55.9039 16.2839 55.5858 16.2014 55.2795C16.119 54.9613 15.9894 54.655 15.8364 54.384C15.4948 53.7949 15.695 53.0408 16.2956 52.6991L32.3941 43.3908L30.4274 41.859L6.37985 55.7508L38.6356 81.92L63.4722 67.5805L61.5173 66.0488V66.0724Z" fill="#06306A"/>
</svg>
