<?xml version="1.0" encoding="UTF-8"?>
<svg version="1.1" xmlns="http://www.w3.org/2000/svg" width="1024" height="1024">
<path d="M0 0 C4.87737475 4.10142876 7.70891286 8.22115342 8.38130885 14.64014292 C8.39949512 16.02313461 8.40148253 17.40640042 8.39034748 18.78946686 C8.39609658 19.55871723 8.40184568 20.32796759 8.40776899 21.12052858 C8.42340563 23.70147591 8.41773686 26.2819327 8.41218567 28.86291504 C8.4190565 30.73078014 8.42723294 32.59864081 8.43660372 34.46649504 C8.45854744 39.60225486 8.46181921 44.73788392 8.46205795 49.87368441 C8.46554507 55.41176224 8.48621709 60.94977921 8.50473022 66.48782349 C8.53824308 77.34030834 8.55570488 88.1927629 8.56765769 99.04529065 C8.58210043 111.68613749 8.61169114 124.32693518 8.64175066 136.96775287 C8.69642133 160.21154609 8.7349274 183.4553378 8.76617835 206.69917073 C8.7947705 227.90072003 8.83594137 249.10220748 8.88842773 270.30371094 C8.89179136 271.663917 8.89515462 273.02412307 8.89851753 274.38432914 C8.90101141 275.39303324 8.90101141 275.39303324 8.90355568 276.4221152 C8.91191802 279.80750513 8.92024952 283.19289513 8.92854786 286.57828522 C8.93018594 287.24622168 8.93182402 287.91415815 8.93351174 288.60233511 C8.9768107 306.33014908 9.01045528 324.05798143 9.04115504 341.78582144 C9.04556431 344.32878717 9.0499753 346.8717529 9.05438805 349.41471863 C9.05654862 350.66588479 9.05870919 351.91705096 9.06093523 353.20613125 C9.07652497 362.01217098 9.09646527 370.81819472 9.11795998 379.6242218 C9.14398642 390.36585911 9.16252825 401.10747974 9.17171214 411.84914511 C9.1765582 417.32726807 9.1845721 422.80533546 9.20141029 428.28343582 C9.21674124 433.304762 9.22259581 438.32600939 9.22109183 443.34735793 C9.2221626 445.15764998 9.22659344 446.96794406 9.23484788 448.77821761 C9.34942021 475.13606077 3.96016577 497.63776312 -15 517 C-33.2830655 534.49030385 -56.19471846 543.46022381 -81.421875 543.29858398 C-106.3469312 542.65598488 -127.55400279 532.71327571 -145 515 C-156 502.53215434 -156 502.53215434 -156 498 C-156.66 497.67 -157.32 497.34 -158 497 C-167.09583206 476.50522456 -166.8654421 453.78987748 -159 433 C-155.70793669 425.55431411 -151.24503167 419.19085706 -146 413 C-145.3090625 412.175 -144.618125 411.35 -143.90625 410.5 C-127.34321694 391.37086323 -104.92434108 380.99247442 -79.9375 378.1875 C-68.60604751 377.49231887 -56.69216544 378.86671758 -45.625 381.3125 C-40.76332162 382.30183996 -38.22092875 381.60440285 -34 379 C-31.47200452 375.20800678 -31.54684292 371.97448769 -31.37890625 367.5637207 C-31.34116592 366.7199075 -31.3034256 365.8760943 -31.26454163 365.00671101 C-30.91915843 356.54436749 -30.88380545 348.0861232 -30.92483521 339.61806297 C-30.93790038 336.89708559 -30.94418711 334.17615831 -30.94897461 331.45515442 C-30.96023496 325.69924647 -30.97953571 319.94338159 -31 314.1875 C-31.02370336 307.4625765 -31.04400106 300.7376756 -31.05593872 294.01272011 C-31.0623826 291.34163354 -31.07487542 288.67062018 -31.08764648 285.9995575 C-31.09127849 284.36323102 -31.09463028 282.72690388 -31.09765625 281.09057617 C-31.10282257 280.35653564 -31.10798889 279.62249512 -31.11331177 278.86621094 C-31.11372831 274.80347308 -30.78920682 270.98575287 -30 267 C-30.66 266.67 -31.32 266.34 -32 266 C-31.67 265.67 -31.34 265.34 -31 265 C-30.9024257 263.61844077 -30.87368366 262.23193952 -30.87301636 260.84693909 C-30.86878662 259.50346153 -30.86878662 259.50346153 -30.86447144 258.13284302 C-30.86649567 257.14226898 -30.8685199 256.15169495 -30.87060547 255.13110352 C-30.86885315 254.0936348 -30.86710083 253.05616608 -30.86529541 251.98725891 C-30.86087095 248.53445799 -30.86381888 245.08170776 -30.8671875 241.62890625 C-30.86651417 239.23290497 -30.8655439 236.83690376 -30.86428833 234.44090271 C-30.86281018 229.40436151 -30.86496795 224.36783798 -30.86962891 219.33129883 C-30.8752987 212.89213669 -30.87206547 206.45301649 -30.86605644 200.01385593 C-30.86243038 195.057731 -30.86359928 190.10161588 -30.86618423 185.14549065 C-30.86684929 182.7729587 -30.86603987 180.40042586 -30.86370468 178.02789497 C-30.86114769 174.69638872 -30.86506271 171.36494863 -30.87060547 168.03344727 C-30.86756912 166.57491333 -30.86756912 166.57491333 -30.86447144 165.08691406 C-30.50712358 154.06195371 -30.50712358 154.06195371 -33.875 143.9375 C-36.63540489 141.42066025 -38.47285854 141.03548574 -42.17700195 140.78613281 C-46.5352156 141.02994118 -50.06308808 142.02666525 -54.16796875 143.421875 C-55.3368866 143.80534592 -55.3368866 143.80534592 -56.52941895 144.19656372 C-59.08549423 145.03784238 -61.63639641 145.89377543 -64.1875 146.75 C-65.992303 147.34739801 -67.79740226 147.94390166 -69.6027832 148.53955078 C-74.20336755 150.06019897 -78.79979798 151.59299338 -83.39501953 153.12976074 C-87.28222317 154.42834906 -91.1724469 155.71779152 -95.0625 157.0078125 C-103.22712339 159.71839435 -111.38572871 162.44684856 -119.5435791 165.17773438 C-142.6722237 172.91984788 -165.80563003 180.64412213 -189 188.1875 C-189.88239349 188.47452789 -190.76478699 188.76155579 -191.67391968 189.05728149 C-200.40303735 191.89546546 -209.13519689 194.72403067 -217.87322998 197.53465271 C-221.24379949 198.61905516 -224.61360077 199.70583485 -227.98339844 200.79263306 C-230.2848963 201.53349523 -232.5876983 202.27018567 -234.890625 203.0065918 C-242.50670459 205.45460201 -250.00423722 208.06096954 -257.44775391 210.99975586 C-259.2793073 211.71755519 -261.13376279 212.37792093 -263 213 C-264.73630202 216.99940201 -265.25046935 220.48893133 -265.25333309 224.81888485 C-265.26175619 226.53675918 -265.26175619 226.53675918 -265.27034944 228.28933805 C-265.26636835 229.53786025 -265.26238726 230.78638245 -265.25828552 232.07273865 C-265.26114155 233.4201632 -265.26488032 234.76758611 -265.26942402 236.11500603 C-265.27939549 239.8122362 -265.27703404 243.50937138 -265.27269709 247.20660865 C-265.27021919 251.19661377 -265.27929163 255.18659403 -265.28707886 259.17658997 C-265.29912232 266.09111903 -265.30423174 273.00562505 -265.30496025 279.92016411 C-265.30628695 289.93374791 -265.3214089 299.9472759 -265.34045542 309.96083999 C-265.37130073 326.22901337 -265.39546221 342.49718817 -265.41333008 358.76538086 C-265.41440276 359.73897484 -265.41547544 360.71256882 -265.41658062 361.71566565 C-265.42839017 372.56758364 -265.43859632 383.4195022 -265.44702148 394.27142334 C-265.45009518 398.20137534 -265.45318402 402.13132733 -265.45629883 406.0612793 C-265.45706417 407.03095646 -265.45782951 408.00063362 -265.45861804 408.99969494 C-265.47172189 425.19644841 -265.49639452 441.39316164 -265.53004223 457.58988529 C-265.55028261 467.57083823 -265.56062847 477.55170494 -265.55805302 487.53267855 C-265.55701406 494.38123294 -265.56671702 501.22971938 -265.58469205 508.07825004 C-265.59468802 512.02339158 -265.59991846 515.96838272 -265.59192467 519.91353226 C-265.58467359 523.53546473 -265.59148797 527.15710605 -265.60881007 530.77900184 C-265.61444715 532.68832152 -265.60556182 534.59766771 -265.59590715 536.5069713 C-265.7687685 561.07499696 -274.49310536 582.65983769 -292 600 C-303.23905214 610.62365735 -316.01323821 618.01192613 -331 622 C-331.79664063 622.22429688 -332.59328125 622.44859375 -333.4140625 622.6796875 C-355.8275126 627.87391562 -379.57633406 622.91753797 -399.3046875 611.73046875 C-404.22591132 608.57090041 -408.62438857 604.86729864 -413 601 C-413.93779297 600.20529297 -413.93779297 600.20529297 -414.89453125 599.39453125 C-429.46645955 586.11940219 -436.81431164 566.72851618 -438.1796875 547.46484375 C-438.82919472 525.27334694 -430.41811256 505.49791828 -416 489 C-415.14728516 488.00419922 -415.14728516 488.00419922 -414.27734375 486.98828125 C-398.30090724 469.67754895 -374.8249933 459.80738052 -351.53515625 458.65625 C-341.8094692 458.39791808 -332.42511103 459.00832774 -322.89624023 461.01977539 C-318.30022 461.96570877 -314.58568283 462.03676308 -310 461 C-307.6818638 459.10888889 -306.33085985 457.66171969 -305 455 C-304.84401625 452.71903911 -304.74954759 450.43377415 -304.68359375 448.1484375 C-304.6524221 447.11089828 -304.6524221 447.11089828 -304.62062073 446.05239868 C-304.57729636 444.57796483 -304.53626196 443.10346221 -304.49731445 441.62890625 C-304.43901544 439.43210416 -304.37351178 437.23561838 -304.30664062 435.0390625 C-304.09325144 427.7484539 -303.94966309 420.45776934 -303.91015625 413.1640625 C-303.90250244 411.88225098 -303.89484863 410.60043945 -303.88696289 409.27978516 C-303.97933539 406.59958622 -304.28569594 404.54630507 -305 402 C-304.89067577 400.03763015 -304.71867991 398.07820924 -304.5 396.125 C-304.08109924 391.83126721 -304.10619907 388.24555441 -305 384 C-304.67 383.34 -304.34 382.68 -304 382 C-304.09002398 379.97591245 -304.24641038 377.95455713 -304.4375 375.9375 C-305.68164062 361.36328125 -305.68164062 361.36328125 -304 358 C-303.90090181 355.42636176 -303.86107849 352.88565909 -303.875 350.3125 C-303.87113281 349.61705078 -303.86726562 348.92160156 -303.86328125 348.20507812 C-303.86457031 347.51478516 -303.86585938 346.82449219 -303.8671875 346.11328125 C-303.86887939 345.18189331 -303.86887939 345.18189331 -303.87060547 344.23168945 C-303.96752258 341.86455004 -303.96752258 341.86455004 -304.5 339.01924133 C-305.19973531 334.17393264 -305.13958515 329.34729821 -305.12939453 324.46044922 C-305.13111003 323.41317248 -305.13282553 322.36589575 -305.13459301 321.28688335 C-305.13892186 317.7928026 -305.13595502 314.29876895 -305.1328125 310.8046875 C-305.13404178 308.30793744 -305.13561123 305.81118752 -305.13749695 303.31443787 C-305.14106733 295.86909129 -305.13548511 288.42377664 -305.12725878 280.97843599 C-305.12500561 278.88022533 -305.12303368 276.78201458 -305.12115097 274.68380356 C-305.10547503 257.42572633 -305.07425712 240.167716 -305.03044605 222.909688 C-305.01266124 215.83731605 -304.99704201 208.7649553 -304.98822021 201.69256592 C-304.98737435 201.01744493 -304.98652848 200.34232393 -304.98565698 199.64674473 C-304.98481976 198.97523097 -304.98398255 198.30371721 -304.98311996 197.61185455 C-304.96708723 184.76504393 -304.93347865 171.91848208 -304.8646965 159.07183075 C-304.8329389 153.11821309 -304.80885913 147.16482765 -304.80499268 141.21112061 C-304.80081157 135.64473283 -304.77296533 130.07896585 -304.72669411 124.51277351 C-304.71379729 122.4880234 -304.70921608 120.46319959 -304.71381187 118.43841362 C-304.75198394 96.9134323 -304.75198394 96.9134323 -297.20982361 89.15957642 C-291.80657711 84.36905337 -284.92578281 82.74320323 -278.125 80.8125 C-276.22147209 80.24890838 -274.31796968 79.68522174 -272.41555786 79.11787415 C-271.07467054 78.71807507 -269.73324888 78.32006423 -268.3913269 77.92375183 C-263.1131576 76.35790657 -257.87309905 74.68847122 -252.640625 72.9765625 C-251.47882217 72.5966642 -251.47882217 72.5966642 -250.29354858 72.20909119 C-247.22892894 71.20511837 -244.16518715 70.19855705 -241.10308838 69.18692017 C-238.97358251 68.48414049 -236.84241456 67.78661753 -234.7109375 67.08984375 C-233.48681152 66.68628662 -232.26268555 66.28272949 -231.00146484 65.86694336 C-228 65 -228 65 -225 65 C-224.67 64.34 -224.34 63.68 -224 63 C-222.00733931 62.62528078 -220.00537272 62.2993182 -218 62 C-216.01438261 61.40911259 -214.04176226 60.7733353 -212.08203125 60.1015625 C-210.35182739 59.51483765 -210.35182739 59.51483765 -208.58666992 58.91625977 C-207.34119385 58.49014404 -206.09571777 58.06402832 -204.8125 57.625 C-193.48265981 53.78611705 -182.10981856 50.11609259 -170.6875 46.5625 C-159.56274173 43.09653085 -148.48024978 39.53139253 -137.4375 35.8125 C-122.47965857 30.77739726 -107.45558474 25.95929631 -92.41891479 21.16534424 C-75.13277238 15.6538778 -57.87006717 10.07460804 -40.62744141 4.4284668 C-26.95086129 -0.04713138 -26.95086129 -0.04713138 -21.13671875 -1.86328125 C-20.44022217 -2.08153564 -19.74372559 -2.29979004 -19.02612305 -2.5246582 C-12.22530735 -4.12017431 -6.09323516 -3.46478078 0 0 Z " fill="#000000" transform="translate(697,193)"/>
<path d="M0 0 C1 4 1 4 1 4 Z " fill="#0C0C0D" transform="translate(664,561)"/>
<path d="M0 0 C4 1 4 1 4 1 Z " fill="#141414" transform="translate(681,188)"/>
<path d="M0 0 C0.33 0.66 0.66 1.32 1 2 C0.34 1.67 -0.32 1.34 -1 1 C-0.67 0.67 -0.34 0.34 0 0 Z " fill="#151515" transform="translate(273,689)"/>
<path d="" fill="#100F0F" transform="translate(0,0)"/>
<path d="" fill="#0F0F0E" transform="translate(0,0)"/>
<path d="" fill="#151414" transform="translate(0,0)"/>
<path d="" fill="#171717" transform="translate(0,0)"/>
<path d="M0 0 C2 1 2 1 2 1 Z " fill="#101010" transform="translate(636,735)"/>
<path d="" fill="#0E0F0E" transform="translate(0,0)"/>
<path d="" fill="#141314" transform="translate(0,0)"/>
<path d="" fill="#0F1010" transform="translate(0,0)"/>
<path d="M0 0 C2 1 2 1 2 1 Z " fill="#0D0C0E" transform="translate(351,650)"/>
<path d="" fill="#0D0F0F" transform="translate(0,0)"/>
<path d="M0 0 C2 1 2 1 2 1 Z " fill="#0F0D0D" transform="translate(442,403)"/>
<path d="M0 0 C2 1 2 1 2 1 Z " fill="#0E0D0D" transform="translate(604,350)"/>
<path d="M0 0 C2 1 2 1 2 1 Z " fill="#131213" transform="translate(544,232)"/>
<path d="M0 0 C2 1 2 1 2 1 Z " fill="#141314" transform="translate(568,224)"/>
<path d="M0 0 C2 1 2 1 2 1 Z " fill="#141313" transform="translate(668,192)"/>
<path d="" fill="#4A4B4A" transform="translate(0,0)"/>
<path d="" fill="#11100E" transform="translate(0,0)"/>
<path d="" fill="#111311" transform="translate(0,0)"/>
<path d="" fill="#121311" transform="translate(0,0)"/>
<path d="" fill="#100F10" transform="translate(0,0)"/>
<path d="" fill="#131514" transform="translate(0,0)"/>
<path d="" fill="#141515" transform="translate(0,0)"/>
<path d="" fill="#171917" transform="translate(0,0)"/>
<path d="" fill="#161617" transform="translate(0,0)"/>
<path d="" fill="#0E0F10" transform="translate(0,0)"/>
<path d="" fill="#171817" transform="translate(0,0)"/>
<path d="" fill="#0E0F0D" transform="translate(0,0)"/>
<path d="" fill="#111111" transform="translate(0,0)"/>
<path d="" fill="#141415" transform="translate(0,0)"/>
<path d="" fill="#0F0F0E" transform="translate(0,0)"/>
<path d="" fill="#121011" transform="translate(0,0)"/>
<path d="" fill="#10100E" transform="translate(0,0)"/>
<path d="" fill="#0F0E0F" transform="translate(0,0)"/>
<path d="" fill="#0E0F0C" transform="translate(0,0)"/>
<path d="" fill="#0C0D0E" transform="translate(0,0)"/>
<path d="" fill="#0E0E0E" transform="translate(0,0)"/>
<path d="" fill="#10100F" transform="translate(0,0)"/>
<path d="" fill="#0F0F0F" transform="translate(0,0)"/>
<path d="" fill="#0E0F10" transform="translate(0,0)"/>
<path d="" fill="#100F0D" transform="translate(0,0)"/>
<path d="" fill="#11100F" transform="translate(0,0)"/>
<path d="" fill="#10100E" transform="translate(0,0)"/>
<path d="" fill="#100F0E" transform="translate(0,0)"/>
<path d="" fill="#0F100F" transform="translate(0,0)"/>
<path d="" fill="#0E0F0E" transform="translate(0,0)"/>
<path d="" fill="#0E1010" transform="translate(0,0)"/>
<path d="" fill="#0F0F11" transform="translate(0,0)"/>
<path d="" fill="#120F10" transform="translate(0,0)"/>
<path d="" fill="#0E0C0C" transform="translate(0,0)"/>
<path d="" fill="#0E100F" transform="translate(0,0)"/>
<path d="" fill="#0E0F0E" transform="translate(0,0)"/>
<path d="" fill="#101111" transform="translate(0,0)"/>
<path d="" fill="#0E0E0E" transform="translate(0,0)"/>
<path d="" fill="#0E0E0F" transform="translate(0,0)"/>
<path d="" fill="#120F0E" transform="translate(0,0)"/>
<path d="" fill="#110E0F" transform="translate(0,0)"/>
<path d="" fill="#0E0C0C" transform="translate(0,0)"/>
<path d="" fill="#0B0C0B" transform="translate(0,0)"/>
<path d="" fill="#0F100F" transform="translate(0,0)"/>
<path d="" fill="#0E0E0C" transform="translate(0,0)"/>
<path d="" fill="#0F0E0F" transform="translate(0,0)"/>
<path d="" fill="#121211" transform="translate(0,0)"/>
<path d="" fill="#111410" transform="translate(0,0)"/>
<path d="" fill="#100E0E" transform="translate(0,0)"/>
<path d="" fill="#110F11" transform="translate(0,0)"/>
<path d="" fill="#100F11" transform="translate(0,0)"/>
<path d="" fill="#10100F" transform="translate(0,0)"/>
<path d="" fill="#111010" transform="translate(0,0)"/>
<path d="" fill="#0F0F0E" transform="translate(0,0)"/>
<path d="" fill="#101011" transform="translate(0,0)"/>
<path d="" fill="#111112" transform="translate(0,0)"/>
<path d="" fill="#11110F" transform="translate(0,0)"/>
<path d="" fill="#100F0D" transform="translate(0,0)"/>
<path d="" fill="#0F0F10" transform="translate(0,0)"/>
<path d="" fill="#0E0F0E" transform="translate(0,0)"/>
<path d="" fill="#0E0F0C" transform="translate(0,0)"/>
<path d="" fill="#0D0D0C" transform="translate(0,0)"/>
<path d="" fill="#101011" transform="translate(0,0)"/>
<path d="" fill="#111111" transform="translate(0,0)"/>
<path d="" fill="#0B0A09" transform="translate(0,0)"/>
<path d="" fill="#0D0D0E" transform="translate(0,0)"/>
<path d="" fill="#100F0C" transform="translate(0,0)"/>
<path d="" fill="#0B0E0E" transform="translate(0,0)"/>
<path d="" fill="#090807" transform="translate(0,0)"/>
<path d="" fill="#0E0F0F" transform="translate(0,0)"/>
<path d="" fill="#0F0E0F" transform="translate(0,0)"/>
<path d="" fill="#07070A" transform="translate(0,0)"/>
<path d="" fill="#0D0D0C" transform="translate(0,0)"/>
<path d="" fill="#353535" transform="translate(0,0)"/>
<path d="" fill="#171716" transform="translate(0,0)"/>
<path d="" fill="#151413" transform="translate(0,0)"/>
<path d="" fill="#181517" transform="translate(0,0)"/>
<path d="" fill="#141211" transform="translate(0,0)"/>
<path d="" fill="#131412" transform="translate(0,0)"/>
<path d="" fill="#121211" transform="translate(0,0)"/>
<path d="" fill="#131313" transform="translate(0,0)"/>
<path d="" fill="#111311" transform="translate(0,0)"/>
<path d="" fill="#131211" transform="translate(0,0)"/>
<path d="" fill="#101211" transform="translate(0,0)"/>
<path d="" fill="#151114" transform="translate(0,0)"/>
<path d="" fill="#111311" transform="translate(0,0)"/>
<path d="" fill="#131313" transform="translate(0,0)"/>
<path d="" fill="#121312" transform="translate(0,0)"/>
<path d="" fill="#171818" transform="translate(0,0)"/>
</svg>
