<?xml version="1.0" encoding="UTF-8"?>
<svg version="1.1" xmlns="http://www.w3.org/2000/svg" width="1024" height="1024">
<path d="M0 0 C5.30583826 5.93748568 6.07247425 13.10605237 5.99973011 20.82174683 C6.00379084 21.6729135 6.00785156 22.52408018 6.01203534 23.40103978 C6.02195171 26.24262713 6.01057004 29.083717 5.9992218 31.92529297 C6.00196343 33.98747176 6.0060164 36.04964915 6.01126546 38.11182308 C6.02184667 43.77091193 6.01372673 49.4298427 6.00251496 55.08892465 C5.99367081 61.19549508 6.00211728 67.30204488 6.00837708 73.40861511 C6.01731871 84.67930409 6.01269892 95.94992806 6.00121326 107.22060923 C5.99066989 117.63795232 5.98613867 128.05527735 5.98750877 138.47262573 C5.98763482 139.50983667 5.98763482 139.50983667 5.98776341 140.56800137 C5.98811568 143.37512907 5.98849969 146.18225677 5.98892899 148.98938446 C5.99289377 175.32223731 5.98017934 201.65505828 5.95940243 227.987902 C5.94104942 251.35831642 5.93521617 274.72870024 5.94067383 298.09912109 C5.94102026 299.59862455 5.94136636 301.098128 5.94171212 302.59763145 C5.94196861 303.70964249 5.94196861 303.70964249 5.94223029 304.84411839 C5.9430839 308.57631573 5.94390768 312.30851309 5.94469929 316.04071045 C5.94485637 316.77709096 5.94501345 317.51347148 5.94517529 318.27216655 C5.94917134 337.82095196 5.94368131 357.36973444 5.935188 376.91851807 C5.934281 379.02388563 5.93337535 381.12925319 5.93247276 383.23462075 C5.93187165 384.63116493 5.93126303 386.02770911 5.93064686 387.42425328 C5.92643443 397.13885251 5.92584353 406.85344595 5.92775235 416.5680458 C5.930202 429.09693051 5.9258579 441.62578191 5.91054235 454.15466076 C5.90332042 460.19213679 5.8992024 466.22957018 5.90378571 472.26704979 C5.90788574 477.80284568 5.90262991 483.33855384 5.89015963 488.87433648 C5.88725083 490.86829815 5.88763635 492.8622682 5.89180271 494.85622764 C5.92975595 514.84815036 5.00370792 534.80335272 -4.375 552.9375 C-4.90609375 553.98292969 -5.4371875 555.02835938 -5.984375 556.10546875 C-20.34835172 582.84502045 -45.64124245 602.56305221 -74.5625 611.3125 C-105.57514752 620.1587686 -139.01910044 617.63526652 -167.578125 602.2109375 C-174.04667532 598.48470682 -179.74114602 593.80444192 -185.375 588.9375 C-186.41914062 588.06351563 -186.41914062 588.06351563 -187.484375 587.171875 C-201.60279063 574.34872686 -208.35355298 554.40446416 -209.50390625 535.859375 C-209.81415118 524.69055751 -207.31628389 513.64377337 -204.375 502.9375 C-203.715 502.9375 -203.055 502.9375 -202.375 502.9375 C-202.065625 501.761875 -202.065625 501.761875 -201.75 500.5625 C-192.46532638 476.08472409 -168.41774154 457.69803856 -145.44873047 446.859375 C-117.25858599 434.32747183 -88.23400121 432.16217903 -57.87402344 437.04516602 C-51.34171934 438.26291246 -51.34171934 438.26291246 -45.375 435.9375 C-43.66578918 432.44609527 -43.12837676 429.64558989 -43.14794922 425.7800293 C-43.14810028 424.77936935 -43.14825134 423.77870941 -43.14840698 422.74772644 C-43.15872955 421.6798439 -43.16905212 420.61196136 -43.1796875 419.51171875 C-43.1825174 418.40899124 -43.18534729 417.30626373 -43.18826294 416.17012024 C-43.19944019 412.65496886 -43.22454063 409.14007411 -43.25 405.625 C-43.26003296 403.23893598 -43.26915826 400.85286795 -43.27734375 398.46679688 C-43.29937151 392.62361065 -43.33282486 386.78057366 -43.375 380.9375 C-43.705 380.9375 -44.035 380.9375 -44.375 380.9375 C-44.375 374.6675 -44.375 368.3975 -44.375 361.9375 C-43.715 361.9375 -43.055 361.9375 -42.375 361.9375 C-42.375 355.0075 -42.375 348.0775 -42.375 340.9375 C-43.035 340.9375 -43.695 340.9375 -44.375 340.9375 C-44.40400455 337.3333502 -44.42180018 333.72923038 -44.4375 330.125 C-44.44587891 329.10083984 -44.45425781 328.07667969 -44.46289062 327.02148438 C-44.46772461 325.54711914 -44.46772461 325.54711914 -44.47265625 324.04296875 C-44.48051147 322.68401489 -44.48051147 322.68401489 -44.48852539 321.29760742 C-44.375 318.9375 -44.375 318.9375 -43.375 315.9375 C-43.705 315.6075 -44.035 315.2775 -44.375 314.9375 C-44.46213831 313.22977642 -44.48200007 311.51851351 -44.47265625 309.80859375 C-44.46943359 308.77412109 -44.46621094 307.73964844 -44.46289062 306.67382812 C-44.45451172 305.58521484 -44.44613281 304.49660156 -44.4375 303.375 C-44.43298828 302.28251953 -44.42847656 301.19003906 -44.42382812 300.06445312 C-44.41199826 297.35541505 -44.39551543 294.64648401 -44.375 291.9375 C-44.045 291.9375 -43.715 291.9375 -43.375 291.9375 C-43.375 287.6475 -43.375 283.3575 -43.375 278.9375 C-43.705 278.9375 -44.035 278.9375 -44.375 278.9375 C-44.375 276.6275 -44.375 274.3175 -44.375 271.9375 C-44.045 271.9375 -43.715 271.9375 -43.375 271.9375 C-43.375 268.9675 -43.375 265.9975 -43.375 262.9375 C-43.705 262.9375 -44.035 262.9375 -44.375 262.9375 C-44.375 249.9375 -44.375 236.9375 -44.375 223.9375 C-44.045 223.9375 -43.715 223.9375 -43.375 223.9375 C-43.34968073 217.0140867 -43.33214611 210.09068531 -43.32006836 203.16723633 C-43.31503425 200.811112 -43.30820654 198.4549908 -43.29956055 196.09887695 C-43.2874547 192.7156497 -43.28176251 189.33246368 -43.27734375 185.94921875 C-43.27218246 184.89288742 -43.26702118 183.83655609 -43.26170349 182.74821472 C-43.26162796 181.76742447 -43.26155243 180.78663422 -43.26147461 179.77612305 C-43.259254 178.91230515 -43.25703339 178.04848724 -43.25474548 177.15849304 C-43.28626684 174.76290879 -43.28626684 174.76290879 -44.375 171.9375 C-44.375 171.2775 -44.375 170.6175 -44.375 169.9375 C-51.91005349 168.62811724 -57.7205277 169.54784432 -65.0859375 171.4140625 C-66.2151059 171.6876358 -67.34427429 171.96120911 -68.50765991 172.24307251 C-72.1340104 173.12609999 -75.75452326 174.03071994 -79.375 174.9375 C-81.7344941 175.51874222 -84.09419419 176.09914893 -86.45410156 176.67871094 C-93.30545564 178.36815954 -100.14976234 180.08498308 -106.99284744 181.80757904 C-110.46475066 182.68097389 -113.93735823 183.5515597 -117.40991211 184.42236328 C-121.75161285 185.51126182 -126.09326109 186.60036704 -130.43461609 187.69064331 C-140.0467268 190.1044287 -149.66113078 192.50886295 -159.27734375 194.90625 C-187.39206847 201.91686519 -215.49487585 208.97321727 -243.58271408 216.09085846 C-245.90950645 216.68040716 -248.23637703 217.2696463 -250.56326294 217.85882568 C-254.23269295 218.78807757 -257.90184011 219.71843856 -261.57077026 220.64966202 C-263.54183523 221.14978238 -265.51310055 221.64911295 -267.484375 222.14840698 C-269.90164175 222.76263083 -272.31795182 223.38063476 -274.73318481 224.00280762 C-277.31458574 224.66533871 -279.89741694 225.3152082 -282.48434448 225.9552002 C-283.83852839 226.29823501 -285.19262633 226.64160942 -286.54663086 226.98535156 C-287.75935165 227.28781799 -288.97207245 227.59028442 -290.22154236 227.9019165 C-293.23951699 228.89300789 -295.09416449 229.75460091 -297.375 231.9375 C-298.4044979 235.02599371 -298.50290644 237.13933642 -298.50807858 240.37606812 C-298.51231962 241.51287773 -298.51656067 242.64968735 -298.52093023 243.82094574 C-298.5205441 245.07547798 -298.52015797 246.33001022 -298.51976013 247.62255859 C-298.52289336 248.96454219 -298.52646805 250.30652481 -298.53044754 251.64850616 C-298.54015921 255.34476416 -298.54369831 259.0410067 -298.54629052 262.7372756 C-298.55018089 266.72127111 -298.55981903 270.70525292 -298.56884766 274.6892395 C-298.58379997 281.59889446 -298.59533914 288.50854834 -298.60479546 295.41821289 C-298.6186731 305.42918012 -298.6398639 315.44012214 -298.66322399 325.45107126 C-298.70116885 341.7196535 -298.73612016 357.98824034 -298.76782227 374.25683594 C-298.770673 375.7181978 -298.770673 375.7181978 -298.77358133 377.20908213 C-298.80035606 391.00427803 -298.82424258 404.79947745 -298.84696633 418.59468055 C-298.84856363 419.56407073 -298.85016094 420.53346092 -298.85180664 421.53222656 C-298.85340011 422.50043028 -298.85499357 423.468634 -298.85663532 424.46617723 C-298.88347425 440.65380996 -298.91790812 456.84141617 -298.95846039 473.02902031 C-298.98314361 483.00283188 -299.00152139 492.97661501 -299.011616 502.95045221 C-299.0190506 509.80139097 -299.03364192 516.65229156 -299.05368023 523.50320494 C-299.06498569 527.44676304 -299.07321131 531.39025984 -299.07267189 535.3338356 C-299.07243523 575.89534271 -299.07243523 575.89534271 -303.625 591.75 C-303.84188477 592.53076904 -304.05876953 593.31153809 -304.28222656 594.1159668 C-312.76492883 623.57314592 -333.39170502 648.19704018 -360.125 663.06640625 C-388.40992895 678.16611951 -421.24923087 682.62673074 -452.265625 673.87109375 C-475.62801885 666.58837221 -495.38859713 653.69282121 -507.375 631.9375 C-514.2816274 618.3119253 -515.80283061 603.95201386 -516.375 588.9375 C-515.715 588.9375 -515.055 588.9375 -514.375 588.9375 C-514.41109375 587.92300781 -514.4471875 586.90851562 -514.484375 585.86328125 C-513.89779557 564.80926945 -500.02345075 544.8985672 -485.3125 530.9375 C-473.87769709 520.90417712 -461.20687076 513.18550854 -447.375 506.9375 C-446.19808594 506.39351562 -445.02117187 505.84953125 -443.80859375 505.2890625 C-426.84289848 497.95153897 -408.48108211 494.74159736 -390.0625 494.75 C-389.1240625 494.74718018 -388.185625 494.74436035 -387.21875 494.74145508 C-379.49686474 494.7846265 -371.90028987 495.42648424 -364.25268555 496.48950195 C-359.1053068 497.12154698 -355.75669843 497.1629169 -351.375 493.9375 C-349.29235724 489.94920917 -349.12486485 486.53867099 -349.12446022 482.08204174 C-349.12166254 481.40163144 -349.11886487 480.72122115 -349.11598241 480.02019235 C-349.1090124 477.7355543 -349.11628666 475.45118395 -349.1234436 473.16654968 C-349.12130536 471.51388966 -349.11828016 469.86123059 -349.11444318 468.20857364 C-349.10639213 463.66325676 -349.11071521 459.11802201 -349.11696196 454.57270539 C-349.12148992 449.67211095 -349.11445858 444.77153232 -349.10865784 439.87094116 C-349.1000189 431.37722397 -349.09821814 422.88352762 -349.10060501 414.38980675 C-349.1036999 402.10055011 -349.09207345 389.81133962 -349.07605521 377.52209459 C-349.05008263 357.57275794 -349.03006933 337.62342126 -349.01660156 317.67407227 C-349.01538601 315.88260647 -349.01538601 315.88260647 -349.0141459 314.05494944 C-349.00292441 297.10610212 -348.99764337 280.15725809 -348.99475877 263.20840756 C-348.99455478 262.0150066 -348.99435079 260.82160564 -348.99414062 259.59204102 C-348.99394069 258.40009263 -348.99374075 257.20814425 -348.99353476 255.98007622 C-348.98980292 236.10971624 -348.97072492 216.23940625 -348.93904626 196.3690713 C-348.92012042 184.11027252 -348.91417712 171.85160187 -348.92486344 159.59279249 C-348.93117833 151.19311054 -348.9231539 142.79352053 -348.90380932 134.39385875 C-348.8931174 129.54629521 -348.88899269 124.69895486 -348.90228081 119.85139275 C-348.91432501 115.41309101 -348.90799099 110.97520792 -348.88708882 106.53694258 C-348.88278378 104.93198404 -348.88522769 103.32699012 -348.89512999 101.72205635 C-348.9811808 86.68250198 -348.9811808 86.68250198 -344.375 79.9375 C-339.3942451 75.07989061 -333.71477772 73.58270098 -327.0703125 72.03515625 C-326.08116852 71.79173996 -325.09202454 71.54832367 -324.07290649 71.29753113 C-320.88533378 70.51685936 -317.6930196 69.75805329 -314.5 69 C-312.31641677 68.47037254 -310.13314826 67.93944586 -307.95019531 67.40722656 C-303.6820243 66.36920104 -299.41193605 65.33979566 -295.13964844 64.31884766 C-290.35102363 63.17407346 -285.56837572 62.00717657 -280.7890625 60.82421875 C-278.56784704 60.27808137 -276.34650932 59.73244082 -274.125 59.1875 C-273.15320801 58.94781494 -272.18141602 58.70812988 -271.18017578 58.46118164 C-270.31118652 58.25227295 -269.44219727 58.04336426 -268.546875 57.828125 C-267.8259668 57.65313477 -267.10505859 57.47814453 -266.36230469 57.29785156 C-264.375 56.9375 -264.375 56.9375 -260.375 56.9375 C-260.045 56.2775 -259.715 55.6175 -259.375 54.9375 C-257.57421875 54.48046875 -257.57421875 54.48046875 -255.0625 54.125 C-249.23026214 53.16838956 -243.54062858 51.81303888 -237.8125 50.375 C-236.47288208 50.04181763 -236.47288208 50.04181763 -235.10620117 49.7019043 C-230.62660057 48.63697883 -230.62660057 48.63697883 -226.375 46.9375 C-224.85933553 46.63909433 -223.33705217 46.37404898 -221.8125 46.125 C-216.61022005 45.20491591 -211.46136597 44.11523849 -206.3125 42.9375 C-205.18702759 42.68842896 -205.18702759 42.68842896 -204.03881836 42.43432617 C-199.78865136 41.50325962 -199.78865136 41.50325962 -196.375 38.9375 C-194.30552959 38.59539795 -194.30552959 38.59539795 -191.80705261 38.44042969 C-186.862301 38.03190892 -182.26114884 37.11710403 -177.4621582 35.890625 C-176.62729732 35.68338019 -175.79243643 35.47613539 -174.93227673 35.26261044 C-172.17844898 34.5773849 -169.42718297 33.88239662 -166.67578125 33.1875 C-164.70740634 32.69605377 -162.73885542 32.20531203 -160.7701416 31.71522522 C-156.58212386 30.67152476 -152.39512181 29.62388046 -148.20889282 28.57302856 C-138.35296347 26.09950269 -128.49154704 23.6480113 -118.63022423 21.19609261 C-116.41408307 20.6450179 -114.19799975 20.09371058 -111.98197365 19.54217339 C-91.50145602 14.44540251 -70.99767612 9.45108598 -50.47048569 4.5458374 C-48.19257332 4.00121298 -45.91493203 3.45546802 -43.63735962 2.90942383 C-40.10118531 2.06186599 -36.56444545 1.21671594 -33.02714539 0.37386894 C-31.15209191 -0.07314138 -29.27739381 -0.52164162 -27.40270996 -0.97019958 C-26.29117554 -1.23389847 -25.17964111 -1.49759735 -24.03442383 -1.76928711 C-23.07901199 -1.99668076 -22.12360016 -2.2240744 -21.13923645 -2.45835876 C-13.02606343 -4.23154368 -7.24265657 -4.4260679 0 0 Z M-43.375 307.9375 C-42.375 310.9375 -42.375 310.9375 -42.375 310.9375 Z M-43.375 322.9375 C-43.375 325.5775 -43.375 328.2175 -43.375 330.9375 C-43.045 330.9375 -42.715 330.9375 -42.375 330.9375 C-42.375 328.2975 -42.375 325.6575 -42.375 322.9375 C-42.705 322.9375 -43.035 322.9375 -43.375 322.9375 Z M-43.375 332.9375 C-43.375 335.2475 -43.375 337.5575 -43.375 339.9375 C-43.045 339.9375 -42.715 339.9375 -42.375 339.9375 C-42.375 337.6275 -42.375 335.3175 -42.375 332.9375 C-42.705 332.9375 -43.035 332.9375 -43.375 332.9375 Z M-43.375 362.9375 C-43.375 364.5875 -43.375 366.2375 -43.375 367.9375 C-43.045 367.9375 -42.715 367.9375 -42.375 367.9375 C-42.375 366.2875 -42.375 364.6375 -42.375 362.9375 C-42.705 362.9375 -43.035 362.9375 -43.375 362.9375 Z M-43.375 368.9375 C-42.375 371.9375 -42.375 371.9375 -42.375 371.9375 Z " fill="#000000" transform="translate(740.375,161.0625)"/>
<path d="M0 0 C337.92 0 675.84 0 1024 0 C1024 337.92 1024 675.84 1024 1024 C686.08 1024 348.16 1024 0 1024 C0.33 1023.01 0.66 1022.02 1 1021 C1 1021.66 1 1022.32 1 1023 C2.32 1023 3.64 1023 5 1023 C4.505 1021.515 4.505 1021.515 4 1020 C3.90577195 1017.70696645 3.8747736 1015.41120357 3.87465084 1013.11623478 C3.87324852 1012.40723505 3.8718462 1011.69823533 3.87040139 1010.96775076 C3.86689513 1008.56914174 3.87057171 1006.17059608 3.87415886 1003.77198792 C3.87311661 1002.03668417 3.87163603 1000.30138063 3.86975449 998.56607759 C3.86583497 993.76190201 3.86820368 988.95774634 3.87153245 984.15357105 C3.87405598 978.94050949 3.87081449 973.72745111 3.86828911 968.51438999 C3.86466644 959.36603804 3.86479371 950.21769198 3.86733627 941.06933975 C3.87110684 927.46578731 3.86919124 913.86223987 3.86612797 900.25868747 C3.86115826 877.37760665 3.86098662 854.4965289 3.86370468 831.615448 C3.86378748 830.91813454 3.86387027 830.22082108 3.86395558 829.50237691 C3.86403851 828.80395389 3.86412144 828.10553086 3.86420688 827.3859435 C3.8667276 806.12905035 3.8673826 784.87215816 3.86618423 763.61526489 C3.86610676 762.19315708 3.8660296 760.77104927 3.86595276 759.34894145 C3.86564231 753.63443065 3.86532365 747.91991985 3.864993 742.20540905 C3.86407588 726.22986032 3.86350536 710.25431158 3.86320686 694.27876282 C3.86319322 693.55120549 3.86317957 692.82364816 3.86316551 692.07404363 C3.86275609 668.88242604 3.86388389 645.69080878 3.86605644 622.49919128 C3.86612669 621.74672176 3.86619694 620.99425224 3.86626932 620.2189806 C3.86741434 607.99848847 3.86863377 595.77799634 3.86985949 583.55750421 C3.87471602 535.08618678 3.87449061 486.61487211 3.86962891 438.14355469 C3.86840777 425.92930603 3.86719674 413.71505738 3.86605644 401.50080872 C3.86598599 400.74878665 3.86591555 399.99676459 3.86584296 399.22195398 C3.86368757 376.05504834 3.86277235 352.88814292 3.86320686 329.72123718 C3.86322724 328.63069724 3.86322724 328.63069724 3.86324803 327.51812619 C3.86356047 311.56048334 3.86419405 295.60284051 3.86511737 279.64519768 C3.86544652 273.93572059 3.8657596 268.22624351 3.86606808 262.51676642 C3.86614547 261.09632859 3.8662242 259.67589077 3.86630427 258.25545294 C3.86749908 237.00284258 3.86647908 215.75023331 3.86395558 194.49762309 C3.86383138 193.4516529 3.86383138 193.4516529 3.86370468 192.384552 C3.863622 191.68851848 3.86353932 190.99248496 3.86345413 190.27535951 C3.86069927 166.82805739 3.86170552 143.38075861 3.86698543 119.93345666 C3.86993132 106.4033994 3.8700996 92.87334872 3.86633925 79.34329163 C3.86410739 70.32081229 3.86547324 61.29833827 3.86984402 52.27585972 C3.87223701 47.12514042 3.87300692 41.97443425 3.86943804 36.82371533 C3.86623013 32.14657661 3.86754742 27.4694628 3.8726187 22.79232593 C3.87363358 21.10259037 3.87293978 19.4128528 3.87041276 17.72311883 C3.86724274 15.44330344 3.87014164 13.1635764 3.87465084 10.88376522 C3.87475247 8.98375819 3.87475247 8.98375819 3.87485617 7.04536718 C4 4 4 4 5 1 C3.35 1 1.7 1 0 1 C0 0.67 0 0.34 0 0 Z M7 1 C7 338.26 7 675.52 7 1023 C342.28 1023 677.56 1023 1023 1023 C1023 685.74 1023 348.48 1023 1 C687.72 1 352.44 1 7 1 Z " fill="#AEADAD" transform="translate(0,0)"/>
<path d="M0 0 C24.42 0 48.84 0 74 0 C74 0.33 74 0.66 74 1 C51.89 1 29.78 1 7 1 C7 338.26 7 675.52 7 1023 C37.69 1023 68.38 1023 100 1023 C100 1023.33 100 1023.66 100 1024 C67 1024 34 1024 0 1024 C0.33 1023.01 0.66 1022.02 1 1021 C1 1021.66 1 1022.32 1 1023 C2.32 1023 3.64 1023 5 1023 C4.505 1021.515 4.505 1021.515 4 1020 C3.90577195 1017.70696645 3.8747736 1015.41120357 3.87465084 1013.11623478 C3.87324852 1012.40723505 3.8718462 1011.69823533 3.87040139 1010.96775076 C3.86689513 1008.56914174 3.87057171 1006.17059608 3.87415886 1003.77198792 C3.87311661 1002.03668417 3.87163603 1000.30138063 3.86975449 998.56607759 C3.86583497 993.76190201 3.86820368 988.95774634 3.87153245 984.15357105 C3.87405598 978.94050949 3.87081449 973.72745111 3.86828911 968.51438999 C3.86466644 959.36603804 3.86479371 950.21769198 3.86733627 941.06933975 C3.87110684 927.46578731 3.86919124 913.86223987 3.86612797 900.25868747 C3.86115826 877.37760665 3.86098662 854.4965289 3.86370468 831.615448 C3.86378748 830.91813454 3.86387027 830.22082108 3.86395558 829.50237691 C3.86403851 828.80395389 3.86412144 828.10553086 3.86420688 827.3859435 C3.8667276 806.12905035 3.8673826 784.87215816 3.86618423 763.61526489 C3.86610676 762.19315708 3.8660296 760.77104927 3.86595276 759.34894145 C3.86564231 753.63443065 3.86532365 747.91991985 3.864993 742.20540905 C3.86407588 726.22986032 3.86350536 710.25431158 3.86320686 694.27876282 C3.86319322 693.55120549 3.86317957 692.82364816 3.86316551 692.07404363 C3.86275609 668.88242604 3.86388389 645.69080878 3.86605644 622.49919128 C3.86612669 621.74672176 3.86619694 620.99425224 3.86626932 620.2189806 C3.86741434 607.99848847 3.86863377 595.77799634 3.86985949 583.55750421 C3.87471602 535.08618678 3.87449061 486.61487211 3.86962891 438.14355469 C3.86840777 425.92930603 3.86719674 413.71505738 3.86605644 401.50080872 C3.86598599 400.74878665 3.86591555 399.99676459 3.86584296 399.22195398 C3.86368757 376.05504834 3.86277235 352.88814292 3.86320686 329.72123718 C3.86322724 328.63069724 3.86322724 328.63069724 3.86324803 327.51812619 C3.86356047 311.56048334 3.86419405 295.60284051 3.86511737 279.64519768 C3.86544652 273.93572059 3.8657596 268.22624351 3.86606808 262.51676642 C3.86614547 261.09632859 3.8662242 259.67589077 3.86630427 258.25545294 C3.86749908 237.00284258 3.86647908 215.75023331 3.86395558 194.49762309 C3.86383138 193.4516529 3.86383138 193.4516529 3.86370468 192.384552 C3.863622 191.68851848 3.86353932 190.99248496 3.86345413 190.27535951 C3.86069927 166.82805739 3.86170552 143.38075861 3.86698543 119.93345666 C3.86993132 106.4033994 3.8700996 92.87334872 3.86633925 79.34329163 C3.86410739 70.32081229 3.86547324 61.29833827 3.86984402 52.27585972 C3.87223701 47.12514042 3.87300692 41.97443425 3.86943804 36.82371533 C3.86623013 32.14657661 3.86754742 27.4694628 3.8726187 22.79232593 C3.87363358 21.10259037 3.87293978 19.4128528 3.87041276 17.72311883 C3.86724274 15.44330344 3.87014164 13.1635764 3.87465084 10.88376522 C3.87475247 8.98375819 3.87475247 8.98375819 3.87485617 7.04536718 C4 4 4 4 5 1 C3.35 1 1.7 1 0 1 C0 0.67 0 0.34 0 0 Z " fill="#C7C6C5" transform="translate(0,0)"/>
<path d="M0 0 C24.42 0 48.84 0 74 0 C74 0.33 74 0.66 74 1 C51.89 1 29.78 1 7 1 C7 36.31 7 71.62 7 108 C6.01 108.495 6.01 108.495 5 109 C4.84630882 95.36157354 4.69812703 81.72309953 4.5570364 68.08453655 C4.49135253 61.75204369 4.4237498 55.41958329 4.35180664 49.0871582 C4.28248572 42.97939426 4.21814663 36.87159653 4.15730476 30.76374245 C4.13317446 28.43006284 4.1072297 26.09640128 4.07946587 23.76276207 C4.0409731 20.50161946 4.00885268 17.24047307 3.97827148 13.97924805 C3.96532547 13.00820633 3.95237946 12.03716461 3.93904114 11.03669739 C3.93200165 10.14908722 3.92496216 9.26147705 3.91770935 8.3469696 C3.90941321 7.57542888 3.90111708 6.80388815 3.89256954 6.0089674 C4 4 4 4 5 1 C3.35 1 1.7 1 0 1 C0 0.67 0 0.34 0 0 Z " fill="#D6D5D4" transform="translate(0,0)"/>
<path d="M0 0 C0.33 0 0.66 0 1 0 C1 8.25 1 16.5 1 25 C0.67 25 0.34 25 0 25 C0 16.75 0 8.5 0 0 Z " fill="#000000" transform="translate(696,543)"/>
<path d="M0 0 C0.33 0 0.66 0 1 0 C1 3.63 1 7.26 1 11 C0.67 11 0.34 11 0 11 C0 7.37 0 3.74 0 0 Z " fill="#000000" transform="translate(696,441)"/>
<path d="M0 0 C0.33 0 0.66 0 1 0 C1 3.3 1 6.6 1 10 C0.67 10 0.34 10 0 10 C0 6.7 0 3.4 0 0 Z " fill="#000000" transform="translate(696,366)"/>
<path d="M0 0 C0.33 0 0.66 0 1 0 C1 2.31 1 4.62 1 7 C0.67 7 0.34 7 0 7 C0 4.69 0 2.38 0 0 Z " fill="#000000" transform="translate(696,577)"/>
<path d="M0 0 C0.33 0 0.66 0 1 0 C1 2.31 1 4.62 1 7 C0.67 7 0.34 7 0 7 C0 4.69 0 2.38 0 0 Z " fill="#000000" transform="translate(696,425)"/>
<path d="M0 0 C0.33 0 0.66 0 1 0 C1 2.31 1 4.62 1 7 C0.67 7 0.34 7 0 7 C0 4.69 0 2.38 0 0 Z " fill="#000000" transform="translate(696,377)"/>
<path d="M0 0 C0.33 0 0.66 0 1 0 C1 2.31 1 4.62 1 7 C0.67 7 0.34 7 0 7 C0 4.69 0 2.38 0 0 Z " fill="#000000" transform="translate(696,341)"/>
<path d="M0 0 C0.33 0 0.66 0 1 0 C1 1.65 1 3.3 1 5 C0.67 5 0.34 5 0 5 C0 3.35 0 1.7 0 0 Z " fill="#000000" transform="translate(696,570)"/>
<path d="M0 0 C1 4 1 4 1 4 Z " fill="#000000" transform="translate(696,586)"/>
<path d="M0 0 C1 4 1 4 1 4 Z " fill="#000000" transform="translate(696,508)"/>
<path d="M0 0 C1 4 1 4 1 4 Z " fill="#000000" transform="translate(696,503)"/>
<path d="M0 0 C1 4 1 4 1 4 Z " fill="#000000" transform="translate(696,361)"/>
<path d="M0 0 C3 1 3 1 3 1 Z " fill="#000000" transform="translate(600,775)"/>
<path d="" fill="#000000" transform="translate(0,0)"/>
<path d="" fill="#000000" transform="translate(0,0)"/>
<path d="" fill="#000000" transform="translate(0,0)"/>
<path d="" fill="#000000" transform="translate(0,0)"/>
<path d="" fill="#000000" transform="translate(0,0)"/>
<path d="" fill="#000000" transform="translate(0,0)"/>
<path d="M0 0 C3 1 3 1 3 1 Z " fill="#010001" transform="translate(608,184)"/>
<path d="M0 0 C3 1 3 1 3 1 Z " fill="#000101" transform="translate(640,176)"/>
<path d="" fill="#D7D7D7" transform="translate(0,0)"/>
<path d="" fill="#CFCFCD" transform="translate(0,0)"/>
<path d="M0 0 C2 1 2 1 2 1 Z " fill="#000000" transform="translate(296,838)"/>
<path d="" fill="#020100" transform="translate(0,0)"/>
<path d="" fill="#040202" transform="translate(0,0)"/>
<path d="M0 0 C2 1 2 1 2 1 Z " fill="#000000" transform="translate(280,672)"/>
<path d="M0 0 C2 1 2 1 2 1 Z " fill="#000000" transform="translate(328,656)"/>
<path d="M0 0 C2 1 2 1 2 1 Z " fill="#000000" transform="translate(577,616)"/>
<path d="M0 0 C2 1 2 1 2 1 Z " fill="#000000" transform="translate(608,601)"/>
<path d="M0 0 C2 1 2 1 2 1 Z " fill="#000000" transform="translate(662,594)"/>
<path d="" fill="#000000" transform="translate(0,0)"/>
<path d="" fill="#000000" transform="translate(0,0)"/>
<path d="M0 0 C2 1 2 1 2 1 Z " fill="#010200" transform="translate(576,192)"/>
<path d="M0 0 C2 1 2 1 2 1 Z " fill="#010102" transform="translate(673,168)"/>
<path d="" fill="#C4C4C4" transform="translate(0,0)"/>
<path d="" fill="#CECECC" transform="translate(0,0)"/>
<path d="" fill="#CECDCE" transform="translate(0,0)"/>
<path d="" fill="#CFCCCA" transform="translate(0,0)"/>
<path d="" fill="#BEBEBD" transform="translate(0,0)"/>
<path d="" fill="#BBBABA" transform="translate(0,0)"/>
<path d="" fill="#C5C6C5" transform="translate(0,0)"/>
<path d="" fill="#ACAAAA" transform="translate(0,0)"/>
<path d="" fill="#A7A6A6" transform="translate(0,0)"/>
<path d="" fill="#000100" transform="translate(0,0)"/>
<path d="" fill="#000000" transform="translate(0,0)"/>
<path d="" fill="#010100" transform="translate(0,0)"/>
<path d="" fill="#000000" transform="translate(0,0)"/>
<path d="" fill="#000000" transform="translate(0,0)"/>
<path d="" fill="#000000" transform="translate(0,0)"/>
<path d="" fill="#000000" transform="translate(0,0)"/>
<path d="" fill="#010000" transform="translate(0,0)"/>
<path d="" fill="#000000" transform="translate(0,0)"/>
<path d="" fill="#000000" transform="translate(0,0)"/>
<path d="" fill="#030002" transform="translate(0,0)"/>
<path d="" fill="#000000" transform="translate(0,0)"/>
<path d="" fill="#000000" transform="translate(0,0)"/>
<path d="" fill="#010000" transform="translate(0,0)"/>
<path d="" fill="#000000" transform="translate(0,0)"/>
<path d="" fill="#000000" transform="translate(0,0)"/>
<path d="" fill="#000000" transform="translate(0,0)"/>
<path d="" fill="#000000" transform="translate(0,0)"/>
<path d="" fill="#000000" transform="translate(0,0)"/>
<path d="" fill="#000000" transform="translate(0,0)"/>
<path d="" fill="#010000" transform="translate(0,0)"/>
<path d="" fill="#000000" transform="translate(0,0)"/>
<path d="" fill="#000000" transform="translate(0,0)"/>
<path d="" fill="#000001" transform="translate(0,0)"/>
<path d="" fill="#000000" transform="translate(0,0)"/>
<path d="" fill="#000001" transform="translate(0,0)"/>
<path d="" fill="#000000" transform="translate(0,0)"/>
<path d="" fill="#000000" transform="translate(0,0)"/>
<path d="" fill="#000000" transform="translate(0,0)"/>
<path d="" fill="#000000" transform="translate(0,0)"/>
<path d="" fill="#000000" transform="translate(0,0)"/>
<path d="" fill="#B5B4B4" transform="translate(0,0)"/>
<path d="" fill="#020000" transform="translate(0,0)"/>
<path d="" fill="#010000" transform="translate(0,0)"/>
<path d="" fill="#020000" transform="translate(0,0)"/>
<path d="" fill="#000000" transform="translate(0,0)"/>
<path d="" fill="#000102" transform="translate(0,0)"/>
<path d="" fill="#010100" transform="translate(0,0)"/>
<path d="" fill="#010001" transform="translate(0,0)"/>
<path d="" fill="#010102" transform="translate(0,0)"/>
<path d="" fill="#000002" transform="translate(0,0)"/>
<path d="" fill="#010201" transform="translate(0,0)"/>
<path d="" fill="#010202" transform="translate(0,0)"/>
<path d="" fill="#040404" transform="translate(0,0)"/>
<path d="" fill="#050507" transform="translate(0,0)"/>
<path d="" fill="#BFBDBD" transform="translate(0,0)"/>
<path d="" fill="#D8D8D9" transform="translate(0,0)"/>
<path d="" fill="#9B9C99" transform="translate(0,0)"/>
<path d="" fill="#C6C3C2" transform="translate(0,0)"/>
</svg>
