<svg width="112" height="112" viewBox="0 0 112 112" fill="none" xmlns="http://www.w3.org/2000/svg">
<path d="M105.02 75.1902C105.015 71.4122 103.812 67.7329 101.585 64.6811C99.3579 61.6294 96.2205 59.3623 92.6238 58.2056V20.5007C92.622 19.0797 92.0566 17.7174 91.0517 16.7126C90.0468 15.7079 88.6844 15.1428 87.2633 15.1413H84.621V12.499C84.6198 11.0779 84.0548 9.71529 83.05 8.71029C82.0452 7.70529 80.6828 7.14 79.2616 7.1385H27.6483C27.6385 7.07003 27.6241 7.00227 27.6053 6.93569C27.2906 5.87198 26.635 4.9412 25.7394 4.28662C24.8439 3.63203 23.758 3.28994 22.6489 3.31299C21.5399 3.33604 20.4691 3.72296 19.6016 4.41419C18.734 5.10542 18.1176 6.06264 17.8474 7.1385H12.3418C10.9208 7.1403 9.55846 7.70568 8.55374 8.71062C7.54901 9.71555 6.98392 11.078 6.98242 12.499V95.3259C6.98422 96.7467 7.54945 98.1089 8.55414 99.1136C9.55883 100.118 10.921 100.683 12.3418 100.685H14.9841V103.329C14.9859 104.75 15.5513 106.112 16.5562 107.117C17.5612 108.122 18.9236 108.687 20.3446 108.688H87.2633C88.6844 108.687 90.0468 108.122 91.0517 107.117C92.0566 106.112 92.622 104.75 92.6238 103.329V92.1737C96.2203 91.0171 99.3576 88.7502 101.585 85.6987C103.812 82.6471 105.015 78.9681 105.02 75.1902ZM87.2633 18.0114C87.9244 18.0114 88.5585 18.274 89.0259 18.7415C89.4934 19.209 89.756 19.843 89.756 20.5041V57.5428C88.054 57.2965 86.3253 57.2965 84.6233 57.5428V18.0114H87.2633ZM22.7547 6.18333C23.1099 6.18547 23.4593 6.27345 23.7732 6.43976C24.0871 6.60607 24.3561 6.84579 24.5574 7.1385H20.9474C21.1482 6.84427 21.4178 6.60347 21.7327 6.43702C22.0476 6.27057 22.3984 6.18349 22.7547 6.18333ZM9.85247 95.327V12.499C9.85247 11.8379 10.1151 11.2039 10.5826 10.7364C11.0501 10.2689 11.6841 10.0063 12.3452 10.0063H17.6978V19.7586C17.6878 20.4294 17.8112 21.0955 18.061 21.7182C18.3107 22.3408 18.6818 22.9076 19.1527 23.3855C19.6235 23.8635 20.1847 24.243 20.8035 24.5021C21.4224 24.7611 22.0866 24.8945 22.7575 24.8945C23.4284 24.8945 24.0926 24.7611 24.7114 24.5021C25.3303 24.243 25.8915 23.8635 26.3623 23.3855C26.8331 22.9076 27.2042 22.3408 27.454 21.7182C27.7038 21.0955 27.8272 20.4294 27.8172 19.7586V14.738C27.8067 14.3643 27.6509 14.0096 27.3829 13.749C27.1149 13.4885 26.7559 13.3427 26.3822 13.3427C26.0084 13.3427 25.6494 13.4885 25.3814 13.749C25.1134 14.0096 24.9576 14.3643 24.9471 14.738V19.7608C24.9471 20.3414 24.7165 20.8982 24.306 21.3087C23.8954 21.7193 23.3386 21.9499 22.7581 21.9499C22.1775 21.9499 21.6207 21.7193 21.2101 21.3087C20.7996 20.8982 20.569 20.3414 20.569 19.7608V10.0086H79.2616C79.589 10.0086 79.9131 10.073 80.2155 10.1983C80.518 10.3236 80.7928 10.5072 81.0242 10.7387C81.2557 10.9701 81.4393 11.2449 81.5646 11.5474C81.6899 11.8498 81.7544 12.1739 81.7544 12.5013V58.209C77.7961 59.4844 74.4052 62.098 72.1641 65.6011H47.128C46.7544 65.6116 46.3996 65.7674 46.139 66.0354C45.8785 66.3034 45.7327 66.6624 45.7327 67.0362C45.7327 67.4099 45.8785 67.7689 46.139 68.0369C46.3996 68.3049 46.7544 68.4607 47.128 68.4712H70.6719C69.8005 70.6048 69.3533 72.8878 69.3553 75.1925C69.3553 75.759 69.3836 76.3256 69.4368 76.883H47.128C46.7544 76.8935 46.3996 77.0493 46.139 77.3173C45.8785 77.5853 45.7327 77.9443 45.7327 78.3181C45.7327 78.6918 45.8785 79.0508 46.139 79.3188C46.3996 79.5868 46.7544 79.7426 47.128 79.7531H69.9478C70.72 82.6451 72.205 85.2973 74.2669 87.4672C76.3289 89.637 78.902 91.2552 81.751 92.1737V95.327C81.751 95.9881 81.4883 96.6222 81.0209 97.0897C80.5534 97.5571 79.9193 97.8198 79.2582 97.8198H12.3418C11.6813 97.8189 11.0481 97.5558 10.5814 97.0885C10.1146 96.6211 9.85247 95.9876 9.85247 95.327ZM89.7538 103.329C89.7538 103.656 89.6893 103.98 89.564 104.283C89.4388 104.585 89.2551 104.86 89.0237 105.091C88.7922 105.323 88.5174 105.506 88.215 105.632C87.9125 105.757 87.5884 105.821 87.261 105.821H20.3446C20.0173 105.821 19.6931 105.757 19.3907 105.632C19.0883 105.506 18.8135 105.323 18.582 105.091C18.3505 104.86 18.1669 104.585 18.0416 104.283C17.9164 103.98 17.8519 103.656 17.8519 103.329V100.686H79.2639C80.6848 100.685 82.0471 100.12 83.0519 99.115C84.0566 98.1103 84.6218 96.748 84.6233 95.327V92.8343C86.3253 93.0806 88.054 93.0806 89.756 92.8343L89.7538 103.329ZM87.1874 90.1512C84.2293 90.1512 81.3376 89.274 78.8781 87.6306C76.4185 85.9872 74.5015 83.6513 73.3695 80.9184C72.2374 78.1854 71.9413 75.1782 72.5183 72.2769C73.0954 69.3757 74.5199 66.7107 76.6116 64.619C78.7033 62.5273 81.3683 61.1028 84.2695 60.5257C87.1708 59.9486 90.178 60.2448 92.911 61.3768C95.6439 62.5089 97.9798 64.4259 99.6232 66.8854C101.267 69.345 102.144 72.2367 102.144 75.1948C102.138 79.1597 100.561 82.9606 97.7569 85.7643C94.9532 88.5679 91.1523 90.1455 87.1874 90.1512ZM26.7442 30.4184C26.7442 30.0377 26.8954 29.6725 27.1646 29.4033C27.4339 29.1341 27.799 28.9828 28.1798 28.9828H29.6913C30.0649 28.9933 30.4197 29.1491 30.6802 29.4171C30.9408 29.6851 31.0865 30.0441 31.0865 30.4178C31.0865 30.7916 30.9408 31.1506 30.6802 31.4186C30.4197 31.6866 30.0649 31.8424 29.6913 31.8529H28.1798C27.9913 31.853 27.8046 31.816 27.6305 31.744C27.4563 31.672 27.298 31.5663 27.1647 31.4331C27.0314 31.2999 26.9256 31.1417 26.8535 30.9676C26.7813 30.7935 26.7442 30.6069 26.7442 30.4184ZM26.7442 37.2542C26.7442 37.0657 26.7813 36.8791 26.8535 36.705C26.9256 36.5309 27.0314 36.3727 27.1647 36.2395C27.298 36.1062 27.4563 36.0006 27.6305 35.9286C27.8046 35.8566 27.9913 35.8196 28.1798 35.8197H52.2324C52.4243 35.8143 52.6152 35.8475 52.794 35.9171C52.9729 35.9868 53.1359 36.0917 53.2735 36.2255C53.4111 36.3593 53.5205 36.5193 53.5952 36.6961C53.6698 36.8729 53.7083 37.0628 53.7083 37.2547C53.7083 37.4467 53.6698 37.6366 53.5952 37.8134C53.5205 37.9902 53.4111 38.1502 53.2735 38.284C53.1359 38.4178 52.9729 38.5226 52.794 38.5923C52.6152 38.662 52.4243 38.6952 52.2324 38.6898H28.1798C27.799 38.6898 27.4339 38.5385 27.1646 38.2693C26.8954 38.0001 26.7442 37.6349 26.7442 37.2542ZM32.6361 30.4184C32.6361 30.0377 32.7873 29.6725 33.0566 29.4033C33.3258 29.1341 33.6909 28.9828 34.0717 28.9828H43.5316C43.9052 28.9933 44.26 29.1491 44.5206 29.4171C44.7811 29.6851 44.9269 30.0441 44.9269 30.4178C44.9269 30.7916 44.7811 31.1506 44.5206 31.4186C44.26 31.6866 43.9052 31.8424 43.5316 31.8529H34.0694C33.8809 31.853 33.6943 31.816 33.5201 31.744C33.346 31.672 33.1877 31.5663 33.0544 31.4331C32.921 31.2999 32.8153 31.1417 32.7431 30.9676C32.671 30.7935 32.6338 30.6069 32.6338 30.4184H32.6361ZM75.1259 44.5126C75.1259 44.701 75.0888 44.8877 75.0166 45.0618C74.9445 45.2359 74.8387 45.3941 74.7054 45.5273C74.5721 45.6605 74.4138 45.7661 74.2396 45.8382C74.0655 45.9102 73.8788 45.9472 73.6904 45.947H33.4383C33.2465 45.9524 33.0555 45.9193 32.8767 45.8496C32.6978 45.7799 32.5348 45.6751 32.3972 45.5413C32.2596 45.4075 32.1502 45.2475 32.0756 45.0707C32.0009 44.8939 31.9624 44.7039 31.9624 44.512C31.9624 44.3201 32.0009 44.1301 32.0756 43.9533C32.1502 43.7765 32.2596 43.6165 32.3972 43.4827C32.5348 43.3489 32.6978 43.2441 32.8767 43.1744C33.0555 43.1047 33.2465 43.0716 33.4383 43.077H73.6881C74.0688 43.077 74.434 43.2282 74.7032 43.4975C74.9724 43.7667 75.1237 44.1318 75.1237 44.5126H75.1259ZM16.4832 44.5126C16.483 44.3241 16.52 44.1375 16.592 43.9633C16.664 43.7891 16.7697 43.6309 16.9029 43.4975C17.0361 43.3642 17.1943 43.2584 17.3684 43.1863C17.5425 43.1141 17.7291 43.077 17.9176 43.077H27.637C28.0106 43.0875 28.3654 43.2433 28.626 43.5112C28.8865 43.7792 29.0323 44.1383 29.0323 44.512C29.0323 44.8858 28.8865 45.2448 28.626 45.5128C28.3654 45.7807 28.0106 45.9365 27.637 45.947H17.9153C17.5349 45.947 17.17 45.7959 16.901 45.5269C16.632 45.2579 16.4809 44.893 16.4809 44.5126H16.4832ZM75.1259 50.3558C75.1259 50.5443 75.0888 50.7309 75.0166 50.905C74.9445 51.0791 74.8387 51.2373 74.7054 51.3705C74.5721 51.5037 74.4138 51.6093 74.2396 51.6814C74.0655 51.7534 73.8788 51.7904 73.6904 51.7902H52.8533C52.6615 51.7956 52.4705 51.7625 52.2917 51.6928C52.1129 51.6231 51.9498 51.5183 51.8122 51.3845C51.6746 51.2507 51.5653 51.0907 51.4906 50.9139C51.4159 50.7371 51.3774 50.5471 51.3774 50.3552C51.3774 50.1633 51.4159 49.9733 51.4906 49.7965C51.5653 49.6197 51.6746 49.4597 51.8122 49.3259C51.9498 49.1922 52.1129 49.0873 52.2917 49.0176C52.4705 48.9479 52.6615 48.9148 52.8533 48.9202H73.6881C74.0688 48.9202 74.434 49.0714 74.7032 49.3407C74.9724 49.6099 75.1237 49.975 75.1237 50.3558H75.1259ZM16.4832 50.3558C16.483 50.1673 16.52 49.9807 16.592 49.8065C16.664 49.6323 16.7697 49.4741 16.9029 49.3407C17.0361 49.2074 17.1943 49.1016 17.3684 49.0295C17.5425 48.9573 17.7291 48.9202 17.9176 48.9202H47.0498C47.2416 48.9148 47.4326 48.9479 47.6114 49.0176C47.7902 49.0873 47.9533 49.1922 48.0909 49.3259C48.2285 49.4597 48.3378 49.6197 48.4125 49.7965C48.4872 49.9733 48.5257 50.1633 48.5257 50.3552C48.5257 50.5471 48.4872 50.7371 48.4125 50.9139C48.3378 51.0907 48.2285 51.2507 48.0909 51.3845C47.9533 51.5183 47.7902 51.6231 47.6114 51.6928C47.4326 51.7625 47.2416 51.7956 47.0498 51.7902H17.9153C17.5349 51.7902 17.17 51.6391 16.901 51.3701C16.632 51.1011 16.4809 50.7362 16.4809 50.3558H16.4832ZM75.1259 56.199C75.1259 56.3875 75.0888 56.5741 75.0166 56.7482C74.9445 56.9223 74.8387 57.0805 74.7054 57.2137C74.5721 57.3469 74.4138 57.4526 74.2396 57.5246C74.0655 57.5966 73.8788 57.6336 73.6904 57.6334H38.8747C38.6829 57.6388 38.4919 57.6057 38.3131 57.536C38.1343 57.4663 37.9713 57.3615 37.8337 57.2277C37.6961 57.0939 37.5867 56.9339 37.512 56.7571C37.4373 56.5803 37.3988 56.3903 37.3988 56.1984C37.3988 56.0065 37.4373 55.8165 37.512 55.6397C37.5867 55.4629 37.6961 55.3029 37.8337 55.1691C37.9713 55.0354 38.1343 54.9305 38.3131 54.8608C38.4919 54.7911 38.6829 54.758 38.8747 54.7634H73.6881C74.0688 54.7634 74.434 54.9146 74.7032 55.1839C74.9724 55.4531 75.1237 55.8182 75.1237 56.199H75.1259ZM34.5079 56.199C34.5079 56.3875 34.4708 56.5741 34.3986 56.7482C34.3265 56.9223 34.2207 57.0805 34.0874 57.2137C33.954 57.3469 33.7958 57.4526 33.6216 57.5246C33.4474 57.5966 33.2608 57.6336 33.0723 57.6334H17.9153C17.5417 57.6229 17.1869 57.4671 16.9264 57.1992C16.6658 56.9312 16.5201 56.5722 16.5201 56.1984C16.5201 55.8247 16.6658 55.4656 16.9264 55.1977C17.1869 54.9297 17.5417 54.7739 17.9153 54.7634H33.0701C33.4508 54.7634 33.8159 54.9146 34.0852 55.1839C34.3544 55.4531 34.5056 55.8182 34.5056 56.199H34.5079ZM62.6815 62.6484C62.6815 63.0288 62.5304 63.3937 62.2614 63.6627C61.9924 63.9317 61.6275 64.0828 61.2471 64.0828H38.4929C38.1193 64.0723 37.7645 63.9165 37.5039 63.6486C37.2434 63.3806 37.0976 63.0216 37.0976 62.6478C37.0976 62.274 37.2434 61.915 37.5039 61.6471C37.7645 61.3791 38.1193 61.2233 38.4929 61.2128H61.2448C61.4333 61.2128 61.6199 61.2499 61.794 61.3221C61.9681 61.3942 62.1263 61.5 62.2595 61.6333C62.3927 61.7666 62.4984 61.9249 62.5704 62.0991C62.6424 62.2733 62.6794 62.4599 62.6792 62.6484H62.6815ZM31.9325 61.751C32.2014 62.0202 32.3525 62.3851 32.3525 62.7656C32.3525 63.1462 32.2014 63.5111 31.9325 63.7803L27.7821 67.9307C27.5129 68.1997 27.1479 68.3507 26.7674 68.3507C26.3869 68.3507 26.0219 68.1997 25.7527 67.9307L22.9201 65.0981C22.6517 64.8282 22.5016 64.4628 22.5026 64.0822C22.5037 63.7017 22.6559 63.3371 22.9257 63.0687C23.1956 62.8004 23.561 62.6502 23.9416 62.6513C24.3221 62.6524 24.6867 62.8046 24.9551 63.0744L26.768 64.8873L29.9043 61.751C30.1733 61.4831 30.5375 61.3327 30.9172 61.3327C31.2969 61.3327 31.6611 61.4831 31.9302 61.751H31.9325ZM37.0607 67.0345C37.0606 66.846 37.0975 66.6593 37.1696 66.4852C37.2416 66.311 37.3472 66.1527 37.4804 66.0194C37.6137 65.8861 37.7718 65.7803 37.946 65.7082C38.1201 65.636 38.3067 65.5989 38.4952 65.5989H43.1237C43.3156 65.5935 43.5065 65.6266 43.6854 65.6963C43.8642 65.766 44.0272 65.8708 44.1648 66.0046C44.3024 66.1384 44.4118 66.2984 44.4865 66.4752C44.5612 66.652 44.5996 66.842 44.5996 67.0339C44.5996 67.2258 44.5612 67.4158 44.4865 67.5926C44.4118 67.7694 44.3024 67.9294 44.1648 68.0632C44.0272 68.197 43.8642 68.3018 43.6854 68.3715C43.5065 68.4412 43.3156 68.4743 43.1237 68.4689H38.4929C38.1125 68.4689 37.7476 68.3178 37.4786 68.0488C37.2096 67.7798 37.0584 67.4149 37.0584 67.0345H37.0607ZM37.0607 78.3152C37.0607 77.9348 37.2118 77.5699 37.4808 77.3009C37.7499 77.0319 38.1147 76.8808 38.4952 76.8808H43.1237C43.3156 76.8754 43.5065 76.9085 43.6854 76.9782C43.8642 77.0479 44.0272 77.1527 44.1648 77.2865C44.3024 77.4203 44.4118 77.5803 44.4865 77.7571C44.5612 77.9339 44.5996 78.1239 44.5996 78.3158C44.5996 78.5077 44.5612 78.6977 44.4865 78.8745C44.4118 79.0513 44.3024 79.2113 44.1648 79.3451C44.0272 79.4789 43.8642 79.5837 43.6854 79.6534C43.5065 79.7231 43.3156 79.7562 43.1237 79.7508H38.4929C38.3044 79.7508 38.1178 79.7137 37.9437 79.6415C37.7696 79.5694 37.6114 79.4636 37.4782 79.3303C37.345 79.197 37.2393 79.0387 37.1673 78.8645C37.0953 78.6904 37.0583 78.5037 37.0584 78.3152H37.0607ZM38.4952 72.4947H61.2471C61.6207 72.5052 61.9755 72.661 62.236 72.929C62.4966 73.1969 62.6423 73.556 62.6423 73.9297C62.6423 74.3035 62.4966 74.6625 62.236 74.9305C61.9755 75.1984 61.6207 75.3542 61.2471 75.3647H38.4929C38.1193 75.3542 37.7645 75.1984 37.5039 74.9305C37.2434 74.6625 37.0976 74.3035 37.0976 73.9297C37.0976 73.556 37.2434 73.1969 37.5039 72.929C37.7645 72.661 38.1193 72.5052 38.4929 72.4947H38.4952ZM31.9325 73.0329C32.2014 73.3021 32.3525 73.667 32.3525 74.0476C32.3525 74.4281 32.2014 74.793 31.9325 75.0622L27.7821 79.2126C27.6488 79.3459 27.4907 79.4517 27.3166 79.5238C27.1425 79.596 26.9559 79.6331 26.7674 79.6331C26.5789 79.6331 26.3923 79.596 26.2182 79.5238C26.0441 79.4517 25.886 79.3459 25.7527 79.2126L22.9201 76.38C22.6649 76.1075 22.5259 75.7464 22.5325 75.3731C22.5391 74.9999 22.6909 74.6439 22.9556 74.3806C23.2203 74.1174 23.5771 73.9676 23.9504 73.9631C24.3237 73.9586 24.684 74.0996 24.9551 74.3563L26.768 76.1692L29.9043 73.034C30.1732 72.766 30.5373 72.6153 30.917 72.6151C31.2967 72.6149 31.661 72.7651 31.9302 73.0329H31.9325ZM75.1237 89.5971C75.1237 89.7856 75.0865 89.9722 75.0144 90.1463C74.9422 90.3204 74.8365 90.4786 74.7031 90.6118C74.5698 90.7451 74.4115 90.8507 74.2374 90.9227C74.0632 90.9947 73.8766 91.0317 73.6881 91.0316H47.128C46.7544 91.0211 46.3996 90.8653 46.139 90.5973C45.8785 90.3293 45.7327 89.9703 45.7327 89.5966C45.7327 89.2228 45.8785 88.8638 46.139 88.5958C46.3996 88.3278 46.7544 88.172 47.128 88.1615H73.6881C74.0688 88.1615 74.434 88.3128 74.7032 88.582C74.9724 88.8512 75.1237 89.2164 75.1237 89.5971ZM44.557 89.5971C44.557 89.7856 44.5199 89.9722 44.4477 90.1463C44.3756 90.3204 44.2698 90.4786 44.1365 90.6118C44.0032 90.7451 43.8449 90.8507 43.6707 90.9227C43.4966 90.9947 43.3099 91.0317 43.1215 91.0316H38.4929C38.1193 91.0211 37.7645 90.8653 37.5039 90.5973C37.2434 90.3293 37.0976 89.9703 37.0976 89.5966C37.0976 89.2228 37.2434 88.8638 37.5039 88.5958C37.7645 88.3278 38.1193 88.172 38.4929 88.1615H43.1215C43.5022 88.1615 43.8673 88.3128 44.1366 88.582C44.4058 88.8512 44.557 89.2164 44.557 89.5971ZM38.4929 83.7766H61.2448C61.6184 83.7871 61.9732 83.9429 62.2337 84.2109C62.4943 84.4788 62.6401 84.8379 62.6401 85.2116C62.6401 85.5854 62.4943 85.9444 62.2337 86.2124C61.9732 86.4803 61.6184 86.6361 61.2448 86.6466H38.4929C38.1193 86.6361 37.7645 86.4803 37.5039 86.2124C37.2434 85.9444 37.0976 85.5854 37.0976 85.2116C37.0976 84.8379 37.2434 84.4788 37.5039 84.2109C37.7645 83.9429 38.1193 83.7871 38.4929 83.7766ZM31.9302 84.3137C32.1991 84.5828 32.3502 84.9478 32.3502 85.3283C32.3502 85.7088 32.1991 86.0738 31.9302 86.343L27.7798 90.4934C27.6467 90.627 27.4886 90.7329 27.3145 90.8053C27.1404 90.8776 26.9537 90.9148 26.7651 90.9148C26.5766 90.9148 26.3899 90.8776 26.2158 90.8053C26.0417 90.7329 25.8835 90.627 25.7505 90.4934L22.9178 87.6664C22.6487 87.3962 22.4979 87.0303 22.4987 86.6489C22.4994 86.2676 22.6516 85.9022 22.9218 85.6331C23.1919 85.364 23.5579 85.2132 23.9392 85.214C24.3206 85.2147 24.686 85.3669 24.9551 85.6371L26.768 87.45L29.9043 84.3137C30.1733 84.0458 30.5375 83.8953 30.9172 83.8953C31.2969 83.8953 31.6611 84.0458 31.9302 84.3137ZM95.1528 69.7799C95.2861 69.9131 95.3919 70.0713 95.464 70.2454C95.5362 70.4195 95.5733 70.6061 95.5733 70.7945C95.5733 70.983 95.5362 71.1696 95.464 71.3437C95.3919 71.5178 95.2861 71.676 95.1528 71.8092L86.3671 80.5995C86.2337 80.7328 86.0755 80.8386 85.9013 80.9108C85.7271 80.9829 85.5404 81.0201 85.3518 81.0201C85.1633 81.0201 84.9766 80.9829 84.8024 80.9108C84.6282 80.8386 84.4699 80.7328 84.3366 80.5995L79.2208 75.4894C78.9599 75.2184 78.8158 74.8559 78.8194 74.4798C78.823 74.1037 78.974 73.744 79.2401 73.4782C79.5061 73.2123 79.8659 73.0614 80.242 73.058C80.6181 73.0546 80.9805 73.199 81.2513 73.4601L85.3473 77.5549L93.1224 69.7799C93.2557 69.6465 93.414 69.5408 93.5882 69.4686C93.7624 69.3964 93.949 69.3593 94.1376 69.3593C94.3261 69.3593 94.5128 69.3964 94.687 69.4686C94.8612 69.5408 95.0195 69.6465 95.1528 69.7799Z" fill="#06306A"/>
</svg>
