<svg width="112" height="112" viewBox="0 0 112 112" fill="none" xmlns="http://www.w3.org/2000/svg">
<path d="M18.5151 68.2793H69.9343C71.8875 68.2793 73.4751 66.6917 73.4751 64.74V35.6954C73.4751 33.7436 71.8864 32.1561 69.9343 32.1561H18.5151C16.5619 32.1561 14.9732 33.7436 14.9732 35.6954V64.7411C14.9743 66.6917 16.563 68.2793 18.5151 68.2793ZM17.808 35.6954C17.808 35.3061 18.1255 34.9888 18.5151 34.9888H69.9343C70.3238 34.9888 70.6414 35.3061 70.6414 35.6954V64.7411C70.6414 65.1304 70.3238 65.4477 69.9343 65.4477H18.5151C18.1255 65.4477 17.808 65.1304 17.808 64.7411V35.6954ZM20.6952 58.9492H21.4241C23.016 58.9492 24.3112 60.2434 24.3112 61.8343V62.5626C24.3112 63.3444 24.9452 63.979 25.7286 63.979H62.7207C63.5031 63.979 64.1381 63.3455 64.1381 62.5626V61.8343C64.1381 60.2434 65.4333 58.9492 67.0253 58.9492H67.7542C68.5365 58.9492 69.1716 58.3157 69.1716 57.5328V42.9036C69.1716 42.1219 68.5376 41.4873 67.7542 41.4873H67.0253C65.4333 41.4873 64.1381 40.193 64.1381 38.6022V37.8739C64.1381 37.0921 63.5042 36.4575 62.7207 36.4575H25.7286C24.9463 36.4575 24.3112 37.091 24.3112 37.8739V38.6022C24.3112 40.193 23.016 41.4873 21.4241 41.4873H20.6952C19.9128 41.4873 19.2778 42.1208 19.2778 42.9036V57.5328C19.2778 58.3146 19.9128 58.9492 20.6952 58.9492ZM22.1126 44.2786C24.7182 43.9646 26.7914 41.894 27.1046 39.2902H61.3448C61.659 41.894 63.7311 43.9656 66.3368 44.2786V56.159C63.7311 56.473 61.6579 58.5436 61.3448 61.1473H27.1046C26.7903 58.5436 24.7182 56.4719 22.1126 56.159V44.2786ZM44.2247 60.5444C49.9227 60.5444 54.5578 55.9126 54.5578 50.2188C54.5578 44.525 49.9227 39.8932 44.2247 39.8932C38.5267 39.8932 33.8915 44.525 33.8915 50.2188C33.8904 55.9115 38.5267 60.5444 44.2247 60.5444ZM44.2247 42.7237C48.3601 42.7237 51.7241 46.0853 51.7241 50.2177C51.7241 54.3501 48.3601 57.7116 44.2247 57.7116C40.0892 57.7116 36.7252 54.3501 36.7252 50.2177C36.7252 46.0853 40.0892 42.7237 44.2247 42.7237ZM86.631 66.2905C75.9509 66.2905 67.2621 74.9729 67.2621 85.6452C67.2621 96.3176 75.9509 105 86.631 105C97.3112 105 106 96.3176 106 85.6452C106 74.9729 97.3112 66.2905 86.631 66.2905ZM86.631 102.167C77.5134 102.167 70.0958 94.7551 70.0958 85.6442C70.0958 76.5332 77.5134 69.1221 86.631 69.1221C95.7487 69.1221 103.166 76.5343 103.166 85.6442C103.166 94.7562 95.7487 102.167 86.631 102.167ZM88.0484 77.8634V85.6452C88.0484 86.3987 87.4603 87.0125 86.7183 87.0572C86.6932 87.0594 86.666 87.0616 86.6321 87.0616L81.0345 87.0627C80.2522 87.0627 79.6182 86.4292 79.6171 85.6474C79.6171 84.8657 80.2511 84.2311 81.0335 84.2311L85.2147 84.23V77.8634C85.2147 77.0817 85.8487 76.4471 86.6321 76.4471C87.4134 76.4471 88.0484 77.0806 88.0484 77.8634ZM88.0484 71.8469V72.741C88.0484 73.5228 87.4145 74.1573 86.631 74.1573C85.8487 74.1573 85.2136 73.5239 85.2136 72.741V71.8469C85.2136 71.0651 85.8476 70.4305 86.631 70.4305C87.4134 70.4316 88.0484 71.0651 88.0484 71.8469ZM97.3974 74.8868C97.9506 75.4396 97.9506 76.3359 97.3974 76.8898L96.7645 77.5222C96.4874 77.7991 96.1251 77.9365 95.7629 77.9365C95.4006 77.9365 95.0372 77.798 94.7612 77.5222C94.208 76.9694 94.208 76.0731 94.7612 75.5192L95.394 74.8868C95.9462 74.334 96.8431 74.334 97.3974 74.8868ZM101.856 85.6452C101.856 86.427 101.222 87.0616 100.438 87.0616H99.5437C98.7613 87.0616 98.1263 86.4281 98.1263 85.6452C98.1263 84.8635 98.7602 84.2289 99.5437 84.2289H100.438C101.222 84.2289 101.856 84.8635 101.856 85.6452ZM97.3974 94.4007C97.9506 94.9535 97.9506 95.8498 97.3974 96.4037C97.1202 96.6806 96.758 96.818 96.3957 96.818C96.0335 96.818 95.6701 96.6796 95.394 96.4037L94.7612 95.7713C94.208 95.2185 94.208 94.3222 94.7612 93.7683C95.3144 93.2155 96.2113 93.2155 96.7656 93.7683L97.3974 94.4007ZM88.0484 98.5495V99.4436C88.0484 100.225 87.4145 100.86 86.631 100.86C85.8487 100.86 85.2136 100.226 85.2136 99.4436V98.5495C85.2136 97.7677 85.8476 97.1331 86.631 97.1331C87.4134 97.1331 88.0484 97.7666 88.0484 98.5495ZM78.502 93.7683C79.0552 94.3211 79.0552 95.2174 78.502 95.7713L77.8691 96.4037C77.592 96.6806 77.2297 96.818 76.8674 96.818C76.5052 96.818 76.1418 96.6796 75.8658 96.4037C75.3126 95.8509 75.3126 94.9546 75.8658 94.4007L76.4986 93.7683C77.0519 93.2155 77.9488 93.2155 78.502 93.7683ZM75.1347 85.6452C75.1347 86.427 74.5008 87.0616 73.7173 87.0616H72.8226C72.0402 87.0616 71.4052 86.4281 71.4052 85.6452C71.4052 84.8635 72.0391 84.2289 72.8226 84.2289H73.7173C74.5008 84.2289 75.1347 84.8635 75.1347 85.6452ZM78.502 75.5192C79.0552 76.072 79.0552 76.9683 78.502 77.5222C78.2248 77.7991 77.8626 77.9365 77.5003 77.9365C77.1381 77.9365 76.7747 77.798 76.4986 77.5222L75.8658 76.8898C75.3126 76.337 75.3126 75.4407 75.8658 74.8868C76.419 74.334 77.3159 74.334 77.8702 74.8868L78.502 75.5192ZM54.8143 79.4183L45.5286 81.3253C44.9798 80.3047 44.0883 79.5349 42.9939 79.1424L36.4546 76.7982C31.6437 72.8391 28.6715 73.5718 24.3833 75.2433C21.663 76.3042 18.8773 77.3444 16.1833 78.3497L15.8363 78.4795L15.7206 78.0662C15.2765 76.4809 13.6267 75.5497 12.0391 75.9913L8.1939 77.0599C7.41263 77.2768 6.7885 77.7653 6.39023 78.4708C5.99196 79.1773 5.89594 79.9624 6.11417 80.743L10.482 96.371C10.8508 97.6892 12.0555 98.555 13.3638 98.555C13.6278 98.555 13.8973 98.5201 14.1636 98.4459L18.0088 97.3774C18.79 97.1604 19.4142 96.6719 19.8113 95.9665C20.2096 95.261 20.3056 94.4749 20.0874 93.6942L20.0372 93.5132L26.0091 91.1995C26.7663 90.9062 27.4734 90.904 28.2328 91.194L35.6908 94.0442C36.5343 94.3669 37.4214 94.4934 38.3194 94.4934C40.2464 94.4934 42.2213 93.9079 43.9137 93.4063L59.1909 88.9305C61.9111 88.1334 63.801 85.0456 63.1539 82.4527C62.8931 81.3918 61.5117 78.0434 54.8143 79.4183ZM17.3454 94.5741C17.317 94.6243 17.3061 94.6319 17.2515 94.6471L13.4063 95.7157C13.3234 95.7386 13.2361 95.6884 13.2132 95.6067L8.84422 79.9798C8.82894 79.9253 8.83004 79.9111 8.85841 79.861C8.88678 79.8108 8.89769 79.8032 8.95224 79.7879L12.7985 78.7183C12.8116 78.715 12.8258 78.7128 12.8389 78.7128C12.9077 78.7128 12.972 78.7586 12.9917 78.8273L13.5154 80.7027L16.9602 93.0291L16.9613 93.0323L17.3595 94.4552C17.3748 94.5109 17.3737 94.5239 17.3454 94.5741ZM58.3965 86.2122L43.1095 90.6903C41.0385 91.3042 38.4601 92.0696 36.7045 91.3979L29.2465 88.5477C27.8324 88.0069 26.3986 88.0102 24.9867 88.5576L19.2723 90.771L16.6012 81.2152L17.1751 81.0015C19.879 79.9918 22.6745 78.9483 25.4144 77.8809C29.1701 76.4155 30.9934 75.9041 34.8288 79.1293C34.9576 79.2373 35.1049 79.3223 35.262 79.379L42.0369 81.8083C42.4974 81.973 42.8673 82.311 43.079 82.7591C43.2907 83.2072 43.3158 83.7077 43.151 84.1678C42.8073 85.1251 41.7489 85.6245 40.7897 85.2811L31.7856 82.0526C31.0502 81.7887 30.2373 82.1714 29.9732 82.9074C29.7091 83.6434 30.0921 84.4546 30.8287 84.7184L39.8328 87.947C42.2617 88.8182 44.947 87.5512 45.8178 85.1241C45.9378 84.7915 46.0174 84.4502 46.06 84.1068L55.3838 82.1921C58.1925 81.6153 60.1172 81.9773 60.4053 83.1364C60.6617 84.158 59.7659 85.811 58.3965 86.2122ZM57.1864 26.1374L66.4699 24.2315C66.9991 25.2117 67.8764 26.0087 69.0057 26.4132L75.545 28.7575C78.131 30.8858 80.1856 31.6578 82.1977 31.6578C83.9305 31.6578 85.6326 31.0854 87.6152 30.3123C90.3289 29.2536 93.1092 28.2167 95.7967 27.2125L96.1622 27.0762L96.2779 27.4894C96.6467 28.8087 97.8513 29.6745 99.1596 29.6745C99.4237 29.6745 99.6932 29.6396 99.9594 29.5643L103.805 28.4958C104.586 28.2788 105.209 27.7914 105.608 27.0849C106.007 26.3794 106.101 25.5933 105.883 24.8137L101.518 9.18467C101.075 7.5993 99.4226 6.66815 97.836 7.10974L93.9908 8.17828C93.2096 8.39525 92.5865 8.88373 92.1883 9.58918C91.79 10.2946 91.6951 11.0808 91.9133 11.8604L91.9635 12.0414L85.9916 14.3551C85.2344 14.6484 84.5273 14.6506 83.7679 14.3605L76.3099 11.5104C73.6573 10.4964 70.5683 11.4122 68.0859 12.1482L52.8087 16.6241C50.0885 17.4211 48.1997 20.509 48.8457 23.1019C49.1076 24.1628 50.4901 27.5123 57.1864 26.1374ZM94.6553 10.9816C94.6837 10.9314 94.6946 10.9227 94.7492 10.9074L98.5944 9.83887C98.6762 9.81598 98.7646 9.86613 98.7875 9.94791L103.155 25.5758C103.171 25.6315 103.17 25.6445 103.141 25.6947C103.113 25.7449 103.102 25.7536 103.046 25.7688L99.2011 26.8374C99.1203 26.8603 99.0308 26.809 99.009 26.7294L94.6412 11.0993C94.6259 11.0448 94.627 11.0306 94.6553 10.9816ZM53.6042 19.3434L68.8901 14.8654C70.9622 14.2515 73.5405 13.4861 75.2951 14.1577L82.7531 17.0079C84.1672 17.5487 85.601 17.5454 87.0129 16.9981L92.7273 14.7847L95.3984 24.3405L94.8059 24.5618C92.1086 25.5693 89.3185 26.6106 86.5863 27.6759C82.8295 29.1413 81.0073 29.6527 77.1719 26.4274C77.0431 26.3195 76.8958 26.2344 76.7387 26.1777L69.9638 23.7484C69.0057 23.405 68.506 22.3462 68.8497 21.3889C69.1934 20.4316 70.2529 19.9322 71.2109 20.2757L80.2151 23.5042C80.9516 23.7681 81.7634 23.3853 82.0275 22.6494C82.2915 21.9134 81.9086 21.1022 81.172 20.8383L72.1679 17.6098C69.7379 16.7386 67.0537 18.0056 66.1829 20.4327C66.0618 20.7685 65.9822 21.1098 65.9418 21.45L56.6168 23.3646C53.8082 23.9414 51.8834 23.5794 51.5954 22.4204C51.3401 21.3976 52.2348 19.7436 53.6042 19.3434Z" fill="#06306A"/>
</svg>
